BosaLisuMaster-ExtraLightItalic.ufo
<glyph name="dollar" format="2">
  <advance width="440"/>
  <unicode hex="0024"/>
  <outline>
    <contour>
      <point x="386" y="414" type="curve" smooth="yes"/>
      <point x="386" y="426"/>
      <point x="373" y="446"/>
      <point x="356" y="461" type="curve" smooth="yes"/>
      <point x="333" y="482"/>
      <point x="293" y="503"/>
      <point x="239" y="503" type="curve" smooth="yes"/>
      <point x="141" y="503"/>
      <point x="88" y="438"/>
      <point x="88" y="375" type="curve" smooth="yes"/>
      <point x="88" y="280"/>
      <point x="267" y="218"/>
      <point x="267" y="149" type="curve" smooth="yes"/>
      <point x="267" y="117"/>
      <point x="230" y="93"/>
      <point x="184" y="93" type="curve" smooth="yes"/>
      <point x="135" y="93"/>
      <point x="105" y="123"/>
      <point x="93" y="143" type="curve" smooth="yes"/>
      <point x="87" y="153"/>
      <point x="84" y="158"/>
      <point x="81" y="163" type="curve" smooth="yes"/>
      <point x="77" y="170"/>
      <point x="73" y="172"/>
      <point x="67" y="172" type="curve" smooth="yes"/>
      <point x="51" y="172"/>
      <point x="16" y="159"/>
      <point x="16" y="139" type="curve" smooth="yes"/>
      <point x="16" y="125"/>
      <point x="24" y="111"/>
      <point x="32" y="98" type="curve" smooth="yes"/>
      <point x="49" y="70"/>
      <point x="107" y="24"/>
      <point x="175" y="24" type="curve" smooth="yes"/>
      <point x="273" y="24"/>
      <point x="338" y="85"/>
      <point x="338" y="159" type="curve" smooth="yes"/>
      <point x="338" y="250"/>
      <point x="159" y="334"/>
      <point x="159" y="381" type="curve" smooth="yes"/>
      <point x="159" y="412"/>
      <point x="189" y="434"/>
      <point x="230" y="434" type="curve" smooth="yes"/>
      <point x="269" y="434"/>
      <point x="294" y="420"/>
      <point x="316" y="393" type="curve" smooth="yes"/>
      <point x="321" y="387"/>
      <point x="326" y="382"/>
      <point x="333" y="382" type="curve" smooth="yes"/>
      <point x="348" y="382"/>
      <point x="386" y="398"/>
    </contour>
    <contour>
      <point x="296" y="538" type="curve" smooth="yes"/>
      <point x="280" y="538"/>
      <point x="271" y="535"/>
      <point x="266" y="529" type="curve" smooth="yes"/>
      <point x="262" y="524"/>
      <point x="256" y="510"/>
      <point x="253" y="502" type="curve" smooth="yes"/>
      <point x="241" y="469"/>
      <point x="233" y="436"/>
      <point x="222" y="403" type="curve" smooth="yes"/>
      <point x="192" y="313"/>
      <point x="163" y="230"/>
      <point x="130" y="140" type="curve" smooth="yes"/>
      <point x="117" y="104"/>
      <point x="102" y="67"/>
      <point x="90" y="30" type="curve" smooth="yes"/>
      <point x="88" y="24"/>
      <point x="86" y="18"/>
      <point x="86" y="11" type="curve" smooth="yes"/>
      <point x="86" y="3"/>
      <point x="94" y="-9"/>
      <point x="121" y="-9" type="curve" smooth="yes"/>
      <point x="147" y="-9"/>
      <point x="158" y="0"/>
      <point x="163" y="17" type="curve" smooth="yes"/>
      <point x="168" y="33"/>
      <point x="177" y="66"/>
      <point x="189" y="104" type="curve" smooth="yes"/>
      <point x="212" y="177"/>
      <point x="243" y="271"/>
      <point x="278" y="366" type="curve" smooth="yes"/>
      <point x="294" y="409"/>
      <point x="314" y="452"/>
      <point x="328" y="495" type="curve" smooth="yes"/>
      <point x="330" y="501"/>
      <point x="334" y="513"/>
      <point x="334" y="516" type="curve" smooth="yes"/>
      <point x="334" y="527"/>
      <point x="316" y="538"/>
    </contour>
  </outline>
</glyph>
<glyph name="quotesingle" format="2">
  <advance width="155"/>
  <unicode hex="0027"/>
  <outline>
    <contour>
      <point x="98" y="305" type="curve" smooth="yes"/>
      <point x="90" y="297"/>
      <point x="82" y="295"/>
      <point x="75" y="295" type="curve" smooth="yes"/>
      <point x="66" y="295"/>
      <point x="63" y="304"/>
      <point x="63" y="313" type="curve" smooth="yes"/>
      <point x="63" y="317"/>
      <point x="63" y="322"/>
      <point x="68" y="339" type="curve" smooth="yes"/>
      <point x="77" y="368"/>
      <point x="98" y="437"/>
      <point x="109" y="482" type="curve" smooth="yes"/>
      <point x="113" y="498"/>
      <point x="118" y="512"/>
      <point x="120" y="520" type="curve" smooth="yes"/>
      <point x="123" y="534"/>
      <point x="139" y="537"/>
      <point x="161" y="537" type="curve" smooth="yes"/>
      <point x="185" y="537"/>
      <point x="198" y="525"/>
      <point x="198" y="511" type="curve" smooth="yes"/>
      <point x="198" y="480"/>
      <point x="156" y="394"/>
      <point x="136" y="359" type="curve" smooth="yes"/>
      <point x="116" y="323"/>
      <point x="105" y="312"/>
    </contour>
  </outline>
</glyph>
<glyph name="parenright" format="2">
  <advance width="328"/>
  <unicode hex="0029"/>
  <outline>
    <contour>
      <point x="288" y="293" type="curve" smooth="yes"/>
      <point x="234" y="94"/>
      <point x="162" y="-1"/>
      <point x="-33" y="-82" type="curve"/>
      <point x="-21" y="-37" type="line"/>
      <point x="121" y="23"/>
      <point x="161" y="146"/>
      <point x="201" y="293" type="curve" smooth="yes"/>
      <point x="218" y="356"/>
      <point x="232" y="424"/>
      <point x="232" y="487" type="curve" smooth="yes"/>
      <point x="232" y="552"/>
      <point x="217" y="611"/>
      <point x="163" y="652" type="curve"/>
      <point x="175" y="697" type="line"/>
      <point x="274" y="629"/>
      <point x="310" y="551"/>
      <point x="310" y="453" type="curve" smooth="yes"/>
      <point x="310" y="405"/>
      <point x="304" y="352"/>
    </contour>
  </outline>
</glyph>
<glyph name="hyphen" format="2">
  <advance width="375"/>
  <unicode hex="002D"/>
  <outline>
    <contour>
      <point x="47" y="267" type="curve" smooth="yes"/>
      <point x="44" y="258"/>
      <point x="43" y="251"/>
      <point x="43" y="246" type="curve" smooth="yes"/>
      <point x="43" y="233"/>
      <point x="49" y="228"/>
      <point x="54" y="226" type="curve" smooth="yes"/>
      <point x="61" y="223"/>
      <point x="69" y="223"/>
      <point x="73" y="223" type="curve" smooth="yes"/>
      <point x="113" y="223"/>
      <point x="138" y="226"/>
      <point x="217" y="226" type="curve" smooth="yes"/>
      <point x="248" y="226"/>
      <point x="278" y="224"/>
      <point x="315" y="224" type="curve" smooth="yes"/>
      <point x="323" y="224"/>
      <point x="337" y="225"/>
      <point x="343" y="228" type="curve" smooth="yes"/>
      <point x="349" y="231"/>
      <point x="356" y="237"/>
      <point x="362" y="255" type="curve" smooth="yes"/>
      <point x="364" y="262"/>
      <point x="366" y="269"/>
      <point x="366" y="275" type="curve" smooth="yes"/>
      <point x="366" y="291"/>
      <point x="359" y="297"/>
      <point x="337" y="297" type="curve" smooth="yes"/>
      <point x="306" y="297"/>
      <point x="260" y="295"/>
      <point x="202" y="295" type="curve" smooth="yes"/>
      <point x="146" y="295"/>
      <point x="111" y="297"/>
      <point x="85" y="297" type="curve" smooth="yes"/>
      <point x="67" y="297"/>
      <point x="57" y="294"/>
    </contour>
  </outline>
</glyph>
<glyph name="three" format="2">
  <advance width="474"/>
  <unicode hex="0033"/>
  <outline>
    <contour>
      <point x="392" y="179" type="curve" smooth="yes"/>
      <point x="392" y="74"/>
      <point x="302" y="-8"/>
      <point x="193" y="-8" type="curve" smooth="yes"/>
      <point x="136" y="-8"/>
      <point x="86" y="31"/>
      <point x="69" y="54" type="curve" smooth="yes"/>
      <point x="51" y="78"/>
      <point x="34" y="113"/>
      <point x="34" y="131" type="curve" smooth="yes"/>
      <point x="34" y="149"/>
      <point x="61" y="165"/>
      <point x="85" y="165" type="curve" smooth="yes"/>
      <point x="98" y="165"/>
      <point x="103" y="153"/>
      <point x="110" y="136" type="curve" smooth="yes"/>
      <point x="129" y="88"/>
      <point x="162" y="65"/>
      <point x="204" y="65" type="curve" smooth="yes"/>
      <point x="261" y="65"/>
      <point x="317" y="110"/>
      <point x="317" y="170" type="curve" smooth="yes"/>
      <point x="317" y="204"/>
      <point x="286" y="241"/>
      <point x="241" y="241" type="curve" smooth="yes"/>
      <point x="226" y="241"/>
      <point x="209" y="243"/>
      <point x="202" y="249" type="curve" smooth="yes"/>
      <point x="195" y="255"/>
      <point x="192" y="266"/>
      <point x="192" y="276" type="curve" smooth="yes"/>
      <point x="192" y="285"/>
      <point x="194" y="296"/>
      <point x="201" y="301" type="curve" smooth="yes"/>
      <point x="209" y="306"/>
      <point x="223" y="308"/>
      <point x="248" y="308" type="curve" smooth="yes"/>
      <point x="307" y="308"/>
      <point x="353" y="363"/>
      <point x="353" y="403" type="curve" smooth="yes"/>
      <point x="353" y="442"/>
      <point x="326" y="464"/>
      <point x="283" y="464" type="curve" smooth="yes"/>
      <point x="258" y="464"/>
      <point x="228" y="453"/>
      <point x="209" y="437" type="curve" smooth="yes"/>
      <point x="186" y="417"/>
      <point x="173" y="393"/>
      <point x="163" y="393" type="curve" smooth="yes"/>
      <point x="148" y="393"/>
      <point x="113" y="408"/>
      <point x="113" y="427" type="curve" smooth="yes"/>
      <point x="113" y="441"/>
      <point x="142" y="480"/>
      <point x="176" y="504" type="curve" smooth="yes"/>
      <point x="208" y="526"/>
      <point x="243" y="538"/>
      <point x="291" y="538" type="curve" smooth="yes"/>
      <point x="367" y="538"/>
      <point x="428" y="479"/>
      <point x="428" y="414" type="curve" smooth="yes"/>
      <point x="428" y="358"/>
      <point x="385" y="302"/>
      <point x="332" y="276" type="curve"/>
      <point x="365" y="255"/>
      <point x="392" y="217"/>
    </contour>
  </outline>
</glyph>
<glyph name="seven" format="2">
  <advance width="474"/>
  <unicode hex="0037"/>
  <outline>
    <contour>
      <point x="138" y="492" type="curve" smooth="yes"/>
      <point x="145" y="473"/>
      <point x="159" y="460"/>
      <point x="177" y="460" type="curve" smooth="yes"/>
      <point x="194" y="460"/>
      <point x="218" y="460"/>
      <point x="257" y="460" type="curve" smooth="yes"/>
      <point x="286" y="460"/>
      <point x="325" y="461"/>
      <point x="358" y="461" type="curve" smooth="yes"/>
      <point x="403" y="461"/>
      <point x="411" y="459"/>
      <point x="456" y="459" type="curve" smooth="yes"/>
      <point x="462" y="459"/>
      <point x="479" y="461"/>
      <point x="482" y="462" type="curve" smooth="yes"/>
      <point x="486" y="463"/>
      <point x="494" y="469"/>
      <point x="494" y="480" type="curve" smooth="yes"/>
      <point x="494" y="485"/>
      <point x="493" y="492"/>
      <point x="491" y="499" type="curve" smooth="yes"/>
      <point x="486" y="517"/>
      <point x="476" y="524"/>
      <point x="468" y="527" type="curve" smooth="yes"/>
      <point x="461" y="530"/>
      <point x="442" y="532"/>
      <point x="427" y="532" type="curve" smooth="yes"/>
      <point x="418" y="532"/>
      <point x="370" y="532"/>
      <point x="322" y="532" type="curve" smooth="yes"/>
      <point x="264" y="532"/>
      <point x="204" y="533"/>
      <point x="164" y="533" type="curve" smooth="yes"/>
      <point x="142" y="533"/>
      <point x="134" y="525"/>
      <point x="134" y="511" type="curve" smooth="yes"/>
      <point x="134" y="506"/>
      <point x="135" y="501"/>
    </contour>
    <contour>
      <point x="175" y="6" type="curve" smooth="yes"/>
      <point x="179" y="14"/>
      <point x="189" y="43"/>
      <point x="198" y="63" type="curve" smooth="yes"/>
      <point x="244" y="167"/>
      <point x="322" y="312"/>
      <point x="464" y="443" type="curve" smooth="yes"/>
      <point x="492" y="469"/>
      <point x="492" y="471"/>
      <point x="492" y="478" type="curve" smooth="yes"/>
      <point x="492" y="484"/>
      <point x="491" y="489"/>
      <point x="485" y="498" type="curve" smooth="yes"/>
      <point x="480" y="505"/>
      <point x="468" y="514"/>
      <point x="451" y="514" type="curve" smooth="yes"/>
      <point x="438" y="514"/>
      <point x="422" y="506"/>
      <point x="414" y="498" type="curve" smooth="yes"/>
      <point x="289" y="373"/>
      <point x="175" y="219"/>
      <point x="105" y="47" type="curve" smooth="yes"/>
      <point x="96" y="25"/>
      <point x="93" y="15"/>
      <point x="93" y="9" type="curve" smooth="yes"/>
      <point x="93" y="1"/>
      <point x="104" y="-8"/>
      <point x="137" y="-8" type="curve" smooth="yes"/>
      <point x="161" y="-8"/>
      <point x="172" y="0"/>
    </contour>
  </outline>
</glyph>
<glyph name="colon" format="2">
  <advance width="276"/>
  <unicode hex="003A"/>
  <outline>
    <contour>
      <point x="110" y="-9" type="curve" smooth="yes"/>
      <point x="145" y="-9"/>
      <point x="173" y="17"/>
      <point x="173" y="53" type="curve" smooth="yes"/>
      <point x="173" y="81"/>
      <point x="152" y="105"/>
      <point x="121" y="105" type="curve" smooth="yes"/>
      <point x="86" y="105"/>
      <point x="56" y="79"/>
      <point x="56" y="43" type="curve" smooth="yes"/>
      <point x="56" y="12"/>
      <point x="79" y="-9"/>
    </contour>
    <contour>
      <point x="181" y="325" type="curve" smooth="yes"/>
      <point x="216" y="325"/>
      <point x="244" y="352"/>
      <point x="244" y="388" type="curve" smooth="yes"/>
      <point x="244" y="416"/>
      <point x="223" y="440"/>
      <point x="192" y="440" type="curve" smooth="yes"/>
      <point x="157" y="440"/>
      <point x="126" y="414"/>
      <point x="126" y="378" type="curve" smooth="yes"/>
      <point x="126" y="347"/>
      <point x="149" y="325"/>
    </contour>
  </outline>
</glyph>
<glyph name="semicolon" format="2">
  <advance width="276"/>
  <unicode hex="003B"/>
  <outline>
    <contour>
      <point x="181" y="325" type="curve" smooth="yes"/>
      <point x="216" y="325"/>
      <point x="244" y="352"/>
      <point x="244" y="388" type="curve" smooth="yes"/>
      <point x="244" y="416"/>
      <point x="223" y="440"/>
      <point x="192" y="440" type="curve" smooth="yes"/>
      <point x="157" y="440"/>
      <point x="126" y="414"/>
      <point x="126" y="378" type="curve" smooth="yes"/>
      <point x="126" y="347"/>
      <point x="149" y="325"/>
    </contour>
    <contour>
      <point x="18" y="-147" type="line"/>
      <point x="106" y="-110"/>
      <point x="179" y="-28"/>
      <point x="179" y="58" type="curve" smooth="yes"/>
      <point x="179" y="74"/>
      <point x="175" y="85"/>
      <point x="169" y="95" type="curve"/>
      <point x="156" y="102"/>
      <point x="140" y="106"/>
      <point x="127" y="106" type="curve" smooth="yes"/>
      <point x="87" y="106"/>
      <point x="71" y="80"/>
      <point x="71" y="54" type="curve" smooth="yes"/>
      <point x="71" y="35"/>
      <point x="78" y="18"/>
      <point x="87" y="7" type="curve" smooth="yes"/>
      <point x="123" y="-35" type="line"/>
      <point x="121" y="-9" type="line"/>
      <point x="90" y="-62"/>
      <point x="52" y="-97"/>
      <point x="4" y="-121" type="curve"/>
    </contour>
  </outline>
</glyph>
<glyph name="at" format="2">
  <advance width="802"/>
  <unicode hex="0040"/>
  <outline>
    <contour>
      <point x="322" y="39" type="curve" smooth="yes"/>
      <point x="380" y="39"/>
      <point x="453" y="104"/>
      <point x="511" y="190" type="curve"/>
      <point x="504" y="207" type="line"/>
      <point x="431" y="122"/>
      <point x="391" y="94"/>
      <point x="356" y="94" type="curve" smooth="yes"/>
      <point x="326" y="94"/>
      <point x="307" y="118"/>
      <point x="307" y="169" type="curve" smooth="yes"/>
      <point x="307" y="300"/>
      <point x="406" y="394"/>
      <point x="468" y="394" type="curve" smooth="yes"/>
      <point x="496" y="394"/>
      <point x="525" y="378"/>
      <point x="545" y="360" type="curve"/>
      <point x="575" y="380" type="line"/>
      <point x="553" y="418"/>
      <point x="532" y="448"/>
      <point x="496" y="448" type="curve" smooth="yes"/>
      <point x="392" y="448"/>
      <point x="244" y="277"/>
      <point x="244" y="135" type="curve" smooth="yes"/>
      <point x="244" y="68"/>
      <point x="283" y="39"/>
    </contour>
    <contour>
      <point x="533" y="39" type="curve" smooth="yes"/>
      <point x="618" y="39"/>
      <point x="777" y="128"/>
      <point x="777" y="324" type="curve" smooth="yes"/>
      <point x="777" y="478"/>
      <point x="693" y="607"/>
      <point x="498" y="607" type="curve" smooth="yes"/>
      <point x="263" y="607"/>
      <point x="60" y="417"/>
      <point x="60" y="147" type="curve" smooth="yes"/>
      <point x="60" y="-30"/>
      <point x="182" y="-142"/>
      <point x="361" y="-142" type="curve" smooth="yes"/>
      <point x="414" y="-142"/>
      <point x="482" y="-131"/>
      <point x="537" y="-103" type="curve"/>
      <point x="527" y="-75" type="line"/>
      <point x="484" y="-92"/>
      <point x="438" y="-101"/>
      <point x="382" y="-101" type="curve" smooth="yes"/>
      <point x="214" y="-101"/>
      <point x="115" y="-8"/>
      <point x="115" y="160" type="curve" smooth="yes"/>
      <point x="115" y="391"/>
      <point x="289" y="570"/>
      <point x="494" y="570" type="curve" smooth="yes"/>
      <point x="637" y="570"/>
      <point x="727" y="471"/>
      <point x="727" y="326" type="curve" smooth="yes"/>
      <point x="727" y="152"/>
      <point x="611" y="86"/>
      <point x="557" y="86" type="curve" smooth="yes"/>
      <point x="526" y="86"/>
      <point x="517" y="100"/>
      <point x="528" y="149" type="curve" smooth="yes"/>
      <point x="595" y="449" type="line"/>
      <point x="580" y="457" type="line"/>
      <point x="527" y="412" type="line"/>
      <point x="471" y="154" type="line" smooth="yes"/>
      <point x="456" y="88"/>
      <point x="466" y="39"/>
    </contour>
  </outline>
</glyph>
<glyph name="A" format="2">
  <advance width="621"/>
  <unicode hex="0041"/>
  <anchor x="397" y="635" name="aboveUC"/>
  <anchor x="259" y="-20" name="belowLC"/>
  <anchor x="483" y="0" name="ogonek"/>
  <outline>
    <contour>
      <point x="-26" y="0" type="line"/>
      <point x="179" y="0" type="line"/>
      <point x="186" y="36" type="line"/>
      <point x="95" y="50" type="line"/>
      <point x="79" y="50" type="line"/>
      <point x="-19" y="36" type="line"/>
    </contour>
    <contour>
      <point x="30" y="0" type="line"/>
      <point x="80" y="0" type="line"/>
      <point x="370" y="547" type="line"/>
      <point x="357" y="547" type="line"/>
      <point x="431" y="0" type="line"/>
      <point x="512" y="0" type="line"/>
      <point x="425" y="616" type="line"/>
      <point x="373" y="616" type="line"/>
    </contour>
    <contour>
      <point x="179" y="224" type="line"/>
      <point x="442" y="224" type="line"/>
      <point x="454" y="266" type="line"/>
      <point x="192" y="266" type="line"/>
    </contour>
    <contour>
      <point x="337" y="0" type="line"/>
      <point x="580" y="0" type="line"/>
      <point x="587" y="36" type="line"/>
      <point x="478" y="50" type="line"/>
      <point x="461" y="50" type="line"/>
      <point x="345" y="36" type="line"/>
    </contour>
  </outline>
</glyph>
<glyph name="B" format="2">
  <advance width="574"/>
  <unicode hex="0042"/>
  <anchor x="342" y="635" name="aboveUC"/>
  <anchor x="262" y="-20" name="belowLC"/>
  <outline>
    <contour>
      <point x="14" y="0" type="line"/>
      <point x="130" y="0" type="line"/>
      <point x="139" y="50" type="line"/>
      <point x="134" y="50" type="line"/>
      <point x="22" y="36" type="line"/>
    </contour>
    <contour>
      <point x="92" y="0" type="line"/>
      <point x="173" y="0" type="line"/>
      <point x="188" y="94"/>
      <point x="205" y="190"/>
      <point x="222" y="285" type="curve" smooth="yes"/>
      <point x="285" y="616" type="line"/>
      <point x="204" y="616" type="line"/>
      <point x="189" y="521"/>
      <point x="172" y="425"/>
      <point x="155" y="331" type="curve" smooth="yes"/>
    </contour>
    <contour>
      <point x="112" y="579" type="line"/>
      <point x="223" y="565" type="line"/>
      <point x="234" y="565" type="line"/>
      <point x="244" y="616" type="line"/>
      <point x="119" y="616" type="line"/>
    </contour>
    <contour>
      <point x="130" y="0" type="line"/>
      <point x="269" y="0" type="line" smooth="yes"/>
      <point x="417" y="0"/>
      <point x="523" y="65"/>
      <point x="523" y="171" type="curve" smooth="yes"/>
      <point x="523" y="257"/>
      <point x="450" y="331"/>
      <point x="320" y="331" type="curve"/>
      <point x="302" y="313" type="line"/>
      <point x="425" y="313"/>
      <point x="531" y="381"/>
      <point x="531" y="482" type="curve" smooth="yes"/>
      <point x="531" y="557"/>
      <point x="475" y="616"/>
      <point x="354" y="616" type="curve" smooth="yes"/>
      <point x="244" y="616" type="line"/>
      <point x="237" y="574" type="line"/>
      <point x="342" y="574" type="line" smooth="yes"/>
      <point x="417" y="574"/>
      <point x="453" y="529"/>
      <point x="453" y="469" type="curve" smooth="yes"/>
      <point x="453" y="398"/>
      <point x="402" y="343"/>
      <point x="285" y="343" type="curve" smooth="yes"/>
      <point x="193" y="343" type="line"/>
      <point x="185" y="300" type="line"/>
      <point x="294" y="300" type="line" smooth="yes"/>
      <point x="378" y="300"/>
      <point x="439" y="258"/>
      <point x="439" y="183" type="curve" smooth="yes"/>
      <point x="439" y="104"/>
      <point x="391" y="42"/>
      <point x="260" y="42" type="curve" smooth="yes"/>
      <point x="138" y="42" type="line"/>
    </contour>
  </outline>
</glyph>
<glyph name="E" format="2">
  <advance width="540"/>
  <unicode hex="0045"/>
  <anchor x="365" y="635" name="aboveUC"/>
  <anchor x="283" y="-20" name="belowLC"/>
  <anchor x="391" y="0" name="ogonek"/>
  <outline>
    <contour>
      <point x="14" y="0" type="line"/>
      <point x="130" y="0" type="line"/>
      <point x="139" y="50" type="line"/>
      <point x="134" y="50" type="line"/>
      <point x="22" y="36" type="line"/>
    </contour>
    <contour>
      <point x="92" y="0" type="line"/>
      <point x="173" y="0" type="line"/>
      <point x="188" y="94"/>
      <point x="205" y="190"/>
      <point x="222" y="285" type="curve" smooth="yes"/>
      <point x="285" y="616" type="line"/>
      <point x="204" y="616" type="line"/>
      <point x="189" y="521"/>
      <point x="172" y="425"/>
      <point x="155" y="331" type="curve" smooth="yes"/>
    </contour>
    <contour>
      <point x="112" y="579" type="line"/>
      <point x="223" y="565" type="line"/>
      <point x="234" y="565" type="line"/>
      <point x="244" y="616" type="line"/>
      <point x="119" y="616" type="line"/>
    </contour>
    <contour>
      <point x="130" y="0" type="line"/>
      <point x="473" y="0" type="line"/>
      <point x="509" y="163" type="line"/>
      <point x="463" y="163" type="line"/>
      <point x="405" y="0" type="line"/>
      <point x="456" y="46" type="line"/>
      <point x="139" y="46" type="line"/>
    </contour>
    <contour>
      <point x="187" y="293" type="line"/>
      <point x="394" y="293" type="line"/>
      <point x="402" y="335" type="line"/>
      <point x="195" y="335" type="line"/>
    </contour>
    <contour>
      <point x="235" y="570" type="line"/>
      <point x="506" y="570" type="line"/>
      <point x="476" y="616" type="line"/>
      <point x="476" y="452" type="line"/>
      <point x="522" y="452" type="line"/>
      <point x="544" y="616" type="line"/>
      <point x="244" y="616" type="line"/>
    </contour>
    <contour>
      <point x="365" y="206" type="line"/>
      <point x="403" y="206" type="line"/>
      <point x="445" y="424" type="line"/>
      <point x="406" y="424" type="line"/>
      <point x="371" y="326" type="line"/>
      <point x="368" y="308" type="line"/>
    </contour>
  </outline>
</glyph>
<glyph name="F" format="2">
  <advance width="506"/>
  <unicode hex="0046"/>
  <anchor x="361" y="635" name="aboveUC"/>
  <anchor x="135" y="-20" name="belowLC"/>
  <outline>
    <contour>
      <point x="14" y="0" type="line"/>
      <point x="262" y="0" type="line"/>
      <point x="269" y="36" type="line"/>
      <point x="155" y="50" type="line"/>
      <point x="138" y="50" type="line"/>
      <point x="22" y="36" type="line"/>
    </contour>
    <contour>
      <point x="92" y="0" type="line"/>
      <point x="173" y="0" type="line"/>
      <point x="188" y="94"/>
      <point x="205" y="190"/>
      <point x="222" y="285" type="curve" smooth="yes"/>
      <point x="285" y="616" type="line"/>
      <point x="204" y="616" type="line"/>
      <point x="189" y="521"/>
      <point x="172" y="425"/>
      <point x="155" y="331" type="curve" smooth="yes"/>
    </contour>
    <contour>
      <point x="112" y="579" type="line"/>
      <point x="223" y="565" type="line"/>
      <point x="234" y="565" type="line"/>
      <point x="244" y="616" type="line"/>
      <point x="119" y="616" type="line"/>
    </contour>
    <contour>
      <point x="187" y="293" type="line"/>
      <point x="394" y="293" type="line"/>
      <point x="402" y="335" type="line"/>
      <point x="195" y="335" type="line"/>
    </contour>
    <contour>
      <point x="235" y="570" type="line"/>
      <point x="517" y="570" type="line"/>
      <point x="483" y="616" type="line"/>
      <point x="483" y="452" type="line"/>
      <point x="529" y="452" type="line"/>
      <point x="556" y="616" type="line"/>
      <point x="244" y="616" type="line"/>
    </contour>
    <contour>
      <point x="365" y="196" type="line"/>
      <point x="403" y="196" type="line"/>
      <point x="444" y="424" type="line"/>
      <point x="405" y="424" type="line"/>
      <point x="371" y="326" type="line"/>
      <point x="368" y="308" type="line"/>
    </contour>
  </outline>
</glyph>
<glyph name="G" format="2">
  <advance width="602"/>
  <unicode hex="0047"/>
  <anchor x="398" y="635" name="aboveUC"/>
  <anchor x="324" y="-20" name="belowLC"/>
  <outline>
    <contour>
      <point x="53" y="254" type="curve" smooth="yes"/>
      <point x="53" y="95"/>
      <point x="153" y="-13"/>
      <point x="319" y="-13" type="curve" smooth="yes"/>
      <point x="388" y="-13"/>
      <point x="444" y="1"/>
      <point x="501" y="27" type="curve"/>
      <point x="550" y="292" type="line"/>
      <point x="469" y="292" type="line"/>
      <point x="458" y="223"/>
      <point x="447" y="152"/>
      <point x="434" y="82" type="curve" smooth="yes"/>
      <point x="424" y="28" type="line"/>
      <point x="472" y="59" type="line"/>
      <point x="430" y="42"/>
      <point x="388" y="32"/>
      <point x="343" y="32" type="curve" smooth="yes"/>
      <point x="237" y="32"/>
      <point x="136" y="111"/>
      <point x="136" y="260" type="curve" smooth="yes"/>
      <point x="136" y="437"/>
      <point x="242" y="584"/>
      <point x="404" y="584" type="curve" smooth="yes"/>
      <point x="453" y="584"/>
      <point x="508" y="571"/>
      <point x="542" y="544" type="curve"/>
      <point x="505" y="581" type="line"/>
      <point x="505" y="453" type="line"/>
      <point x="556" y="453" type="line"/>
      <point x="577" y="581" type="line"/>
      <point x="518" y="620"/>
      <point x="472" y="630"/>
      <point x="404" y="630" type="curve" smooth="yes"/>
      <point x="217" y="630"/>
      <point x="53" y="471"/>
    </contour>
    <contour>
      <point x="369" y="255" type="line"/>
      <point x="481" y="241" type="line"/>
      <point x="498" y="241" type="line"/>
      <point x="608" y="255" type="line"/>
      <point x="614" y="292" type="line"/>
      <point x="376" y="292" type="line"/>
    </contour>
  </outline>
</glyph>
<glyph name="N" format="2">
  <advance width="669"/>
  <unicode hex="004E"/>
  <anchor x="396" y="635" name="aboveUC"/>
  <anchor x="335" y="-20" name="belowLC"/>
  <outline>
    <contour>
      <point x="9" y="0" type="line"/>
      <point x="222" y="0" type="line"/>
      <point x="228" y="36" type="line"/>
      <point x="125" y="50" type="line"/>
      <point x="107" y="50" type="line"/>
      <point x="16" y="36" type="line"/>
    </contour>
    <contour>
      <point x="82" y="0" type="line"/>
      <point x="126" y="0" type="line"/>
      <point x="243" y="616" type="line"/>
      <point x="199" y="616" type="line"/>
    </contour>
    <contour>
      <point x="514" y="-9" type="line"/>
      <point x="541" y="-9" type="line"/>
      <point x="555" y="76" type="line"/>
      <point x="254" y="616" type="line"/>
      <point x="115" y="616" type="line"/>
      <point x="107" y="579" type="line"/>
      <point x="224" y="565" type="line"/>
      <point x="175" y="587" type="line"/>
    </contour>
    <contour>
      <point x="505" y="579" type="line"/>
      <point x="617" y="565" type="line"/>
      <point x="634" y="565" type="line"/>
      <point x="722" y="579" type="line"/>
      <point x="729" y="616" type="line"/>
      <point x="512" y="616" type="line"/>
    </contour>
    <contour>
      <point x="541" y="-9" type="line"/>
      <point x="657" y="616" type="line"/>
      <point x="612" y="616" type="line"/>
      <point x="510" y="61" type="line"/>
    </contour>
  </outline>
</glyph>
<glyph name="R" format="2">
  <advance width="593"/>
  <unicode hex="0052"/>
  <anchor x="347" y="635" name="aboveUC"/>
  <anchor x="335" y="-20" name="belowLC"/>
  <outline>
    <contour>
      <point x="14" y="0" type="line"/>
      <point x="262" y="0" type="line"/>
      <point x="269" y="36" type="line"/>
      <point x="155" y="50" type="line"/>
      <point x="138" y="50" type="line"/>
      <point x="22" y="36" type="line"/>
    </contour>
    <contour>
      <point x="92" y="0" type="line"/>
      <point x="173" y="0" type="line"/>
      <point x="188" y="94"/>
      <point x="205" y="190"/>
      <point x="222" y="285" type="curve" smooth="yes"/>
      <point x="285" y="616" type="line"/>
      <point x="204" y="616" type="line"/>
      <point x="189" y="521"/>
      <point x="172" y="425"/>
      <point x="155" y="331" type="curve" smooth="yes"/>
    </contour>
    <contour>
      <point x="112" y="579" type="line"/>
      <point x="223" y="565" type="line"/>
      <point x="235" y="565" type="line"/>
      <point x="245" y="616" type="line"/>
      <point x="119" y="616" type="line"/>
    </contour>
    <contour>
      <point x="501" y="-9" type="curve" smooth="yes"/>
      <point x="538" y="-9"/>
      <point x="557" y="-4"/>
      <point x="577" y="0" type="curve"/>
      <point x="585" y="36" type="line"/>
      <point x="425" y="57" type="line"/>
      <point x="494" y="30" type="line"/>
      <point x="439" y="183" type="line" smooth="yes"/>
      <point x="410" y="266"/>
      <point x="382" y="292"/>
      <point x="318" y="303" type="curve"/>
      <point x="327" y="286" type="line"/>
      <point x="479" y="297"/>
      <point x="550" y="371"/>
      <point x="550" y="470" type="curve" smooth="yes"/>
      <point x="550" y="564"/>
      <point x="475" y="616"/>
      <point x="362" y="616" type="curve" smooth="yes"/>
      <point x="246" y="616" type="line"/>
      <point x="238" y="574" type="line"/>
      <point x="355" y="574" type="line" smooth="yes"/>
      <point x="426" y="574"/>
      <point x="467" y="537"/>
      <point x="467" y="471" type="curve" smooth="yes"/>
      <point x="467" y="386"/>
      <point x="419" y="326"/>
      <point x="297" y="326" type="curve" smooth="yes"/>
      <point x="192" y="326" type="line"/>
      <point x="184" y="285" type="line"/>
      <point x="262" y="285" type="line" smooth="yes"/>
      <point x="313" y="285"/>
      <point x="331" y="271"/>
      <point x="356" y="197" type="curve" smooth="yes"/>
      <point x="403" y="54" type="line" smooth="yes"/>
      <point x="419" y="8"/>
      <point x="448" y="-9"/>
    </contour>
  </outline>
</glyph>
<glyph name="U" format="2">
  <advance width="655"/>
  <unicode hex="0055"/>
  <anchor x="417" y="635" name="aboveUC"/>
  <anchor x="309" y="-20" name="belowLC"/>
  <anchor x="614" y="624" name="hornLC"/>
  <anchor x="388" y="0" name="ogonek"/>
  <outline>
    <contour>
      <point x="111" y="164" type="curve" smooth="yes"/>
      <point x="111" y="49"/>
      <point x="177" y="-13"/>
      <point x="301" y="-13" type="curve" smooth="yes"/>
      <point x="436" y="-13"/>
      <point x="532" y="57"/>
      <point x="569" y="252" type="curve" smooth="yes"/>
      <point x="638" y="616" type="line"/>
      <point x="590" y="616" type="line"/>
      <point x="525" y="275" type="line" smooth="yes"/>
      <point x="491" y="99"/>
      <point x="439" y="50"/>
      <point x="310" y="50" type="curve" smooth="yes"/>
      <point x="243" y="50"/>
      <point x="187" y="92"/>
      <point x="187" y="170" type="curve" smooth="yes"/>
      <point x="187" y="213"/>
      <point x="193" y="235"/>
      <point x="197" y="259" type="curve" smooth="yes"/>
      <point x="263" y="616" type="line"/>
      <point x="184" y="616" type="line"/>
      <point x="170" y="521"/>
      <point x="153" y="425"/>
      <point x="136" y="331" type="curve" smooth="yes"/>
      <point x="123" y="263" type="line" smooth="yes"/>
      <point x="116" y="229"/>
      <point x="111" y="195"/>
    </contour>
    <contour>
      <point x="92" y="579" type="line"/>
      <point x="203" y="565" type="line"/>
      <point x="220" y="565" type="line"/>
      <point x="334" y="579" type="line"/>
      <point x="342" y="616" type="line"/>
      <point x="99" y="616" type="line"/>
    </contour>
    <contour>
      <point x="485" y="579" type="line"/>
      <point x="593" y="565" type="line"/>
      <point x="610" y="565" type="line"/>
      <point x="708" y="579" type="line"/>
      <point x="715" y="616" type="line"/>
      <point x="493" y="616" type="line"/>
    </contour>
  </outline>
</glyph>
<glyph name="V" format="2">
  <advance width="556"/>
  <unicode hex="0056"/>
  <anchor x="377" y="635" name="aboveUC"/>
  <anchor x="235" y="-20" name="belowLC"/>
  <outline>
    <contour>
      <point x="57" y="579" type="line"/>
      <point x="168" y="565" type="line"/>
      <point x="185" y="565" type="line"/>
      <point x="299" y="579" type="line"/>
      <point x="307" y="616" type="line"/>
      <point x="64" y="616" type="line"/>
    </contour>
    <contour>
      <point x="222" y="-9" type="line"/>
      <point x="260" y="-9" type="line"/>
      <point x="596" y="616" type="line"/>
      <point x="546" y="616" type="line"/>
      <point x="257" y="75" type="line"/>
      <point x="281" y="75" type="line"/>
      <point x="205" y="616" type="line"/>
      <point x="122" y="616" type="line"/>
    </contour>
    <contour>
      <point x="444" y="579" type="line"/>
      <point x="537" y="565" type="line"/>
      <point x="554" y="565" type="line"/>
      <point x="650" y="579" type="line"/>
      <point x="657" y="616" type="line"/>
      <point x="451" y="616" type="line"/>
    </contour>
  </outline>
</glyph>
<glyph name="W" format="2">
  <advance width="802"/>
  <unicode hex="0057"/>
  <anchor x="478" y="635" name="aboveUC"/>
  <anchor x="376" y="-1" name="belowLC"/>
  <outline>
    <contour>
      <point x="57" y="579" type="line"/>
      <point x="168" y="565" type="line"/>
      <point x="185" y="565" type="line"/>
      <point x="296" y="579" type="line"/>
      <point x="303" y="616" type="line"/>
      <point x="64" y="616" type="line"/>
    </contour>
    <contour>
      <point x="181" y="-9" type="line"/>
      <point x="217" y="-9" type="line"/>
      <point x="483" y="540" type="line"/>
      <point x="451" y="518" type="line"/>
      <point x="520" y="-9" type="line"/>
      <point x="555" y="-9" type="line"/>
      <point x="841" y="616" type="line"/>
      <point x="793" y="616" type="line"/>
      <point x="554" y="88" type="line"/>
      <point x="569" y="97" type="line"/>
      <point x="512" y="616" type="line"/>
      <point x="473" y="616" type="line"/>
      <point x="219" y="88" type="line"/>
      <point x="237" y="97" type="line"/>
      <point x="207" y="616" type="line"/>
      <point x="125" y="616" type="line"/>
    </contour>
    <contour>
      <point x="361" y="579" type="line"/>
      <point x="471" y="565" type="line"/>
      <point x="489" y="565" type="line"/>
      <point x="603" y="579" type="line"/>
      <point x="610" y="616" type="line"/>
      <point x="368" y="616" type="line"/>
    </contour>
    <contour>
      <point x="690" y="579" type="line"/>
      <point x="782" y="565" type="line"/>
      <point x="800" y="565" type="line"/>
      <point x="896" y="579" type="line"/>
      <point x="903" y="616" type="line"/>
      <point x="697" y="616" type="line"/>
    </contour>
  </outline>
</glyph>
<glyph name="bracketleft" format="2">
  <advance width="273"/>
  <unicode hex="005B"/>
  <outline>
    <contour>
      <point x="155" y="617" type="line"/>
      <point x="354" y="617" type="line"/>
      <point x="338" y="565" type="line"/>
      <point x="215" y="565" type="line"/>
      <point x="45" y="-70" type="line"/>
      <point x="163" y="-70" type="line"/>
      <point x="152" y="-122" type="line"/>
      <point x="-43" y="-122" type="line"/>
    </contour>
  </outline>
</glyph>
<glyph name="d" format="2">
  <advance width="481"/>
  <unicode hex="0064"/>
  <anchor x="425" y="679" name="aboveLC"/>
  <anchor x="221" y="-20" name="belowLC"/>
  <outline>
    <contour>
      <point x="126" y="-11" type="curve" smooth="yes"/>
      <point x="191" y="-11"/>
      <point x="279" y="61"/>
      <point x="340" y="157" type="curve"/>
      <point x="332" y="177" type="line"/>
      <point x="253" y="80"/>
      <point x="208" y="50"/>
      <point x="170" y="50" type="curve" smooth="yes"/>
      <point x="137" y="50"/>
      <point x="112" y="77"/>
      <point x="112" y="138" type="curve" smooth="yes"/>
      <point x="112" y="213"/>
      <point x="140" y="283"/>
      <point x="182" y="329" type="curve" smooth="yes"/>
      <point x="214" y="365"/>
      <point x="253" y="387"/>
      <point x="294" y="387" type="curve" smooth="yes"/>
      <point x="318" y="387"/>
      <point x="345" y="376"/>
      <point x="368" y="346" type="curve"/>
      <point x="405" y="393" type="line"/>
      <point x="375" y="432"/>
      <point x="354" y="448"/>
      <point x="321" y="448" type="curve" smooth="yes"/>
      <point x="196" y="448"/>
      <point x="43" y="255"/>
      <point x="43" y="103" type="curve" smooth="yes"/>
      <point x="43" y="20"/>
      <point x="81" y="-11"/>
    </contour>
    <contour>
      <point x="368" y="124" type="curve" smooth="yes"/>
      <point x="479" y="674" type="line"/>
      <point x="468" y="681" type="line"/>
      <point x="311" y="635" type="line"/>
      <point x="308" y="609" type="line"/>
      <point x="415" y="601" type="line"/>
      <point x="405" y="622" type="line"/>
      <point x="364" y="418" type="line"/>
      <point x="355" y="388" type="line"/>
      <point x="297" y="101" type="line" smooth="yes"/>
      <point x="289" y="63"/>
      <point x="288" y="47"/>
      <point x="289" y="34" type="curve" smooth="yes"/>
      <point x="289" y="3"/>
      <point x="312" y="-11"/>
      <point x="340" y="-11" type="curve" smooth="yes"/>
      <point x="402" y="-11"/>
      <point x="459" y="46"/>
      <point x="494" y="100" type="curve"/>
      <point x="472" y="117" type="line"/>
      <point x="441" y="78"/>
      <point x="405" y="50"/>
      <point x="381" y="50" type="curve" smooth="yes"/>
      <point x="370" y="50"/>
      <point x="360" y="57"/>
      <point x="360" y="70" type="curve" smooth="yes"/>
      <point x="360" y="81"/>
      <point x="363" y="101"/>
    </contour>
  </outline>
</glyph>
<glyph name="e" format="2">
  <advance width="372"/>
  <unicode hex="0065"/>
  <anchor x="292" y="465" name="aboveLC"/>
  <anchor x="175" y="-20" name="belowLC"/>
  <anchor x="220" y="0" name="ogonek"/>
  <outline>
    <contour>
      <point x="187" y="-11" type="curve" smooth="yes"/>
      <point x="254" y="-11"/>
      <point x="313" y="38"/>
      <point x="352" y="101" type="curve"/>
      <point x="331" y="117" type="line"/>
      <point x="306" y="86"/>
      <point x="264" y="50"/>
      <point x="207" y="50" type="curve" smooth="yes"/>
      <point x="147" y="50"/>
      <point x="111" y="86"/>
      <point x="111" y="178" type="curve" smooth="yes"/>
      <point x="111" y="300"/>
      <point x="208" y="408"/>
      <point x="268" y="408" type="curve" smooth="yes"/>
      <point x="299" y="408"/>
      <point x="320" y="388"/>
      <point x="320" y="354" type="curve" smooth="yes"/>
      <point x="320" y="301"/>
      <point x="260" y="234"/>
      <point x="88" y="190" type="curve"/>
      <point x="92" y="155" type="line"/>
      <point x="319" y="216"/>
      <point x="379" y="303"/>
      <point x="379" y="363" type="curve" smooth="yes"/>
      <point x="379" y="417"/>
      <point x="347" y="448"/>
      <point x="288" y="448" type="curve" smooth="yes"/>
      <point x="161" y="448"/>
      <point x="49" y="307"/>
      <point x="49" y="159" type="curve" smooth="yes"/>
      <point x="49" y="41"/>
      <point x="107" y="-11"/>
    </contour>
  </outline>
</glyph>
<glyph name="g" format="2">
  <advance width="446"/>
  <unicode hex="0067"/>
  <anchor x="275" y="465" name="aboveLC"/>
  <anchor x="139" y="-223" name="belowLC"/>
  <outline>
    <contour>
      <point x="52" y="76" type="curve" smooth="yes"/>
      <point x="52" y="49"/>
      <point x="68" y="11"/>
      <point x="139" y="2" type="curve" smooth="yes"/>
      <point x="211" y="-5" type="line" smooth="yes"/>
      <point x="307" y="-16"/>
      <point x="329" y="-46"/>
      <point x="329" y="-80" type="curve" smooth="yes"/>
      <point x="329" y="-139"/>
      <point x="264" y="-178"/>
      <point x="166" y="-178" type="curve" smooth="yes"/>
      <point x="92" y="-178"/>
      <point x="47" y="-147"/>
      <point x="47" y="-93" type="curve" smooth="yes"/>
      <point x="47" y="-51"/>
      <point x="78" y="-22"/>
      <point x="139" y="15" type="curve"/>
      <point x="121" y="26" type="line"/>
      <point x="46" y="0"/>
      <point x="-23" y="-60"/>
      <point x="-23" y="-124" type="curve" smooth="yes"/>
      <point x="-23" y="-190"/>
      <point x="41" y="-221"/>
      <point x="126" y="-221" type="curve" smooth="yes"/>
      <point x="278" y="-221"/>
      <point x="391" y="-142"/>
      <point x="391" y="-46" type="curve" smooth="yes"/>
      <point x="391" y="6"/>
      <point x="354" y="40"/>
      <point x="255" y="53" type="curve" smooth="yes"/>
      <point x="166" y="65" type="line" smooth="yes"/>
      <point x="128" y="69"/>
      <point x="117" y="91"/>
      <point x="117" y="106" type="curve" smooth="yes"/>
      <point x="117" y="123"/>
      <point x="121" y="138"/>
      <point x="160" y="177" type="curve"/>
      <point x="149" y="186" type="line"/>
      <point x="89" y="150"/>
      <point x="52" y="116"/>
    </contour>
    <contour>
      <point x="218" y="172" type="curve" smooth="yes"/>
      <point x="171" y="171"/>
      <point x="146" y="205"/>
      <point x="146" y="271" type="curve" smooth="yes"/>
      <point x="146" y="356"/>
      <point x="177" y="416"/>
      <point x="242" y="418" type="curve" smooth="yes"/>
      <point x="281" y="419"/>
      <point x="313" y="383"/>
      <point x="313" y="324" type="curve" smooth="yes"/>
      <point x="313" y="228"/>
      <point x="277" y="172"/>
    </contour>
    <contour>
      <point x="76" y="266" type="curve" smooth="yes"/>
      <point x="76" y="191"/>
      <point x="126" y="142"/>
      <point x="212" y="142" type="curve" smooth="yes"/>
      <point x="284" y="142"/>
      <point x="350" y="195"/>
      <point x="378" y="314" type="curve" smooth="yes"/>
      <point x="385" y="345"/>
      <point x="391" y="368"/>
      <point x="402" y="390" type="curve"/>
      <point x="380" y="365" type="line"/>
      <point x="447" y="384"/>
      <point x="483" y="393"/>
      <point x="483" y="433" type="curve" smooth="yes"/>
      <point x="483" y="440"/>
      <point x="480" y="446"/>
      <point x="475" y="451" type="curve"/>
      <point x="469" y="455"/>
      <point x="460" y="457"/>
      <point x="448" y="457" type="curve" smooth="yes"/>
      <point x="412" y="457"/>
      <point x="375" y="429"/>
      <point x="359" y="344" type="curve"/>
      <point x="366" y="345" type="line"/>
      <point x="359" y="410"/>
      <point x="313" y="448"/>
      <point x="249" y="448" type="curve" smooth="yes"/>
      <point x="154" y="448"/>
      <point x="76" y="367"/>
    </contour>
  </outline>
</glyph>
<glyph name="h" format="2">
  <advance width="499"/>
  <unicode hex="0068"/>
  <anchor x="230" y="679" name="aboveLC"/>
  <anchor x="198" y="-11" name="belowLC"/>
  <outline>
    <contour>
      <point x="67" y="-7" type="line"/>
      <point x="126" y="0" type="line"/>
      <point x="137" y="64"/>
      <point x="149" y="128"/>
      <point x="161" y="193" type="curve" smooth="yes"/>
      <point x="188" y="319" type="line"/>
      <point x="191" y="334" type="line"/>
      <point x="260" y="674" type="line"/>
      <point x="251" y="681" type="line"/>
      <point x="92" y="635" type="line"/>
      <point x="89" y="609" type="line"/>
      <point x="196" y="601" type="line"/>
      <point x="181" y="630" type="line"/>
      <point x="172" y="566"/>
      <point x="160" y="503"/>
      <point x="147" y="439" type="curve" smooth="yes"/>
      <point x="57" y="0" type="line"/>
    </contour>
    <contour>
      <point x="346" y="-11" type="curve" smooth="yes"/>
      <point x="409" y="-11"/>
      <point x="469" y="46"/>
      <point x="505" y="100" type="curve"/>
      <point x="483" y="117" type="line"/>
      <point x="449" y="76"/>
      <point x="414" y="50"/>
      <point x="391" y="50" type="curve" smooth="yes"/>
      <point x="380" y="50"/>
      <point x="373" y="57"/>
      <point x="373" y="69" type="curve" smooth="yes"/>
      <point x="373" y="79"/>
      <point x="379" y="98"/>
      <point x="385" y="124" type="curve" smooth="yes"/>
      <point x="426" y="294" type="line" smooth="yes"/>
      <point x="434" y="324"/>
      <point x="442" y="355"/>
      <point x="442" y="384" type="curve" smooth="yes"/>
      <point x="442" y="426"/>
      <point x="422" y="448"/>
      <point x="383" y="448" type="curve" smooth="yes"/>
      <point x="322" y="448"/>
      <point x="239" y="392"/>
      <point x="177" y="330" type="curve"/>
      <point x="172" y="296" type="line"/>
      <point x="246" y="356"/>
      <point x="302" y="387"/>
      <point x="337" y="387" type="curve" smooth="yes"/>
      <point x="357" y="387"/>
      <point x="369" y="377"/>
      <point x="369" y="344" type="curve" smooth="yes"/>
      <point x="369" y="325"/>
      <point x="362" y="295"/>
      <point x="355" y="264" type="curve" smooth="yes"/>
      <point x="315" y="101" type="line" smooth="yes"/>
      <point x="306" y="63"/>
      <point x="300" y="47"/>
      <point x="300" y="26" type="curve" smooth="yes"/>
      <point x="300" y="3"/>
      <point x="318" y="-11"/>
    </contour>
  </outline>
</glyph>
<glyph name="r" format="2">
  <advance width="366"/>
  <unicode hex="0072"/>
  <anchor x="265" y="465" name="aboveLC"/>
  <anchor x="104" y="-20" name="belowLC"/>
  <outline>
    <contour>
      <point x="184" y="235" type="line"/>
      <point x="224" y="313"/>
      <point x="267" y="373"/>
      <point x="324" y="411" type="curve"/>
      <point x="278" y="414" type="line"/>
      <point x="289" y="403" type="line" smooth="yes"/>
      <point x="310" y="384"/>
      <point x="335" y="369"/>
      <point x="355" y="369" type="curve" smooth="yes"/>
      <point x="385" y="369"/>
      <point x="402" y="391"/>
      <point x="402" y="420" type="curve"/>
      <point x="390" y="440"/>
      <point x="368" y="448"/>
      <point x="342" y="448" type="curve" smooth="yes"/>
      <point x="284" y="448"/>
      <point x="224" y="359"/>
      <point x="184" y="279" type="curve"/>
    </contour>
    <contour>
      <point x="70" y="0" type="line"/>
      <point x="80" y="-7" type="line"/>
      <point x="139" y="0" type="line"/>
      <point x="151" y="65"/>
      <point x="162" y="128"/>
      <point x="176" y="193" type="curve" smooth="yes"/>
      <point x="196" y="283" type="line"/>
      <point x="201" y="302" type="line"/>
      <point x="223" y="438" type="line"/>
      <point x="211" y="448" type="line"/>
      <point x="60" y="401" type="line"/>
      <point x="57" y="374" type="line"/>
      <point x="167" y="368" type="line"/>
      <point x="151" y="380" type="line"/>
    </contour>
  </outline>
</glyph>
<glyph name="t" format="2">
  <advance width="302"/>
  <unicode hex="0074"/>
  <anchor x="230" y="577" name="aboveLC"/>
  <anchor x="130" y="0" name="baseLC"/>
  <anchor x="123" y="-20" name="belowLC"/>
  <outline>
    <contour>
      <point x="59" y="391" type="line"/>
      <point x="187" y="391" type="line"/>
      <point x="338" y="386" type="line"/>
      <point x="345" y="436" type="line"/>
      <point x="191" y="436" type="line"/>
      <point x="191" y="438" type="line"/>
      <point x="66" y="427" type="line"/>
    </contour>
    <contour>
      <point x="92" y="101" type="line" smooth="yes"/>
      <point x="84" y="63"/>
      <point x="83" y="47"/>
      <point x="83" y="34" type="curve" smooth="yes"/>
      <point x="83" y="3"/>
      <point x="107" y="-11"/>
      <point x="133" y="-11" type="curve" smooth="yes"/>
      <point x="195" y="-11"/>
      <point x="251" y="45"/>
      <point x="289" y="100" type="curve"/>
      <point x="267" y="117" type="line"/>
      <point x="230" y="73"/>
      <point x="201" y="50"/>
      <point x="176" y="50" type="curve" smooth="yes"/>
      <point x="165" y="50"/>
      <point x="154" y="57"/>
      <point x="154" y="72" type="curve" smooth="yes"/>
      <point x="154" y="81"/>
      <point x="157" y="101"/>
      <point x="162" y="126" type="curve" smooth="yes"/>
      <point x="254" y="560" type="line"/>
      <point x="208" y="560" type="line"/>
      <point x="160" y="417" type="line"/>
    </contour>
  </outline>
</glyph>
<glyph name="v" format="2">
  <advance width="438"/>
  <unicode hex="0076"/>
  <anchor x="286" y="456" name="aboveLC"/>
  <anchor x="180" y="-20" name="belowLC"/>
  <outline>
    <contour>
      <point x="163" y="-1" type="curve"/>
      <point x="170" y="-6" type="line"/>
      <point x="195" y="-3" type="line"/>
      <point x="289" y="92"/>
      <point x="374" y="203"/>
      <point x="417" y="285" type="curve" smooth="yes"/>
      <point x="461" y="368"/>
      <point x="463" y="391"/>
      <point x="463" y="410" type="curve" smooth="yes"/>
      <point x="463" y="425"/>
      <point x="462" y="430"/>
      <point x="459" y="436" type="curve"/>
      <point x="453" y="442"/>
      <point x="441" y="448"/>
      <point x="424" y="448" type="curve" smooth="yes"/>
      <point x="394" y="448"/>
      <point x="375" y="428"/>
      <point x="375" y="382" type="curve" smooth="yes"/>
      <point x="375" y="373"/>
      <point x="377" y="359"/>
      <point x="379" y="347" type="curve"/>
      <point x="390" y="283" type="line"/>
      <point x="397" y="338" type="line"/>
      <point x="391" y="327"/>
      <point x="387" y="316"/>
      <point x="381" y="305" type="curve" smooth="yes"/>
      <point x="333" y="216"/>
      <point x="285" y="142"/>
      <point x="214" y="60" type="curve"/>
      <point x="224" y="59" type="line"/>
      <point x="224" y="171"/>
      <point x="220" y="288"/>
      <point x="207" y="375" type="curve" smooth="yes"/>
      <point x="198" y="425"/>
      <point x="183" y="448"/>
      <point x="145" y="448" type="curve" smooth="yes"/>
      <point x="102" y="448"/>
      <point x="61" y="410"/>
      <point x="30" y="338" type="curve"/>
      <point x="51" y="323" type="line"/>
      <point x="83" y="372"/>
      <point x="97" y="385"/>
      <point x="114" y="385" type="curve" smooth="yes"/>
      <point x="126" y="385"/>
      <point x="136" y="379"/>
      <point x="140" y="341" type="curve" smooth="yes"/>
      <point x="153" y="244"/>
      <point x="160" y="143"/>
    </contour>
  </outline>
</glyph>
<glyph name="w" format="2">
  <advance width="668"/>
  <unicode hex="0077"/>
  <anchor x="427" y="465" name="aboveLC"/>
  <anchor x="299" y="-20" name="belowLC"/>
  <outline>
    <contour>
      <point x="161" y="-1" type="curve"/>
      <point x="167" y="-6" type="line"/>
      <point x="193" y="-3" type="line"/>
      <point x="288" y="103"/>
      <point x="378" y="274"/>
      <point x="420" y="358" type="curve"/>
      <point x="383" y="322" type="line"/>
      <point x="384" y="310"/>
      <point x="397" y="40"/>
      <point x="399" y="-1" type="curve"/>
      <point x="405" y="-6" type="line"/>
      <point x="431" y="-3" type="line"/>
      <point x="526" y="94"/>
      <point x="603" y="201"/>
      <point x="646" y="285" type="curve" smooth="yes"/>
      <point x="689" y="365"/>
      <point x="693" y="390"/>
      <point x="693" y="408" type="curve" smooth="yes"/>
      <point x="693" y="423"/>
      <point x="691" y="430"/>
      <point x="689" y="436" type="curve"/>
      <point x="683" y="442"/>
      <point x="673" y="447"/>
      <point x="658" y="448" type="curve" smooth="yes"/>
      <point x="630" y="448"/>
      <point x="604" y="428"/>
      <point x="604" y="382" type="curve" smooth="yes"/>
      <point x="604" y="374"/>
      <point x="605" y="356"/>
      <point x="608" y="345" type="curve" smooth="yes"/>
      <point x="622" y="280" type="line"/>
      <point x="625" y="335" type="line"/>
      <point x="620" y="324"/>
      <point x="616" y="316"/>
      <point x="609" y="304" type="curve" smooth="yes"/>
      <point x="561" y="215"/>
      <point x="517" y="150"/>
      <point x="449" y="67" type="curve"/>
      <point x="460" y="62" type="line"/>
      <point x="460" y="77"/>
      <point x="447" y="417"/>
      <point x="446" y="437" type="curve"/>
      <point x="410" y="437" type="line"/>
      <point x="348" y="291"/>
      <point x="279" y="169"/>
      <point x="206" y="66" type="curve"/>
      <point x="220" y="62" type="line"/>
      <point x="221" y="171"/>
      <point x="218" y="304"/>
      <point x="204" y="386" type="curve" smooth="yes"/>
      <point x="196" y="430"/>
      <point x="181" y="448"/>
      <point x="142" y="448" type="curve" smooth="yes"/>
      <point x="101" y="448"/>
      <point x="61" y="410"/>
      <point x="30" y="338" type="curve"/>
      <point x="51" y="323" type="line"/>
      <point x="80" y="368"/>
      <point x="96" y="385"/>
      <point x="114" y="385" type="curve" smooth="yes"/>
      <point x="127" y="385"/>
      <point x="136" y="380"/>
      <point x="140" y="344" type="curve" smooth="yes"/>
      <point x="152" y="252"/>
      <point x="160" y="147"/>
    </contour>
  </outline>
</glyph>
<glyph name="x" format="2">
  <advance width="475"/>
  <unicode hex="0078"/>
  <anchor x="309" y="465" name="aboveLC"/>
  <anchor x="206" y="-20" name="belowLC"/>
  <outline>
    <contour>
      <point x="-4" y="53" type="curve"/>
      <point x="0" y="9"/>
      <point x="33" y="-11"/>
      <point x="69" y="-11" type="curve" smooth="yes"/>
      <point x="94" y="-11"/>
      <point x="114" y="-4"/>
      <point x="134" y="19" type="curve" smooth="yes"/>
      <point x="173" y="65"/>
      <point x="215" y="128"/>
      <point x="264" y="209" type="curve"/>
      <point x="251" y="240" type="line"/>
      <point x="203" y="169"/>
      <point x="161" y="109"/>
      <point x="108" y="51" type="curve" smooth="yes"/>
      <point x="98" y="40"/>
      <point x="89" y="32"/>
      <point x="77" y="23" type="curve"/>
      <point x="104" y="10" type="line"/>
      <point x="80" y="53" type="line" smooth="yes"/>
      <point x="64" y="80"/>
      <point x="53" y="85"/>
      <point x="34" y="85" type="curve" smooth="yes"/>
      <point x="19" y="85"/>
      <point x="0" y="74"/>
    </contour>
    <contour>
      <point x="273" y="54" type="line" smooth="yes"/>
      <point x="288" y="0"/>
      <point x="308" y="-11"/>
      <point x="335" y="-11" type="curve" smooth="yes"/>
      <point x="384" y="-11"/>
      <point x="438" y="34"/>
      <point x="483" y="100" type="curve"/>
      <point x="460" y="117" type="line"/>
      <point x="426" y="76"/>
      <point x="394" y="50"/>
      <point x="370" y="50" type="curve" smooth="yes"/>
      <point x="345" y="50"/>
      <point x="332" y="61"/>
      <point x="318" y="112" type="curve" smooth="yes"/>
      <point x="246" y="368" type="line" smooth="yes"/>
      <point x="230" y="427"/>
      <point x="211" y="448"/>
      <point x="176" y="448" type="curve" smooth="yes"/>
      <point x="138" y="448"/>
      <point x="95" y="414"/>
      <point x="62" y="339" type="curve"/>
      <point x="83" y="323" type="line"/>
      <point x="115" y="378"/>
      <point x="139" y="387"/>
      <point x="152" y="387" type="curve" smooth="yes"/>
      <point x="172" y="387"/>
      <point x="178" y="375"/>
      <point x="189" y="336" type="curve" smooth="yes"/>
    </contour>
    <contour>
      <point x="268" y="202" type="line"/>
      <point x="310" y="264"/>
      <point x="355" y="323"/>
      <point x="405" y="379" type="curve" smooth="yes"/>
      <point x="416" y="392"/>
      <point x="428" y="403"/>
      <point x="440" y="413" type="curve"/>
      <point x="402" y="418" type="line"/>
      <point x="424" y="386" type="line" smooth="yes"/>
      <point x="441" y="360"/>
      <point x="456" y="356"/>
      <point x="474" y="356" type="curve" smooth="yes"/>
      <point x="494" y="356"/>
      <point x="511" y="373"/>
      <point x="511" y="399" type="curve"/>
      <point x="504" y="432"/>
      <point x="473" y="448"/>
      <point x="450" y="448" type="curve" smooth="yes"/>
      <point x="421" y="448"/>
      <point x="402" y="437"/>
      <point x="375" y="406" type="curve" smooth="yes"/>
      <point x="348" y="373"/>
      <point x="302" y="311"/>
      <point x="254" y="231" type="curve"/>
    </contour>
  </outline>
</glyph>
<glyph name="y" format="2">
  <advance width="436"/>
  <unicode hex="0079"/>
  <anchor x="292" y="456" name="aboveLC"/>
  <anchor x="3" y="-231" name="belowLC"/>
  <outline>
    <contour>
      <point x="-76" y="-168" type="curve"/>
      <point x="-73" y="-198"/>
      <point x="-51" y="-220"/>
      <point x="-11" y="-220" type="curve" smooth="yes"/>
      <point x="42" y="-220"/>
      <point x="95" y="-181"/>
      <point x="156" y="-115" type="curve" smooth="yes"/>
      <point x="194" y="-74"/>
      <point x="218" y="-35"/>
      <point x="242" y="0" type="curve" smooth="yes"/>
      <point x="293" y="76"/>
      <point x="332" y="147"/>
      <point x="366" y="208" type="curve" smooth="yes"/>
      <point x="401" y="271"/>
      <point x="420" y="309"/>
      <point x="439" y="348" type="curve" smooth="yes"/>
      <point x="458" y="385"/>
      <point x="462" y="399"/>
      <point x="462" y="422" type="curve" smooth="yes"/>
      <point x="462" y="440"/>
      <point x="449" y="453"/>
      <point x="428" y="453" type="curve" smooth="yes"/>
      <point x="403" y="453"/>
      <point x="390" y="434"/>
      <point x="359" y="328" type="curve" smooth="yes"/>
      <point x="328" y="219"/>
      <point x="294" y="150"/>
      <point x="225" y="24" type="curve"/>
      <point x="198" y="-19"/>
      <point x="168" y="-58"/>
      <point x="133" y="-93" type="curve" smooth="yes"/>
      <point x="94" y="-133"/>
      <point x="50" y="-163"/>
      <point x="3" y="-186" type="curve"/>
      <point x="74" y="-176" type="line"/>
      <point x="47" y="-158" type="line" smooth="yes"/>
      <point x="21" y="-139"/>
      <point x="0" y="-126"/>
      <point x="-26" y="-126" type="curve" smooth="yes"/>
      <point x="-52" y="-126"/>
      <point x="-71" y="-141"/>
    </contour>
    <contour>
      <point x="233" y="19" type="line"/>
      <point x="230" y="110"/>
      <point x="223" y="209"/>
      <point x="211" y="324" type="curve" smooth="yes"/>
      <point x="200" y="428"/>
      <point x="181" y="448"/>
      <point x="146" y="448" type="curve" smooth="yes"/>
      <point x="107" y="448"/>
      <point x="66" y="416"/>
      <point x="30" y="338" type="curve"/>
      <point x="51" y="323" type="line"/>
      <point x="84" y="374"/>
      <point x="97" y="385"/>
      <point x="113" y="385" type="curve" smooth="yes"/>
      <point x="130" y="385"/>
      <point x="135" y="371"/>
      <point x="149" y="253" type="curve" smooth="yes"/>
      <point x="165" y="129"/>
      <point x="175" y="68"/>
      <point x="183" y="-40" type="curve"/>
    </contour>
  </outline>
</glyph>
<glyph name="braceleft" format="2">
  <advance width="349"/>
  <unicode hex="007B"/>
  <outline>
    <contour>
      <point x="62" y="237" type="line"/>
      <point x="126" y="229"/>
      <point x="154" y="206"/>
      <point x="154" y="169" type="curve" smooth="yes"/>
      <point x="154" y="109"/>
      <point x="93" y="18"/>
      <point x="93" y="-62" type="curve" smooth="yes"/>
      <point x="93" y="-117"/>
      <point x="134" y="-146"/>
      <point x="208" y="-146" type="curve" smooth="yes"/>
      <point x="256" y="-146" type="line"/>
      <point x="264" y="-110" type="line"/>
      <point x="233" y="-107" type="line" smooth="yes"/>
      <point x="180" y="-103"/>
      <point x="156" y="-90"/>
      <point x="156" y="-55" type="curve" smooth="yes"/>
      <point x="156" y="0"/>
      <point x="199" y="126"/>
      <point x="199" y="177" type="curve" smooth="yes"/>
      <point x="199" y="227"/>
      <point x="169" y="258"/>
      <point x="98" y="260" type="curve"/>
      <point x="96" y="251" type="line"/>
      <point x="180" y="253"/>
      <point x="241" y="300"/>
      <point x="241" y="378" type="curve" smooth="yes"/>
      <point x="241" y="406"/>
      <point x="239" y="466"/>
      <point x="239" y="503" type="curve" smooth="yes"/>
      <point x="239" y="586"/>
      <point x="261" y="616"/>
      <point x="362" y="621" type="curve" smooth="yes"/>
      <point x="383" y="621" type="line"/>
      <point x="390" y="657" type="line"/>
      <point x="354" y="657" type="line" smooth="yes"/>
      <point x="228" y="657"/>
      <point x="177" y="606"/>
      <point x="177" y="507" type="curve" smooth="yes"/>
      <point x="177" y="462"/>
      <point x="191" y="416"/>
      <point x="191" y="386" type="curve" smooth="yes"/>
      <point x="191" y="323"/>
      <point x="158" y="285"/>
      <point x="69" y="274" type="curve"/>
    </contour>
  </outline>
</glyph>
<glyph name="asciitilde" format="2">
  <advance width="487"/>
  <unicode hex="007E"/>
  <outline>
    <contour>
      <point x="275" y="335" type="curve" smooth="yes"/>
      <point x="241" y="366"/>
      <point x="211" y="382"/>
      <point x="175" y="382" type="curve" smooth="yes"/>
      <point x="111" y="382"/>
      <point x="78" y="340"/>
      <point x="72" y="263" type="curve"/>
      <point x="115" y="255" type="line"/>
      <point x="122" y="316"/>
      <point x="146" y="334"/>
      <point x="170" y="334" type="curve" smooth="yes"/>
      <point x="194" y="334"/>
      <point x="215" y="324"/>
      <point x="242" y="299" type="curve" smooth="yes"/>
      <point x="276" y="268"/>
      <point x="306" y="252"/>
      <point x="342" y="252" type="curve" smooth="yes"/>
      <point x="406" y="252"/>
      <point x="439" y="294"/>
      <point x="445" y="371" type="curve"/>
      <point x="402" y="379" type="line"/>
      <point x="395" y="318"/>
      <point x="371" y="299"/>
      <point x="347" y="299" type="curve" smooth="yes"/>
      <point x="323" y="299"/>
      <point x="302" y="310"/>
    </contour>
  </outline>
</glyph>
<glyph name="exclamdown" format="2">
  <advance width="266"/>
  <unicode hex="00A1"/>
  <outline>
    <contour>
      <point x="169" y="256" type="line"/>
      <point x="138" y="256" type="line"/>
      <point x="51" y="-33"/>
      <point x="25" y="-106"/>
      <point x="25" y="-149" type="curve" smooth="yes"/>
      <point x="25" y="-177"/>
      <point x="38" y="-191"/>
      <point x="66" y="-191" type="curve" smooth="yes"/>
      <point x="92" y="-191"/>
      <point x="113" y="-177"/>
      <point x="124" y="-121" type="curve" smooth="yes"/>
      <point x="128" y="-95"/>
      <point x="138" y="-12"/>
      <point x="151" y="111" type="curve" smooth="yes"/>
    </contour>
    <contour>
      <point x="238" y="395" type="curve" smooth="yes"/>
      <point x="238" y="426"/>
      <point x="215" y="448"/>
      <point x="186" y="448" type="curve" smooth="yes"/>
      <point x="152" y="448"/>
      <point x="122" y="420"/>
      <point x="122" y="386" type="curve" smooth="yes"/>
      <point x="122" y="356"/>
      <point x="142" y="332"/>
      <point x="173" y="332" type="curve" smooth="yes"/>
      <point x="207" y="332"/>
      <point x="238" y="360"/>
    </contour>
  </outline>
</glyph>
<glyph name="cent" format="2">
  <advance width="469"/>
  <unicode hex="00A2"/>
  <outline>
    <contour>
      <point x="78" y="224" type="curve" smooth="yes"/>
      <point x="78" y="109"/>
      <point x="135" y="52"/>
      <point x="215" y="52" type="curve" smooth="yes"/>
      <point x="277" y="52"/>
      <point x="344" y="101"/>
      <point x="380" y="165" type="curve"/>
      <point x="359" y="182" type="line"/>
      <point x="334" y="150"/>
      <point x="297" y="115"/>
      <point x="240" y="115" type="curve" smooth="yes"/>
      <point x="186" y="115"/>
      <point x="145" y="153"/>
      <point x="145" y="233" type="curve" smooth="yes"/>
      <point x="145" y="359"/>
      <point x="219" y="471"/>
      <point x="295" y="471" type="curve" smooth="yes"/>
      <point x="333" y="471"/>
      <point x="358" y="460"/>
      <point x="391" y="444" type="curve"/>
      <point x="353" y="474" type="line"/>
      <point x="358" y="404" type="line" smooth="yes"/>
      <point x="361" y="367"/>
      <point x="374" y="348"/>
      <point x="402" y="348" type="curve" smooth="yes"/>
      <point x="419" y="348"/>
      <point x="437" y="360"/>
      <point x="437" y="393" type="curve" smooth="yes"/>
      <point x="437" y="470"/>
      <point x="375" y="512"/>
      <point x="304" y="512" type="curve" smooth="yes"/>
      <point x="195" y="512"/>
      <point x="78" y="379"/>
    </contour>
    <contour>
      <point x="214" y="-41" type="line"/>
      <point x="346" y="607" type="line"/>
      <point x="313" y="607" type="line"/>
      <point x="181" y="-41" type="line"/>
    </contour>
  </outline>
</glyph>
<glyph name="yen" format="2">
  <advance width="469"/>
  <unicode hex="00A5"/>
  <outline>
    <contour>
      <point x="37" y="131" type="line"/>
      <point x="402" y="131" type="line"/>
      <point x="412" y="177" type="line"/>
      <point x="46" y="177" type="line"/>
    </contour>
    <contour>
      <point x="61" y="248" type="line"/>
      <point x="426" y="248" type="line"/>
      <point x="436" y="294" type="line"/>
      <point x="70" y="294" type="line"/>
    </contour>
    <contour>
      <point x="192" y="48" type="line"/>
      <point x="68" y="35" type="line"/>
      <point x="60" y="0" type="line"/>
      <point x="321" y="0" type="line"/>
      <point x="328" y="35" type="line"/>
      <point x="209" y="48" type="line"/>
    </contour>
    <contour>
      <point x="161" y="546" type="line"/>
      <point x="169" y="546" type="line"/>
      <point x="276" y="560" type="line"/>
      <point x="283" y="595" type="line"/>
      <point x="67" y="595" type="line"/>
      <point x="59" y="560" type="line"/>
    </contour>
    <contour>
      <point x="448" y="546" type="line"/>
      <point x="451" y="546" type="line"/>
      <point x="532" y="560" type="line"/>
      <point x="540" y="595" type="line"/>
      <point x="367" y="595" type="line"/>
      <point x="359" y="560" type="line"/>
    </contour>
    <contour>
      <point x="159" y="0" type="line"/>
      <point x="230" y="0" type="line"/>
      <point x="241" y="65"/>
      <point x="251" y="117"/>
      <point x="285" y="286" type="curve"/>
      <point x="217" y="286" type="line"/>
    </contour>
    <contour>
      <point x="258" y="219" type="line"/>
      <point x="496" y="595" type="line"/>
      <point x="448" y="595" type="line"/>
      <point x="263" y="296" type="line"/>
      <point x="268" y="296" type="line"/>
      <point x="188" y="595" type="line"/>
      <point x="113" y="595" type="line"/>
      <point x="224" y="219" type="line"/>
    </contour>
  </outline>
</glyph>
<glyph name="section" format="2">
  <advance width="426"/>
  <unicode hex="00A7"/>
  <outline>
    <contour>
      <point x="162" y="-101" type="curve" smooth="yes"/>
      <point x="253" y="-101"/>
      <point x="316" y="-46"/>
      <point x="316" y="27" type="curve" smooth="yes"/>
      <point x="316" y="80"/>
      <point x="298" y="104"/>
      <point x="241" y="147" type="curve" smooth="yes"/>
      <point x="195" y="181" type="line" smooth="yes"/>
      <point x="145" y="218"/>
      <point x="127" y="239"/>
      <point x="127" y="276" type="curve" smooth="yes"/>
      <point x="127" y="329"/>
      <point x="161" y="377"/>
      <point x="268" y="381" type="curve"/>
      <point x="268" y="408" type="line"/>
      <point x="134" y="408"/>
      <point x="70" y="338"/>
      <point x="70" y="263" type="curve" smooth="yes"/>
      <point x="70" y="203"/>
      <point x="103" y="171"/>
      <point x="150" y="136" type="curve" smooth="yes"/>
      <point x="195" y="103" type="line" smooth="yes"/>
      <point x="245" y="67"/>
      <point x="254" y="45"/>
      <point x="254" y="15" type="curve" smooth="yes"/>
      <point x="254" y="-34"/>
      <point x="214" y="-69"/>
      <point x="149" y="-69" type="curve" smooth="yes"/>
      <point x="133" y="-69"/>
      <point x="126" y="-67"/>
      <point x="106" y="-60" type="curve"/>
      <point x="139" y="-92" type="line"/>
      <point x="125" y="-29" type="line" smooth="yes"/>
      <point x="119" y="-4"/>
      <point x="107" y="10"/>
      <point x="81" y="10" type="curve" smooth="yes"/>
      <point x="67" y="10"/>
      <point x="53" y="0"/>
      <point x="48" y="-14" type="curve"/>
      <point x="55" y="-68"/>
      <point x="94" y="-101"/>
    </contour>
    <contour>
      <point x="313" y="631" type="curve" smooth="yes"/>
      <point x="229" y="631"/>
      <point x="174" y="574"/>
      <point x="174" y="503" type="curve" smooth="yes"/>
      <point x="174" y="448"/>
      <point x="210" y="418"/>
      <point x="246" y="391" type="curve" smooth="yes"/>
      <point x="303" y="347" type="line" smooth="yes"/>
      <point x="350" y="312"/>
      <point x="358" y="290"/>
      <point x="358" y="256" type="curve" smooth="yes"/>
      <point x="358" y="205"/>
      <point x="313" y="164"/>
      <point x="211" y="160" type="curve"/>
      <point x="211" y="133" type="line"/>
      <point x="347" y="133"/>
      <point x="417" y="194"/>
      <point x="417" y="274" type="curve" smooth="yes"/>
      <point x="417" y="328"/>
      <point x="396" y="356"/>
      <point x="349" y="391" type="curve" smooth="yes"/>
      <point x="305" y="424" type="line" smooth="yes"/>
      <point x="253" y="462"/>
      <point x="234" y="478"/>
      <point x="234" y="518" type="curve" smooth="yes"/>
      <point x="234" y="561"/>
      <point x="262" y="598"/>
      <point x="326" y="598" type="curve" smooth="yes"/>
      <point x="341" y="598"/>
      <point x="350" y="597"/>
      <point x="359" y="594" type="curve"/>
      <point x="332" y="619" type="line"/>
      <point x="348" y="567" type="line" smooth="yes"/>
      <point x="357" y="540"/>
      <point x="373" y="525"/>
      <point x="394" y="525" type="curve" smooth="yes"/>
      <point x="411" y="525"/>
      <point x="424" y="532"/>
      <point x="429" y="550" type="curve"/>
      <point x="415" y="609"/>
      <point x="374" y="631"/>
    </contour>
  </outline>
</glyph>
<glyph name="dieresis" format="2">
  <advance width="368"/>
  <unicode hex="00A8"/>
  <anchor x="246" y="465" name="_aboveLC"/>
  <anchor x="284" y="644" name="aboveLC"/>
  <outline>
    <contour>
      <point x="181" y="575" type="curve" smooth="yes"/>
      <point x="208" y="575"/>
      <point x="231" y="597"/>
      <point x="231" y="628" type="curve" smooth="yes"/>
      <point x="231" y="651"/>
      <point x="214" y="668"/>
      <point x="190" y="668" type="curve" smooth="yes"/>
      <point x="164" y="668"/>
      <point x="139" y="647"/>
      <point x="139" y="616" type="curve" smooth="yes"/>
      <point x="139" y="590"/>
      <point x="159" y="575"/>
    </contour>
    <contour>
      <point x="358" y="575" type="curve" smooth="yes"/>
      <point x="386" y="575"/>
      <point x="409" y="597"/>
      <point x="409" y="628" type="curve" smooth="yes"/>
      <point x="409" y="651"/>
      <point x="391" y="668"/>
      <point x="368" y="668" type="curve" smooth="yes"/>
      <point x="343" y="668"/>
      <point x="318" y="647"/>
      <point x="318" y="616" type="curve" smooth="yes"/>
      <point x="318" y="590"/>
      <point x="337" y="575"/>
    </contour>
  </outline>
</glyph>
<glyph name="guillemotleft" format="2">
  <advance width="506"/>
  <unicode hex="00AB"/>
  <outline>
    <contour>
      <point x="230" y="46" type="line"/>
      <point x="255" y="71" type="line"/>
      <point x="122" y="250" type="line"/>
      <point x="115" y="214" type="line"/>
      <point x="303" y="390" type="line"/>
      <point x="283" y="417" type="line"/>
      <point x="76" y="256" type="line"/>
      <point x="68" y="207" type="line"/>
    </contour>
    <contour>
      <point x="415" y="46" type="line"/>
      <point x="441" y="71" type="line"/>
      <point x="308" y="250" type="line"/>
      <point x="301" y="214" type="line"/>
      <point x="489" y="390" type="line"/>
      <point x="469" y="417" type="line"/>
      <point x="262" y="256" type="line"/>
      <point x="253" y="207" type="line"/>
    </contour>
  </outline>
</glyph>
<glyph name="acute" format="2">
  <advance width="368"/>
  <unicode hex="00B4"/>
  <anchor x="208" y="465" name="_aboveLC"/>
  <anchor x="258" y="698" name="aboveLC"/>
  <outline>
    <contour>
      <point x="202" y="505" type="curve"/>
      <point x="223" y="491" type="line"/>
      <point x="260" y="535"/>
      <point x="296" y="578"/>
      <point x="333" y="622" type="curve" smooth="yes"/>
      <point x="347" y="640"/>
      <point x="352" y="653"/>
      <point x="352" y="667" type="curve" smooth="yes"/>
      <point x="352" y="688"/>
      <point x="336" y="698"/>
      <point x="317" y="698" type="curve" smooth="yes"/>
      <point x="297" y="698"/>
      <point x="282" y="683"/>
      <point x="271" y="659" type="curve" smooth="yes"/>
      <point x="248" y="608"/>
      <point x="225" y="556"/>
    </contour>
  </outline>
</glyph>
<glyph name="mu" format="2">
  <advance width="485"/>
  <unicode hex="00B5"/>
  <outline>
    <contour>
      <point x="11" y="-172" type="line"/>
      <point x="83" y="-159" type="line"/>
      <point x="113" y="77" type="line"/>
      <point x="130" y="94" type="line"/>
      <point x="146" y="171"/>
      <point x="164" y="247"/>
      <point x="212" y="438" type="curve"/>
      <point x="205" y="448" type="line"/>
      <point x="130" y="431" type="line"/>
      <point x="75" y="92" type="line"/>
      <point x="2" y="-165" type="line"/>
    </contour>
    <contour>
      <point x="184" y="-11" type="curve" smooth="yes"/>
      <point x="232" y="-11"/>
      <point x="299" y="34"/>
      <point x="345" y="126" type="curve"/>
      <point x="342" y="149" type="line"/>
      <point x="299" y="86"/>
      <point x="248" y="57"/>
      <point x="202" y="57" type="curve" smooth="yes"/>
      <point x="166" y="57"/>
      <point x="136" y="78"/>
      <point x="125" y="131" type="curve"/>
      <point x="98" y="87" type="line"/>
      <point x="106" y="24"/>
      <point x="138" y="-11"/>
    </contour>
    <contour>
      <point x="382" y="-11" type="curve" smooth="yes"/>
      <point x="414" y="-11"/>
      <point x="448" y="12"/>
      <point x="482" y="56" type="curve"/>
      <point x="467" y="76" type="line"/>
      <point x="448" y="60"/>
      <point x="430" y="49"/>
      <point x="414" y="49" type="curve" smooth="yes"/>
      <point x="395" y="49"/>
      <point x="387" y="59"/>
      <point x="387" y="85" type="curve" smooth="yes"/>
      <point x="387" y="122"/>
      <point x="402" y="190"/>
      <point x="439" y="326" type="curve" smooth="yes"/>
      <point x="471" y="438" type="line"/>
      <point x="463" y="448" type="line"/>
      <point x="389" y="431" type="line"/>
      <point x="349" y="222" type="line" smooth="yes"/>
      <point x="326" y="103"/>
      <point x="322" y="78"/>
      <point x="322" y="58" type="curve" smooth="yes"/>
      <point x="322" y="13"/>
      <point x="345" y="-11"/>
    </contour>
  </outline>
</glyph>
<glyph name="cedilla" format="2">
  <advance width="368"/>
  <unicode hex="00B8"/>
  <anchor x="136" y="0" name="_baseLC"/>
  <outline>
    <contour>
      <point x="87" y="-80" type="line"/>
      <point x="130" y="-91"/>
      <point x="155" y="-105"/>
      <point x="155" y="-139" type="curve" smooth="yes"/>
      <point x="155" y="-167"/>
      <point x="134" y="-183"/>
      <point x="102" y="-183" type="curve" smooth="yes"/>
      <point x="79" y="-183"/>
      <point x="61" y="-177"/>
      <point x="41" y="-168" type="curve"/>
      <point x="31" y="-191" type="line"/>
      <point x="50" y="-203"/>
      <point x="81" y="-212"/>
      <point x="113" y="-212" type="curve" smooth="yes"/>
      <point x="172" y="-212"/>
      <point x="207" y="-181"/>
      <point x="207" y="-144" type="curve" smooth="yes"/>
      <point x="207" y="-101"/>
      <point x="176" y="-81"/>
      <point x="114" y="-59" type="curve"/>
      <point x="115" y="-79" type="line"/>
      <point x="152" y="0" type="line"/>
      <point x="126" y="0" type="line"/>
    </contour>
  </outline>
</glyph>
<glyph name="onehalf" format="2">
  <advance width="800"/>
  <unicode hex="00BD"/>
  <outline>
    <contour>
      <point x="211" y="-13" type="line"/>
      <point x="668" y="589" type="line"/>
      <point x="638" y="612" type="line"/>
      <point x="181" y="9" type="line"/>
    </contour>
    <contour>
      <point x="283" y="233" type="line"/>
      <point x="287" y="257" type="line"/>
      <point x="199" y="267" type="line"/>
      <point x="161" y="267" type="line"/>
      <point x="73" y="257" type="line"/>
      <point x="68" y="233" type="line"/>
    </contour>
    <contour>
      <point x="202" y="233" type="line"/>
      <point x="262" y="519" type="line"/>
      <point x="281" y="601" type="line"/>
      <point x="275" y="607" type="line"/>
      <point x="139" y="575" type="line"/>
      <point x="134" y="551" type="line"/>
      <point x="223" y="556" type="line"/>
      <point x="209" y="572" type="line"/>
      <point x="141" y="233" type="line"/>
    </contour>
    <contour>
      <point x="492" y="0" type="line"/>
      <point x="723" y="0" type="line"/>
      <point x="735" y="57" type="line"/>
      <point x="541" y="57" type="line"/>
      <point x="545" y="50" type="line"/>
      <point x="714" y="192"/>
      <point x="767" y="227"/>
      <point x="767" y="287" type="curve" smooth="yes"/>
      <point x="767" y="336"/>
      <point x="736" y="373"/>
      <point x="667" y="373" type="curve" smooth="yes"/>
      <point x="599" y="373"/>
      <point x="552" y="347"/>
      <point x="536" y="276" type="curve"/>
      <point x="538" y="258"/>
      <point x="549" y="247"/>
      <point x="564" y="247" type="curve" smooth="yes"/>
      <point x="585" y="247"/>
      <point x="597" y="258"/>
      <point x="599" y="297" type="curve" smooth="yes"/>
      <point x="604" y="354" type="line"/>
      <point x="577" y="317" type="line"/>
      <point x="596" y="336"/>
      <point x="619" y="344"/>
      <point x="643" y="344" type="curve" smooth="yes"/>
      <point x="680" y="344"/>
      <point x="701" y="323"/>
      <point x="701" y="283" type="curve" smooth="yes"/>
      <point x="701" y="239"/>
      <point x="673" y="199"/>
      <point x="500" y="43" type="curve"/>
    </contour>
  </outline>
</glyph>
<glyph name="questiondown" format="2">
  <advance width="408"/>
  <unicode hex="00BF"/>
  <outline>
    <contour>
      <point x="363" y="396" type="curve" smooth="yes"/>
      <point x="363" y="427"/>
      <point x="340" y="449"/>
      <point x="308" y="449" type="curve" smooth="yes"/>
      <point x="277" y="449"/>
      <point x="247" y="421"/>
      <point x="247" y="387" type="curve" smooth="yes"/>
      <point x="247" y="357"/>
      <point x="267" y="333"/>
      <point x="300" y="333" type="curve" smooth="yes"/>
      <point x="333" y="333"/>
      <point x="363" y="361"/>
    </contour>
    <contour>
      <point x="310" y="268" type="curve"/>
      <point x="278" y="273" type="line"/>
      <point x="268" y="203"/>
      <point x="260" y="179"/>
      <point x="240" y="158" type="curve" smooth="yes"/>
      <point x="229" y="147"/>
      <point x="210" y="132"/>
      <point x="130" y="82" type="curve" smooth="yes"/>
      <point x="32" y="21"/>
      <point x="0" y="-14"/>
      <point x="0" y="-80" type="curve" smooth="yes"/>
      <point x="0" y="-155"/>
      <point x="57" y="-192"/>
      <point x="140" y="-192" type="curve" smooth="yes"/>
      <point x="241" y="-192"/>
      <point x="292" y="-136"/>
      <point x="306" y="-80" type="curve"/>
      <point x="305" y="-60"/>
      <point x="291" y="-45"/>
      <point x="272" y="-45" type="curve" smooth="yes"/>
      <point x="247" y="-45"/>
      <point x="236" y="-57"/>
      <point x="225" y="-82" type="curve" smooth="yes"/>
      <point x="192" y="-162" type="line"/>
      <point x="237" y="-140" type="line"/>
      <point x="217" y="-147"/>
      <point x="191" y="-155"/>
      <point x="148" y="-155" type="curve" smooth="yes"/>
      <point x="94" y="-155"/>
      <point x="63" y="-130"/>
      <point x="63" y="-86" type="curve" smooth="yes"/>
      <point x="63" y="-47"/>
      <point x="86" y="-9"/>
      <point x="156" y="33" type="curve" smooth="yes"/>
      <point x="242" y="85"/>
      <point x="256" y="102"/>
      <point x="274" y="119" type="curve" smooth="yes"/>
      <point x="298" y="145"/>
      <point x="306" y="181"/>
    </contour>
  </outline>
</glyph>
<glyph name="Aacute" format="2">
  <advance width="621"/>
  <unicode hex="00C1"/>
  <anchor x="456" y="797" name="aboveUC"/>
  <anchor x="259" y="-20" name="belowLC"/>
  <anchor x="483" y="0" name="ogonek"/>
  <outline>
    <contour>
      <point x="-26" y="0" type="line"/>
      <point x="179" y="0" type="line"/>
      <point x="186" y="36" type="line"/>
      <point x="95" y="50" type="line"/>
      <point x="79" y="50" type="line"/>
      <point x="-19" y="36" type="line"/>
    </contour>
    <contour>
      <point x="30" y="0" type="line"/>
      <point x="80" y="0" type="line"/>
      <point x="370" y="547" type="line"/>
      <point x="357" y="547" type="line"/>
      <point x="431" y="0" type="line"/>
      <point x="512" y="0" type="line"/>
      <point x="425" y="616" type="line"/>
      <point x="373" y="616" type="line"/>
    </contour>
    <contour>
      <point x="179" y="224" type="line"/>
      <point x="442" y="224" type="line"/>
      <point x="454" y="266" type="line"/>
      <point x="192" y="266" type="line"/>
    </contour>
    <contour>
      <point x="337" y="0" type="line"/>
      <point x="580" y="0" type="line"/>
      <point x="587" y="36" type="line"/>
      <point x="478" y="50" type="line"/>
      <point x="461" y="50" type="line"/>
      <point x="345" y="36" type="line"/>
    </contour>
    <contour>
      <point x="366" y="676" type="curve"/>
      <point x="378" y="655" type="line"/>
      <point x="424" y="676"/>
      <point x="470" y="696"/>
      <point x="516" y="716" type="curve" smooth="yes"/>
      <point x="560" y="736"/>
      <point x="565" y="750"/>
      <point x="565" y="766" type="curve" smooth="yes"/>
      <point x="565" y="785"/>
      <point x="550" y="797"/>
      <point x="532" y="797" type="curve" smooth="yes"/>
      <point x="509" y="797"/>
      <point x="500" y="788"/>
      <point x="470" y="763" type="curve" smooth="yes"/>
      <point x="435" y="734"/>
      <point x="401" y="705"/>
    </contour>
  </outline>
</glyph>
<glyph name="Atilde" format="2">
  <advance width="621"/>
  <unicode hex="00C3"/>
  <anchor x="432" y="803" name="aboveUC"/>
  <anchor x="259" y="-20" name="belowLC"/>
  <anchor x="483" y="0" name="ogonek"/>
  <outline>
    <contour>
      <point x="-26" y="0" type="line"/>
      <point x="179" y="0" type="line"/>
      <point x="186" y="36" type="line"/>
      <point x="95" y="50" type="line"/>
      <point x="79" y="50" type="line"/>
      <point x="-19" y="36" type="line"/>
    </contour>
    <contour>
      <point x="30" y="0" type="line"/>
      <point x="80" y="0" type="line"/>
      <point x="370" y="547" type="line"/>
      <point x="357" y="547" type="line"/>
      <point x="431" y="0" type="line"/>
      <point x="512" y="0" type="line"/>
      <point x="425" y="616" type="line"/>
      <point x="373" y="616" type="line"/>
    </contour>
    <contour>
      <point x="179" y="224" type="line"/>
      <point x="442" y="224" type="line"/>
      <point x="454" y="266" type="line"/>
      <point x="192" y="266" type="line"/>
    </contour>
    <contour>
      <point x="337" y="0" type="line"/>
      <point x="580" y="0" type="line"/>
      <point x="587" y="36" type="line"/>
      <point x="478" y="50" type="line"/>
      <point x="461" y="50" type="line"/>
      <point x="345" y="36" type="line"/>
    </contour>
    <contour>
      <point x="241" y="676" type="curve"/>
      <point x="265" y="667" type="line"/>
      <point x="289" y="723"/>
      <point x="312" y="742"/>
      <point x="343" y="742" type="curve" smooth="yes"/>
      <point x="370" y="742"/>
      <point x="385" y="716"/>
      <point x="404" y="697" type="curve" smooth="yes"/>
      <point x="422" y="680"/>
      <point x="440" y="666"/>
      <point x="474" y="666" type="curve" smooth="yes"/>
      <point x="531" y="666"/>
      <point x="566" y="703"/>
      <point x="592" y="783" type="curve"/>
      <point x="566" y="792" type="line"/>
      <point x="543" y="736"/>
      <point x="520" y="717"/>
      <point x="489" y="717" type="curve" smooth="yes"/>
      <point x="461" y="717"/>
      <point x="448" y="743"/>
      <point x="427" y="762" type="curve" smooth="yes"/>
      <point x="410" y="779"/>
      <point x="392" y="793"/>
      <point x="358" y="793" type="curve" smooth="yes"/>
      <point x="302" y="793"/>
      <point x="264" y="756"/>
    </contour>
  </outline>
</glyph>
<glyph name="Igrave" format="2">
  <advance width="328"/>
  <unicode hex="00CC"/>
  <anchor x="294" y="806" name="aboveUC"/>
  <anchor x="129" y="-20" name="belowLC"/>
  <anchor x="162" y="0" name="ogonek"/>
  <outline>
    <contour>
      <point x="14" y="0" type="line"/>
      <point x="257" y="0" type="line"/>
      <point x="264" y="36" type="line"/>
      <point x="155" y="50" type="line"/>
      <point x="138" y="50" type="line"/>
      <point x="22" y="36" type="line"/>
    </contour>
    <contour>
      <point x="92" y="0" type="line"/>
      <point x="173" y="0" type="line"/>
      <point x="188" y="94"/>
      <point x="205" y="190"/>
      <point x="222" y="285" type="curve" smooth="yes"/>
      <point x="285" y="616" type="line"/>
      <point x="204" y="616" type="line"/>
      <point x="189" y="521"/>
      <point x="172" y="425"/>
      <point x="155" y="331" type="curve" smooth="yes"/>
    </contour>
    <contour>
      <point x="112" y="579" type="line"/>
      <point x="223" y="565" type="line"/>
      <point x="241" y="565" type="line"/>
      <point x="355" y="579" type="line"/>
      <point x="362" y="616" type="line"/>
      <point x="119" y="616" type="line"/>
    </contour>
    <contour>
      <point x="294" y="686" type="line"/>
      <point x="266" y="714"/>
      <point x="238" y="743"/>
      <point x="208" y="771" type="curve" smooth="yes"/>
      <point x="183" y="797"/>
      <point x="167" y="806"/>
      <point x="151" y="806" type="curve" smooth="yes"/>
      <point x="133" y="806"/>
      <point x="117" y="794"/>
      <point x="117" y="776" type="curve" smooth="yes"/>
      <point x="117" y="759"/>
      <point x="129" y="744"/>
      <point x="163" y="725" type="curve" smooth="yes"/>
      <point x="200" y="705"/>
      <point x="239" y="684"/>
      <point x="277" y="664" type="curve"/>
    </contour>
  </outline>
</glyph>
<glyph name="Idieresis" format="2">
  <advance width="328"/>
  <unicode hex="00CF"/>
  <anchor x="244" y="635" name="aboveUC"/>
  <anchor x="129" y="-20" name="belowLC"/>
  <anchor x="162" y="0" name="ogonek"/>
  <outline>
    <contour>
      <point x="173" y="689" type="curve" smooth="yes"/>
      <point x="201" y="689"/>
      <point x="224" y="711"/>
      <point x="224" y="742" type="curve" smooth="yes"/>
      <point x="224" y="765"/>
      <point x="207" y="782"/>
      <point x="183" y="782" type="curve" smooth="yes"/>
      <point x="157" y="782"/>
      <point x="132" y="761"/>
      <point x="132" y="730" type="curve" smooth="yes"/>
      <point x="132" y="704"/>
      <point x="151" y="689"/>
    </contour>
    <contour>
      <point x="337" y="689" type="curve" smooth="yes"/>
      <point x="366" y="689"/>
      <point x="389" y="711"/>
      <point x="389" y="742" type="curve" smooth="yes"/>
      <point x="389" y="765"/>
      <point x="371" y="782"/>
      <point x="347" y="782" type="curve" smooth="yes"/>
      <point x="322" y="782"/>
      <point x="298" y="761"/>
      <point x="298" y="730" type="curve" smooth="yes"/>
      <point x="298" y="704"/>
      <point x="317" y="689"/>
    </contour>
    <contour>
      <point x="14" y="0" type="line"/>
      <point x="257" y="0" type="line"/>
      <point x="264" y="36" type="line"/>
      <point x="155" y="50" type="line"/>
      <point x="138" y="50" type="line"/>
      <point x="22" y="36" type="line"/>
    </contour>
    <contour>
      <point x="92" y="0" type="line"/>
      <point x="173" y="0" type="line"/>
      <point x="188" y="94"/>
      <point x="205" y="190"/>
      <point x="222" y="285" type="curve" smooth="yes"/>
      <point x="285" y="616" type="line"/>
      <point x="204" y="616" type="line"/>
      <point x="189" y="521"/>
      <point x="172" y="425"/>
      <point x="155" y="331" type="curve" smooth="yes"/>
    </contour>
    <contour>
      <point x="112" y="579" type="line"/>
      <point x="223" y="565" type="line"/>
      <point x="241" y="565" type="line"/>
      <point x="355" y="579" type="line"/>
      <point x="362" y="616" type="line"/>
      <point x="119" y="616" type="line"/>
    </contour>
  </outline>
</glyph>
<glyph name="Ntilde" format="2">
  <advance width="669"/>
  <unicode hex="00D1"/>
  <anchor x="467" y="803" name="aboveUC"/>
  <anchor x="335" y="-20" name="belowLC"/>
  <outline>
    <contour>
      <point x="9" y="0" type="line"/>
      <point x="222" y="0" type="line"/>
      <point x="228" y="36" type="line"/>
      <point x="125" y="50" type="line"/>
      <point x="107" y="50" type="line"/>
      <point x="16" y="36" type="line"/>
    </contour>
    <contour>
      <point x="82" y="0" type="line"/>
      <point x="126" y="0" type="line"/>
      <point x="243" y="616" type="line"/>
      <point x="199" y="616" type="line"/>
    </contour>
    <contour>
      <point x="514" y="-9" type="line"/>
      <point x="541" y="-9" type="line"/>
      <point x="555" y="76" type="line"/>
      <point x="254" y="616" type="line"/>
      <point x="115" y="616" type="line"/>
      <point x="107" y="579" type="line"/>
      <point x="224" y="565" type="line"/>
      <point x="175" y="587" type="line"/>
    </contour>
    <contour>
      <point x="505" y="579" type="line"/>
      <point x="617" y="565" type="line"/>
      <point x="634" y="565" type="line"/>
      <point x="722" y="579" type="line"/>
      <point x="729" y="616" type="line"/>
      <point x="512" y="616" type="line"/>
    </contour>
    <contour>
      <point x="541" y="-9" type="line"/>
      <point x="657" y="616" type="line"/>
      <point x="612" y="616" type="line"/>
      <point x="510" y="61" type="line"/>
    </contour>
    <contour>
      <point x="276" y="676" type="curve"/>
      <point x="300" y="667" type="line"/>
      <point x="324" y="723"/>
      <point x="347" y="742"/>
      <point x="378" y="742" type="curve" smooth="yes"/>
      <point x="405" y="742"/>
      <point x="420" y="716"/>
      <point x="439" y="697" type="curve" smooth="yes"/>
      <point x="457" y="680"/>
      <point x="475" y="666"/>
      <point x="509" y="666" type="curve" smooth="yes"/>
      <point x="566" y="666"/>
      <point x="601" y="703"/>
      <point x="627" y="783" type="curve"/>
      <point x="601" y="792" type="line"/>
      <point x="578" y="736"/>
      <point x="555" y="717"/>
      <point x="524" y="717" type="curve" smooth="yes"/>
      <point x="496" y="717"/>
      <point x="483" y="743"/>
      <point x="462" y="762" type="curve" smooth="yes"/>
      <point x="445" y="779"/>
      <point x="427" y="793"/>
      <point x="393" y="793" type="curve" smooth="yes"/>
      <point x="337" y="793"/>
      <point x="299" y="756"/>
    </contour>
  </outline>
</glyph>
<glyph name="Ograve" format="2">
  <advance width="607"/>
  <unicode hex="00D2"/>
  <anchor x="431" y="806" name="aboveUC"/>
  <anchor x="279" y="-19" name="belowLC"/>
  <anchor x="522" y="621" name="hornLC"/>
  <anchor x="360" y="0" name="ogonek"/>
  <outline>
    <contour>
      <point x="280" y="-12" type="curve" smooth="yes"/>
      <point x="472" y="-12"/>
      <point x="600" y="164"/>
      <point x="600" y="376" type="curve" smooth="yes"/>
      <point x="600" y="530"/>
      <point x="515" y="629"/>
      <point x="379" y="629" type="curve" smooth="yes"/>
      <point x="191" y="629"/>
      <point x="61" y="451"/>
      <point x="61" y="238" type="curve" smooth="yes"/>
      <point x="61" y="82"/>
      <point x="148" y="-12"/>
    </contour>
    <contour>
      <point x="293" y="33" type="curve" smooth="yes"/>
      <point x="188" y="33"/>
      <point x="141" y="115"/>
      <point x="141" y="237" type="curve" smooth="yes"/>
      <point x="141" y="434"/>
      <point x="232" y="583"/>
      <point x="368" y="583" type="curve" smooth="yes"/>
      <point x="474" y="583"/>
      <point x="520" y="503"/>
      <point x="520" y="377" type="curve" smooth="yes"/>
      <point x="520" y="181"/>
      <point x="429" y="33"/>
    </contour>
    <contour>
      <point x="431" y="686" type="line"/>
      <point x="403" y="714"/>
      <point x="375" y="743"/>
      <point x="345" y="771" type="curve" smooth="yes"/>
      <point x="320" y="797"/>
      <point x="304" y="806"/>
      <point x="288" y="806" type="curve" smooth="yes"/>
      <point x="270" y="806"/>
      <point x="254" y="794"/>
      <point x="254" y="776" type="curve" smooth="yes"/>
      <point x="254" y="759"/>
      <point x="266" y="744"/>
      <point x="300" y="725" type="curve" smooth="yes"/>
      <point x="337" y="705"/>
      <point x="376" y="684"/>
      <point x="414" y="664" type="curve"/>
    </contour>
  </outline>
</glyph>
<glyph name="Otilde" format="2">
  <advance width="607"/>
  <unicode hex="00D5"/>
  <anchor x="414" y="803" name="aboveUC"/>
  <anchor x="279" y="-19" name="belowLC"/>
  <anchor x="522" y="621" name="hornLC"/>
  <anchor x="360" y="0" name="ogonek"/>
  <outline>
    <contour>
      <point x="280" y="-12" type="curve" smooth="yes"/>
      <point x="472" y="-12"/>
      <point x="600" y="164"/>
      <point x="600" y="376" type="curve" smooth="yes"/>
      <point x="600" y="530"/>
      <point x="515" y="629"/>
      <point x="379" y="629" type="curve" smooth="yes"/>
      <point x="191" y="629"/>
      <point x="61" y="451"/>
      <point x="61" y="238" type="curve" smooth="yes"/>
      <point x="61" y="82"/>
      <point x="148" y="-12"/>
    </contour>
    <contour>
      <point x="293" y="33" type="curve" smooth="yes"/>
      <point x="188" y="33"/>
      <point x="141" y="115"/>
      <point x="141" y="237" type="curve" smooth="yes"/>
      <point x="141" y="434"/>
      <point x="232" y="583"/>
      <point x="368" y="583" type="curve" smooth="yes"/>
      <point x="474" y="583"/>
      <point x="520" y="503"/>
      <point x="520" y="377" type="curve" smooth="yes"/>
      <point x="520" y="181"/>
      <point x="429" y="33"/>
    </contour>
    <contour>
      <point x="223" y="676" type="curve"/>
      <point x="248" y="667" type="line"/>
      <point x="272" y="723"/>
      <point x="295" y="742"/>
      <point x="325" y="742" type="curve" smooth="yes"/>
      <point x="353" y="742"/>
      <point x="368" y="716"/>
      <point x="387" y="697" type="curve" smooth="yes"/>
      <point x="404" y="680"/>
      <point x="423" y="666"/>
      <point x="457" y="666" type="curve" smooth="yes"/>
      <point x="514" y="666"/>
      <point x="549" y="703"/>
      <point x="575" y="783" type="curve"/>
      <point x="549" y="792" type="line"/>
      <point x="526" y="736"/>
      <point x="503" y="717"/>
      <point x="471" y="717" type="curve" smooth="yes"/>
      <point x="444" y="717"/>
      <point x="430" y="743"/>
      <point x="410" y="762" type="curve" smooth="yes"/>
      <point x="392" y="779"/>
      <point x="375" y="793"/>
      <point x="341" y="793" type="curve" smooth="yes"/>
      <point x="285" y="793"/>
      <point x="247" y="756"/>
    </contour>
  </outline>
</glyph>
<glyph name="Odieresis" format="2">
  <advance width="607"/>
  <unicode hex="00D6"/>
  <anchor x="407" y="792" name="aboveUC"/>
  <anchor x="279" y="-19" name="belowLC"/>
  <anchor x="522" y="621" name="hornLC"/>
  <anchor x="360" y="0" name="ogonek"/>
  <outline>
    <contour>
      <point x="280" y="-12" type="curve" smooth="yes"/>
      <point x="472" y="-12"/>
      <point x="600" y="164"/>
      <point x="600" y="376" type="curve" smooth="yes"/>
      <point x="600" y="530"/>
      <point x="515" y="629"/>
      <point x="379" y="629" type="curve" smooth="yes"/>
      <point x="191" y="629"/>
      <point x="61" y="451"/>
      <point x="61" y="238" type="curve" smooth="yes"/>
      <point x="61" y="82"/>
      <point x="148" y="-12"/>
    </contour>
    <contour>
      <point x="293" y="33" type="curve" smooth="yes"/>
      <point x="188" y="33"/>
      <point x="141" y="115"/>
      <point x="141" y="237" type="curve" smooth="yes"/>
      <point x="141" y="434"/>
      <point x="232" y="583"/>
      <point x="368" y="583" type="curve" smooth="yes"/>
      <point x="474" y="583"/>
      <point x="520" y="503"/>
      <point x="520" y="377" type="curve" smooth="yes"/>
      <point x="520" y="181"/>
      <point x="429" y="33"/>
    </contour>
    <contour>
      <point x="286" y="689" type="curve" smooth="yes"/>
      <point x="313" y="689"/>
      <point x="336" y="711"/>
      <point x="336" y="742" type="curve" smooth="yes"/>
      <point x="336" y="765"/>
      <point x="319" y="782"/>
      <point x="295" y="782" type="curve" smooth="yes"/>
      <point x="269" y="782"/>
      <point x="244" y="761"/>
      <point x="244" y="730" type="curve" smooth="yes"/>
      <point x="244" y="704"/>
      <point x="264" y="689"/>
    </contour>
    <contour>
      <point x="486" y="689" type="curve" smooth="yes"/>
      <point x="515" y="689"/>
      <point x="538" y="711"/>
      <point x="538" y="742" type="curve" smooth="yes"/>
      <point x="538" y="765"/>
      <point x="520" y="782"/>
      <point x="496" y="782" type="curve" smooth="yes"/>
      <point x="471" y="782"/>
      <point x="447" y="761"/>
      <point x="447" y="730" type="curve" smooth="yes"/>
      <point x="447" y="704"/>
      <point x="466" y="689"/>
    </contour>
  </outline>
</glyph>
<glyph name="multiply" format="2">
  <advance width="487"/>
  <unicode hex="00D7"/>
  <outline>
    <contour>
      <point x="415" y="111" type="line"/>
      <point x="450" y="146" type="line"/>
      <point x="101" y="495" type="line"/>
      <point x="66" y="460" type="line"/>
    </contour>
    <contour>
      <point x="450" y="460" type="line"/>
      <point x="415" y="495" type="line"/>
      <point x="66" y="146" type="line"/>
      <point x="101" y="111" type="line"/>
    </contour>
  </outline>
</glyph>
<glyph name="Oslash" format="2">
  <advance width="607"/>
  <unicode hex="00D8"/>
  <anchor x="383" y="635" name="aboveUC"/>
  <outline>
    <contour>
      <point x="635" y="604" type="line"/>
      <point x="601" y="634" type="line"/>
      <point x="6" y="11" type="line"/>
      <point x="40" y="-18" type="line"/>
    </contour>
    <contour>
      <point x="277" y="-12" type="curve" smooth="yes"/>
      <point x="462" y="-12"/>
      <point x="600" y="164"/>
      <point x="600" y="376" type="curve" smooth="yes"/>
      <point x="600" y="525"/>
      <point x="516" y="629"/>
      <point x="381" y="629" type="curve" smooth="yes"/>
      <point x="201" y="629"/>
      <point x="61" y="451"/>
      <point x="61" y="238" type="curve" smooth="yes"/>
      <point x="61" y="82"/>
      <point x="147" y="-12"/>
    </contour>
    <contour>
      <point x="288" y="32" type="curve" smooth="yes"/>
      <point x="189" y="32"/>
      <point x="138" y="97"/>
      <point x="138" y="243" type="curve" smooth="yes"/>
      <point x="138" y="435"/>
      <point x="241" y="584"/>
      <point x="372" y="584" type="curve" smooth="yes"/>
      <point x="473" y="584"/>
      <point x="523" y="521"/>
      <point x="523" y="371" type="curve" smooth="yes"/>
      <point x="523" y="181"/>
      <point x="421" y="32"/>
    </contour>
  </outline>
</glyph>
<glyph name="Uacute" format="2">
  <advance width="655"/>
  <unicode hex="00DA"/>
  <anchor x="510" y="797" name="aboveUC"/>
  <anchor x="309" y="-20" name="belowLC"/>
  <anchor x="614" y="624" name="hornLC"/>
  <anchor x="388" y="0" name="ogonek"/>
  <outline>
    <contour>
      <point x="111" y="164" type="curve" smooth="yes"/>
      <point x="111" y="49"/>
      <point x="177" y="-13"/>
      <point x="301" y="-13" type="curve" smooth="yes"/>
      <point x="436" y="-13"/>
      <point x="532" y="57"/>
      <point x="569" y="252" type="curve" smooth="yes"/>
      <point x="638" y="616" type="line"/>
      <point x="590" y="616" type="line"/>
      <point x="525" y="275" type="line" smooth="yes"/>
      <point x="491" y="99"/>
      <point x="439" y="50"/>
      <point x="310" y="50" type="curve" smooth="yes"/>
      <point x="243" y="50"/>
      <point x="187" y="92"/>
      <point x="187" y="170" type="curve" smooth="yes"/>
      <point x="187" y="213"/>
      <point x="193" y="235"/>
      <point x="197" y="259" type="curve" smooth="yes"/>
      <point x="263" y="616" type="line"/>
      <point x="184" y="616" type="line"/>
      <point x="170" y="521"/>
      <point x="153" y="425"/>
      <point x="136" y="331" type="curve" smooth="yes"/>
      <point x="123" y="263" type="line" smooth="yes"/>
      <point x="116" y="229"/>
      <point x="111" y="195"/>
    </contour>
    <contour>
      <point x="92" y="579" type="line"/>
      <point x="203" y="565" type="line"/>
      <point x="220" y="565" type="line"/>
      <point x="334" y="579" type="line"/>
      <point x="342" y="616" type="line"/>
      <point x="99" y="616" type="line"/>
    </contour>
    <contour>
      <point x="485" y="579" type="line"/>
      <point x="593" y="565" type="line"/>
      <point x="610" y="565" type="line"/>
      <point x="708" y="579" type="line"/>
      <point x="715" y="616" type="line"/>
      <point x="493" y="616" type="line"/>
    </contour>
    <contour>
      <point x="420" y="676" type="curve"/>
      <point x="432" y="655" type="line"/>
      <point x="478" y="676"/>
      <point x="524" y="696"/>
      <point x="570" y="716" type="curve" smooth="yes"/>
      <point x="614" y="736"/>
      <point x="620" y="750"/>
      <point x="620" y="766" type="curve" smooth="yes"/>
      <point x="620" y="785"/>
      <point x="604" y="797"/>
      <point x="586" y="797" type="curve" smooth="yes"/>
      <point x="563" y="797"/>
      <point x="554" y="788"/>
      <point x="524" y="763" type="curve" smooth="yes"/>
      <point x="489" y="734"/>
      <point x="455" y="705"/>
    </contour>
  </outline>
</glyph>
<glyph name="Udieresis" format="2">
  <advance width="655"/>
  <unicode hex="00DC"/>
  <anchor x="458" y="792" name="aboveUC"/>
  <anchor x="309" y="-20" name="belowLC"/>
  <anchor x="614" y="624" name="hornLC"/>
  <anchor x="388" y="0" name="ogonek"/>
  <outline>
    <contour>
      <point x="111" y="164" type="curve" smooth="yes"/>
      <point x="111" y="49"/>
      <point x="177" y="-13"/>
      <point x="301" y="-13" type="curve" smooth="yes"/>
      <point x="436" y="-13"/>
      <point x="532" y="57"/>
      <point x="569" y="252" type="curve" smooth="yes"/>
      <point x="638" y="616" type="line"/>
      <point x="590" y="616" type="line"/>
      <point x="525" y="275" type="line" smooth="yes"/>
      <point x="491" y="99"/>
      <point x="439" y="50"/>
      <point x="310" y="50" type="curve" smooth="yes"/>
      <point x="243" y="50"/>
      <point x="187" y="92"/>
      <point x="187" y="170" type="curve" smooth="yes"/>
      <point x="187" y="213"/>
      <point x="193" y="235"/>
      <point x="197" y="259" type="curve" smooth="yes"/>
      <point x="263" y="616" type="line"/>
      <point x="184" y="616" type="line"/>
      <point x="170" y="521"/>
      <point x="153" y="425"/>
      <point x="136" y="331" type="curve" smooth="yes"/>
      <point x="123" y="263" type="line" smooth="yes"/>
      <point x="116" y="229"/>
      <point x="111" y="195"/>
    </contour>
    <contour>
      <point x="92" y="579" type="line"/>
      <point x="203" y="565" type="line"/>
      <point x="220" y="565" type="line"/>
      <point x="334" y="579" type="line"/>
      <point x="342" y="616" type="line"/>
      <point x="99" y="616" type="line"/>
    </contour>
    <contour>
      <point x="485" y="579" type="line"/>
      <point x="593" y="565" type="line"/>
      <point x="610" y="565" type="line"/>
      <point x="708" y="579" type="line"/>
      <point x="715" y="616" type="line"/>
      <point x="493" y="616" type="line"/>
    </contour>
    <contour>
      <point x="336" y="689" type="curve" smooth="yes"/>
      <point x="364" y="689"/>
      <point x="387" y="711"/>
      <point x="387" y="742" type="curve" smooth="yes"/>
      <point x="387" y="765"/>
      <point x="369" y="782"/>
      <point x="345" y="782" type="curve" smooth="yes"/>
      <point x="320" y="782"/>
      <point x="295" y="761"/>
      <point x="295" y="730" type="curve" smooth="yes"/>
      <point x="295" y="704"/>
      <point x="314" y="689"/>
    </contour>
    <contour>
      <point x="537" y="689" type="curve" smooth="yes"/>
      <point x="565" y="689"/>
      <point x="588" y="711"/>
      <point x="588" y="742" type="curve" smooth="yes"/>
      <point x="588" y="765"/>
      <point x="571" y="782"/>
      <point x="547" y="782" type="curve" smooth="yes"/>
      <point x="521" y="782"/>
      <point x="497" y="761"/>
      <point x="497" y="730" type="curve" smooth="yes"/>
      <point x="497" y="704"/>
      <point x="517" y="689"/>
    </contour>
  </outline>
</glyph>
<glyph name="acircumflex" format="2">
  <advance width="479"/>
  <unicode hex="00E2"/>
  <anchor x="352" y="674" name="aboveLC"/>
  <anchor x="199" y="-20" name="belowLC"/>
  <anchor x="368" y="0" name="ogonek"/>
  <outline>
    <contour>
      <point x="128" y="-11" type="curve" smooth="yes"/>
      <point x="194" y="-11"/>
      <point x="276" y="61"/>
      <point x="340" y="157" type="curve"/>
      <point x="332" y="177" type="line"/>
      <point x="251" y="80"/>
      <point x="205" y="50"/>
      <point x="166" y="50" type="curve" smooth="yes"/>
      <point x="133" y="50"/>
      <point x="111" y="77"/>
      <point x="111" y="133" type="curve" smooth="yes"/>
      <point x="111" y="215"/>
      <point x="146" y="287"/>
      <point x="190" y="333" type="curve" smooth="yes"/>
      <point x="224" y="368"/>
      <point x="263" y="387"/>
      <point x="292" y="387" type="curve" smooth="yes"/>
      <point x="324" y="387"/>
      <point x="356" y="368"/>
      <point x="379" y="348" type="curve"/>
      <point x="412" y="371" type="line"/>
      <point x="388" y="414"/>
      <point x="364" y="448"/>
      <point x="324" y="448" type="curve" smooth="yes"/>
      <point x="207" y="448"/>
      <point x="41" y="255"/>
      <point x="41" y="95" type="curve" smooth="yes"/>
      <point x="41" y="20"/>
      <point x="84" y="-11"/>
    </contour>
    <contour>
      <point x="333" y="-11" type="curve" smooth="yes"/>
      <point x="394" y="-11"/>
      <point x="451" y="46"/>
      <point x="488" y="100" type="curve"/>
      <point x="466" y="117" type="line"/>
      <point x="434" y="78"/>
      <point x="398" y="50"/>
      <point x="375" y="50" type="curve" smooth="yes"/>
      <point x="363" y="50"/>
      <point x="353" y="57"/>
      <point x="353" y="70" type="curve" smooth="yes"/>
      <point x="353" y="81"/>
      <point x="356" y="101"/>
      <point x="361" y="124" type="curve" smooth="yes"/>
      <point x="435" y="448" type="line"/>
      <point x="418" y="457" type="line"/>
      <point x="357" y="406" type="line"/>
      <point x="295" y="116" type="line" smooth="yes"/>
      <point x="288" y="86"/>
      <point x="286" y="67"/>
      <point x="286" y="40" type="curve" smooth="yes"/>
      <point x="286" y="4"/>
      <point x="308" y="-11"/>
    </contour>
    <contour>
      <point x="434" y="502" type="line"/>
      <point x="459" y="521" type="line"/>
      <point x="367" y="683" type="line"/>
      <point x="337" y="683" type="line"/>
      <point x="195" y="521" type="line"/>
      <point x="212" y="502" type="line"/>
      <point x="364" y="634" type="line"/>
      <point x="322" y="634" type="line"/>
    </contour>
  </outline>
</glyph>
<glyph name="ae" format="2">
  <advance width="611"/>
  <unicode hex="00E6"/>
  <anchor x="414" y="465" name="aboveLC"/>
  <anchor x="303" y="-20" name="belowLC"/>
  <anchor x="460" y="0" name="ogonek"/>
  <outline>
    <contour>
      <point x="128" y="-11" type="curve" smooth="yes"/>
      <point x="184" y="-11"/>
      <point x="253" y="42"/>
      <point x="312" y="118" type="curve"/>
      <point x="308" y="149" type="line"/>
      <point x="241" y="75"/>
      <point x="201" y="50"/>
      <point x="166" y="50" type="curve" smooth="yes"/>
      <point x="133" y="50"/>
      <point x="111" y="77"/>
      <point x="111" y="133" type="curve" smooth="yes"/>
      <point x="111" y="215"/>
      <point x="146" y="287"/>
      <point x="190" y="333" type="curve" smooth="yes"/>
      <point x="224" y="368"/>
      <point x="263" y="387"/>
      <point x="292" y="387" type="curve" smooth="yes"/>
      <point x="324" y="387"/>
      <point x="353" y="375"/>
      <point x="379" y="348" type="curve"/>
      <point x="416" y="380" type="line"/>
      <point x="394" y="420"/>
      <point x="366" y="448"/>
      <point x="324" y="448" type="curve" smooth="yes"/>
      <point x="207" y="448"/>
      <point x="41" y="255"/>
      <point x="41" y="95" type="curve" smooth="yes"/>
      <point x="41" y="20"/>
      <point x="84" y="-11"/>
    </contour>
    <contour>
      <point x="426" y="-11" type="curve" smooth="yes"/>
      <point x="494" y="-11"/>
      <point x="552" y="38"/>
      <point x="591" y="101" type="curve"/>
      <point x="570" y="117" type="line"/>
      <point x="545" y="86"/>
      <point x="504" y="50"/>
      <point x="446" y="50" type="curve" smooth="yes"/>
      <point x="386" y="50"/>
      <point x="350" y="86"/>
      <point x="350" y="178" type="curve" smooth="yes"/>
      <point x="350" y="300"/>
      <point x="448" y="408"/>
      <point x="507" y="408" type="curve" smooth="yes"/>
      <point x="538" y="408"/>
      <point x="559" y="388"/>
      <point x="559" y="354" type="curve" smooth="yes"/>
      <point x="559" y="301"/>
      <point x="499" y="234"/>
      <point x="327" y="190" type="curve"/>
      <point x="331" y="155" type="line"/>
      <point x="558" y="216"/>
      <point x="619" y="303"/>
      <point x="619" y="363" type="curve" smooth="yes"/>
      <point x="619" y="417"/>
      <point x="586" y="448"/>
      <point x="528" y="448" type="curve" smooth="yes"/>
      <point x="400" y="448"/>
      <point x="288" y="307"/>
      <point x="288" y="159" type="curve" smooth="yes"/>
      <point x="288" y="41"/>
      <point x="346" y="-11"/>
    </contour>
  </outline>
</glyph>
<glyph name="egrave" format="2">
  <advance width="372"/>
  <unicode hex="00E8"/>
  <anchor x="350" y="681" name="aboveLC"/>
  <anchor x="175" y="-20" name="belowLC"/>
  <anchor x="220" y="0" name="ogonek"/>
  <outline>
    <contour>
      <point x="187" y="-11" type="curve" smooth="yes"/>
      <point x="254" y="-11"/>
      <point x="313" y="38"/>
      <point x="352" y="101" type="curve"/>
      <point x="331" y="117" type="line"/>
      <point x="306" y="86"/>
      <point x="264" y="50"/>
      <point x="207" y="50" type="curve" smooth="yes"/>
      <point x="147" y="50"/>
      <point x="111" y="86"/>
      <point x="111" y="178" type="curve" smooth="yes"/>
      <point x="111" y="300"/>
      <point x="208" y="408"/>
      <point x="268" y="408" type="curve" smooth="yes"/>
      <point x="299" y="408"/>
      <point x="320" y="388"/>
      <point x="320" y="354" type="curve" smooth="yes"/>
      <point x="320" y="301"/>
      <point x="260" y="234"/>
      <point x="88" y="190" type="curve"/>
      <point x="92" y="155" type="line"/>
      <point x="319" y="216"/>
      <point x="379" y="303"/>
      <point x="379" y="363" type="curve" smooth="yes"/>
      <point x="379" y="417"/>
      <point x="347" y="448"/>
      <point x="288" y="448" type="curve" smooth="yes"/>
      <point x="161" y="448"/>
      <point x="49" y="307"/>
      <point x="49" y="159" type="curve" smooth="yes"/>
      <point x="49" y="41"/>
      <point x="107" y="-11"/>
    </contour>
    <contour>
      <point x="322" y="505" type="line"/>
      <point x="299" y="556"/>
      <point x="276" y="608"/>
      <point x="253" y="659" type="curve" smooth="yes"/>
      <point x="242" y="683"/>
      <point x="228" y="700"/>
      <point x="207" y="700" type="curve" smooth="yes"/>
      <point x="189" y="700"/>
      <point x="172" y="688"/>
      <point x="172" y="668" type="curve" smooth="yes"/>
      <point x="172" y="653"/>
      <point x="177" y="640"/>
      <point x="192" y="622" type="curve" smooth="yes"/>
      <point x="229" y="578"/>
      <point x="264" y="535"/>
      <point x="301" y="491" type="curve"/>
    </contour>
  </outline>
</glyph>
<glyph name="eacute" format="2">
  <advance width="372"/>
  <unicode hex="00E9"/>
  <anchor x="343" y="698" name="aboveLC"/>
  <anchor x="175" y="-20" name="belowLC"/>
  <anchor x="220" y="0" name="ogonek"/>
  <outline>
    <contour>
      <point x="187" y="-11" type="curve" smooth="yes"/>
      <point x="254" y="-11"/>
      <point x="313" y="38"/>
      <point x="352" y="101" type="curve"/>
      <point x="331" y="117" type="line"/>
      <point x="306" y="86"/>
      <point x="264" y="50"/>
      <point x="207" y="50" type="curve" smooth="yes"/>
      <point x="147" y="50"/>
      <point x="111" y="86"/>
      <point x="111" y="178" type="curve" smooth="yes"/>
      <point x="111" y="300"/>
      <point x="208" y="408"/>
      <point x="268" y="408" type="curve" smooth="yes"/>
      <point x="299" y="408"/>
      <point x="320" y="388"/>
      <point x="320" y="354" type="curve" smooth="yes"/>
      <point x="320" y="301"/>
      <point x="260" y="234"/>
      <point x="88" y="190" type="curve"/>
      <point x="92" y="155" type="line"/>
      <point x="319" y="216"/>
      <point x="379" y="303"/>
      <point x="379" y="363" type="curve" smooth="yes"/>
      <point x="379" y="417"/>
      <point x="347" y="448"/>
      <point x="288" y="448" type="curve" smooth="yes"/>
      <point x="161" y="448"/>
      <point x="49" y="307"/>
      <point x="49" y="159" type="curve" smooth="yes"/>
      <point x="49" y="41"/>
      <point x="107" y="-11"/>
    </contour>
    <contour>
      <point x="287" y="505" type="curve"/>
      <point x="308" y="491" type="line"/>
      <point x="345" y="535"/>
      <point x="380" y="578"/>
      <point x="417" y="622" type="curve" smooth="yes"/>
      <point x="432" y="640"/>
      <point x="437" y="653"/>
      <point x="437" y="667" type="curve" smooth="yes"/>
      <point x="437" y="688"/>
      <point x="421" y="698"/>
      <point x="402" y="698" type="curve" smooth="yes"/>
      <point x="381" y="698"/>
      <point x="367" y="683"/>
      <point x="356" y="659" type="curve" smooth="yes"/>
      <point x="333" y="608"/>
      <point x="310" y="556"/>
    </contour>
  </outline>
</glyph>
<glyph name="ecircumflex" format="2">
  <advance width="372"/>
  <unicode hex="00EA"/>
  <anchor x="311" y="674" name="aboveLC"/>
  <anchor x="175" y="-20" name="belowLC"/>
  <anchor x="220" y="0" name="ogonek"/>
  <outline>
    <contour>
      <point x="187" y="-11" type="curve" smooth="yes"/>
      <point x="254" y="-11"/>
      <point x="313" y="38"/>
      <point x="352" y="101" type="curve"/>
      <point x="331" y="117" type="line"/>
      <point x="306" y="86"/>
      <point x="264" y="50"/>
      <point x="207" y="50" type="curve" smooth="yes"/>
      <point x="147" y="50"/>
      <point x="111" y="86"/>
      <point x="111" y="178" type="curve" smooth="yes"/>
      <point x="111" y="300"/>
      <point x="208" y="408"/>
      <point x="268" y="408" type="curve" smooth="yes"/>
      <point x="299" y="408"/>
      <point x="320" y="388"/>
      <point x="320" y="354" type="curve" smooth="yes"/>
      <point x="320" y="301"/>
      <point x="260" y="234"/>
      <point x="88" y="190" type="curve"/>
      <point x="92" y="155" type="line"/>
      <point x="319" y="216"/>
      <point x="379" y="303"/>
      <point x="379" y="363" type="curve" smooth="yes"/>
      <point x="379" y="417"/>
      <point x="347" y="448"/>
      <point x="288" y="448" type="curve" smooth="yes"/>
      <point x="161" y="448"/>
      <point x="49" y="307"/>
      <point x="49" y="159" type="curve" smooth="yes"/>
      <point x="49" y="41"/>
      <point x="107" y="-11"/>
    </contour>
    <contour>
      <point x="393" y="502" type="line"/>
      <point x="418" y="521" type="line"/>
      <point x="326" y="683" type="line"/>
      <point x="297" y="683" type="line"/>
      <point x="154" y="521" type="line"/>
      <point x="172" y="502" type="line"/>
      <point x="323" y="634" type="line"/>
      <point x="281" y="634" type="line"/>
    </contour>
  </outline>
</glyph>
<glyph name="igrave" format="2">
  <advance width="280"/>
  <unicode hex="00EC"/>
  <anchor x="252" y="681" name="aboveLC"/>
  <anchor x="126" y="-20" name="belowLC"/>
  <anchor x="166" y="0" name="ogonek"/>
  <outline>
    <contour>
      <point x="83" y="34" type="curve" smooth="yes"/>
      <point x="83" y="3"/>
      <point x="107" y="-11"/>
      <point x="132" y="-11" type="curve" smooth="yes"/>
      <point x="197" y="-11"/>
      <point x="244" y="45"/>
      <point x="286" y="100" type="curve"/>
      <point x="264" y="117" type="line"/>
      <point x="226" y="73"/>
      <point x="196" y="50"/>
      <point x="174" y="50" type="curve" smooth="yes"/>
      <point x="164" y="50"/>
      <point x="154" y="57"/>
      <point x="154" y="70" type="curve" smooth="yes"/>
      <point x="154" y="81"/>
      <point x="158" y="101"/>
      <point x="162" y="124" type="curve" smooth="yes"/>
      <point x="228" y="438" type="line"/>
      <point x="216" y="448" type="line"/>
      <point x="60" y="401" type="line"/>
      <point x="57" y="374" type="line"/>
      <point x="167" y="368" type="line"/>
      <point x="151" y="380" type="line"/>
      <point x="92" y="101" type="line" smooth="yes"/>
      <point x="84" y="63"/>
      <point x="83" y="47"/>
    </contour>
    <contour>
      <point x="224" y="505" type="line"/>
      <point x="201" y="556"/>
      <point x="178" y="608"/>
      <point x="155" y="659" type="curve" smooth="yes"/>
      <point x="144" y="683"/>
      <point x="129" y="700"/>
      <point x="109" y="700" type="curve" smooth="yes"/>
      <point x="91" y="700"/>
      <point x="74" y="688"/>
      <point x="74" y="668" type="curve" smooth="yes"/>
      <point x="74" y="653"/>
      <point x="79" y="640"/>
      <point x="93" y="622" type="curve" smooth="yes"/>
      <point x="130" y="578"/>
      <point x="166" y="535"/>
      <point x="203" y="491" type="curve"/>
    </contour>
  </outline>
</glyph>
<glyph name="iacute" format="2">
  <advance width="280"/>
  <unicode hex="00ED"/>
  <anchor x="260" y="698" name="aboveLC"/>
  <anchor x="126" y="-20" name="belowLC"/>
  <anchor x="166" y="0" name="ogonek"/>
  <outline>
    <contour>
      <point x="83" y="34" type="curve" smooth="yes"/>
      <point x="83" y="3"/>
      <point x="107" y="-11"/>
      <point x="132" y="-11" type="curve" smooth="yes"/>
      <point x="197" y="-11"/>
      <point x="244" y="45"/>
      <point x="286" y="100" type="curve"/>
      <point x="264" y="117" type="line"/>
      <point x="226" y="73"/>
      <point x="196" y="50"/>
      <point x="174" y="50" type="curve" smooth="yes"/>
      <point x="164" y="50"/>
      <point x="154" y="57"/>
      <point x="154" y="70" type="curve" smooth="yes"/>
      <point x="154" y="81"/>
      <point x="158" y="101"/>
      <point x="162" y="124" type="curve" smooth="yes"/>
      <point x="228" y="438" type="line"/>
      <point x="216" y="448" type="line"/>
      <point x="60" y="401" type="line"/>
      <point x="57" y="374" type="line"/>
      <point x="167" y="368" type="line"/>
      <point x="151" y="380" type="line"/>
      <point x="92" y="101" type="line" smooth="yes"/>
      <point x="84" y="63"/>
      <point x="83" y="47"/>
    </contour>
    <contour>
      <point x="204" y="505" type="curve"/>
      <point x="225" y="491" type="line"/>
      <point x="262" y="535"/>
      <point x="298" y="578"/>
      <point x="334" y="622" type="curve" smooth="yes"/>
      <point x="349" y="640"/>
      <point x="354" y="653"/>
      <point x="354" y="667" type="curve" smooth="yes"/>
      <point x="354" y="688"/>
      <point x="338" y="698"/>
      <point x="319" y="698" type="curve" smooth="yes"/>
      <point x="299" y="698"/>
      <point x="284" y="683"/>
      <point x="273" y="659" type="curve" smooth="yes"/>
      <point x="250" y="608"/>
      <point x="227" y="556"/>
    </contour>
  </outline>
</glyph>
<glyph name="idieresis" format="2">
  <advance width="280"/>
  <unicode hex="00EF"/>
  <anchor x="197" y="465" name="aboveLC"/>
  <anchor x="126" y="-20" name="belowLC"/>
  <anchor x="166" y="0" name="ogonek"/>
  <outline>
    <contour>
      <point x="154" y="575" type="curve" smooth="yes"/>
      <point x="182" y="575"/>
      <point x="205" y="597"/>
      <point x="205" y="628" type="curve" smooth="yes"/>
      <point x="205" y="651"/>
      <point x="187" y="668"/>
      <point x="163" y="668" type="curve" smooth="yes"/>
      <point x="138" y="668"/>
      <point x="113" y="647"/>
      <point x="113" y="616" type="curve" smooth="yes"/>
      <point x="113" y="590"/>
      <point x="132" y="575"/>
    </contour>
    <contour>
      <point x="304" y="575" type="curve" smooth="yes"/>
      <point x="332" y="575"/>
      <point x="355" y="597"/>
      <point x="355" y="628" type="curve" smooth="yes"/>
      <point x="355" y="651"/>
      <point x="337" y="668"/>
      <point x="313" y="668" type="curve" smooth="yes"/>
      <point x="288" y="668"/>
      <point x="264" y="647"/>
      <point x="264" y="616" type="curve" smooth="yes"/>
      <point x="264" y="590"/>
      <point x="283" y="575"/>
    </contour>
    <contour>
      <point x="83" y="34" type="curve" smooth="yes"/>
      <point x="83" y="3"/>
      <point x="107" y="-11"/>
      <point x="132" y="-11" type="curve" smooth="yes"/>
      <point x="197" y="-11"/>
      <point x="244" y="45"/>
      <point x="286" y="100" type="curve"/>
      <point x="264" y="117" type="line"/>
      <point x="226" y="73"/>
      <point x="196" y="50"/>
      <point x="174" y="50" type="curve" smooth="yes"/>
      <point x="164" y="50"/>
      <point x="154" y="57"/>
      <point x="154" y="70" type="curve" smooth="yes"/>
      <point x="154" y="81"/>
      <point x="158" y="101"/>
      <point x="162" y="124" type="curve" smooth="yes"/>
      <point x="228" y="438" type="line"/>
      <point x="216" y="448" type="line"/>
      <point x="60" y="401" type="line"/>
      <point x="57" y="374" type="line"/>
      <point x="167" y="368" type="line"/>
      <point x="151" y="380" type="line"/>
      <point x="92" y="101" type="line" smooth="yes"/>
      <point x="84" y="63"/>
      <point x="83" y="47"/>
    </contour>
  </outline>
</glyph>
<glyph name="ntilde" format="2">
  <advance width="517"/>
  <unicode hex="00F1"/>
  <anchor x="355" y="666" name="aboveLC"/>
  <anchor x="224" y="-11" name="belowLC"/>
  <outline>
    <contour>
      <point x="318" y="26" type="curve" smooth="yes"/>
      <point x="318" y="3"/>
      <point x="335" y="-11"/>
      <point x="364" y="-11" type="curve" smooth="yes"/>
      <point x="426" y="-11"/>
      <point x="486" y="46"/>
      <point x="522" y="100" type="curve"/>
      <point x="500" y="117" type="line"/>
      <point x="467" y="76"/>
      <point x="432" y="50"/>
      <point x="409" y="50" type="curve" smooth="yes"/>
      <point x="398" y="50"/>
      <point x="391" y="57"/>
      <point x="391" y="69" type="curve" smooth="yes"/>
      <point x="391" y="79"/>
      <point x="396" y="98"/>
      <point x="402" y="124" type="curve" smooth="yes"/>
      <point x="444" y="294" type="line" smooth="yes"/>
      <point x="451" y="324"/>
      <point x="460" y="355"/>
      <point x="460" y="384" type="curve" smooth="yes"/>
      <point x="460" y="426"/>
      <point x="439" y="448"/>
      <point x="401" y="448" type="curve" smooth="yes"/>
      <point x="340" y="448"/>
      <point x="256" y="392"/>
      <point x="195" y="330" type="curve"/>
      <point x="190" y="296" type="line"/>
      <point x="264" y="356"/>
      <point x="320" y="387"/>
      <point x="355" y="387" type="curve" smooth="yes"/>
      <point x="375" y="387"/>
      <point x="387" y="377"/>
      <point x="387" y="344" type="curve" smooth="yes"/>
      <point x="387" y="325"/>
      <point x="379" y="295"/>
      <point x="372" y="264" type="curve" smooth="yes"/>
      <point x="333" y="101" type="line" smooth="yes"/>
      <point x="323" y="63"/>
      <point x="318" y="47"/>
    </contour>
    <contour>
      <point x="139" y="0" type="line"/>
      <point x="151" y="65"/>
      <point x="162" y="128"/>
      <point x="176" y="193" type="curve" smooth="yes"/>
      <point x="205" y="323" type="line"/>
      <point x="228" y="438" type="line"/>
      <point x="216" y="448" type="line"/>
      <point x="60" y="401" type="line"/>
      <point x="57" y="374" type="line"/>
      <point x="167" y="368" type="line"/>
      <point x="151" y="380" type="line"/>
      <point x="70" y="0" type="line"/>
      <point x="80" y="-7" type="line"/>
    </contour>
    <contour>
      <point x="180" y="539" type="curve"/>
      <point x="202" y="530" type="line"/>
      <point x="214" y="585"/>
      <point x="240" y="609"/>
      <point x="264" y="609" type="curve" smooth="yes"/>
      <point x="293" y="609"/>
      <point x="311" y="585"/>
      <point x="330" y="563" type="curve" smooth="yes"/>
      <point x="345" y="546"/>
      <point x="364" y="529"/>
      <point x="399" y="529" type="curve" smooth="yes"/>
      <point x="446" y="529"/>
      <point x="483" y="567"/>
      <point x="498" y="646" type="curve"/>
      <point x="475" y="655" type="line"/>
      <point x="463" y="600"/>
      <point x="437" y="576"/>
      <point x="414" y="576" type="curve" smooth="yes"/>
      <point x="385" y="576"/>
      <point x="368" y="600"/>
      <point x="347" y="621" type="curve" smooth="yes"/>
      <point x="332" y="639"/>
      <point x="314" y="656"/>
      <point x="279" y="656" type="curve" smooth="yes"/>
      <point x="233" y="656"/>
      <point x="194" y="618"/>
    </contour>
  </outline>
</glyph>
<glyph name="oslash" format="2">
  <advance width="448"/>
  <unicode hex="00F8"/>
  <anchor x="291" y="465" name="aboveLC"/>
  <outline>
    <contour>
      <point x="480" y="437" type="line"/>
      <point x="455" y="460" type="line"/>
      <point x="-6" y="4" type="line"/>
      <point x="19" y="-18" type="line"/>
    </contour>
    <contour>
      <point x="202" y="-11" type="curve" smooth="yes"/>
      <point x="331" y="-11"/>
      <point x="437" y="126"/>
      <point x="437" y="287" type="curve" smooth="yes"/>
      <point x="437" y="391"/>
      <point x="375" y="448"/>
      <point x="288" y="448" type="curve" smooth="yes"/>
      <point x="159" y="448"/>
      <point x="49" y="315"/>
      <point x="49" y="149" type="curve" smooth="yes"/>
      <point x="49" y="45"/>
      <point x="117" y="-11"/>
    </contour>
    <contour>
      <point x="212" y="24" type="curve" smooth="yes"/>
      <point x="159" y="24"/>
      <point x="120" y="55"/>
      <point x="120" y="161" type="curve" smooth="yes"/>
      <point x="120" y="299"/>
      <point x="189" y="411"/>
      <point x="278" y="411" type="curve" smooth="yes"/>
      <point x="331" y="411"/>
      <point x="367" y="381"/>
      <point x="367" y="272" type="curve" smooth="yes"/>
      <point x="367" y="149"/>
      <point x="305" y="24"/>
    </contour>
  </outline>
</glyph>
<glyph name="uacute" format="2">
  <advance width="526"/>
  <unicode hex="00FA"/>
  <anchor x="371" y="698" name="aboveLC"/>
  <anchor x="251" y="-20" name="belowLC"/>
  <anchor x="465" y="433" name="hornLC"/>
  <anchor x="395" y="0" name="ogonek"/>
  <outline>
    <contour>
      <point x="153" y="-11" type="curve" smooth="yes"/>
      <point x="219" y="-11"/>
      <point x="288" y="44"/>
      <point x="379" y="132" type="curve"/>
      <point x="379" y="158" type="line"/>
      <point x="287" y="83"/>
      <point x="242" y="50"/>
      <point x="198" y="50" type="curve" smooth="yes"/>
      <point x="176" y="50"/>
      <point x="163" y="63"/>
      <point x="163" y="90" type="curve" smooth="yes"/>
      <point x="163" y="110"/>
      <point x="169" y="140"/>
      <point x="177" y="178" type="curve" smooth="yes"/>
      <point x="235" y="438" type="line"/>
      <point x="223" y="448" type="line"/>
      <point x="64" y="402" type="line"/>
      <point x="60" y="374" type="line"/>
      <point x="163" y="368" type="line"/>
      <point x="157" y="389" type="line"/>
      <point x="110" y="172" type="line" smooth="yes"/>
      <point x="103" y="135"/>
      <point x="91" y="89"/>
      <point x="91" y="55" type="curve" smooth="yes"/>
      <point x="91" y="4"/>
      <point x="119" y="-11"/>
    </contour>
    <contour>
      <point x="379" y="-11" type="curve" smooth="yes"/>
      <point x="444" y="-11"/>
      <point x="493" y="45"/>
      <point x="535" y="100" type="curve"/>
      <point x="513" y="117" type="line"/>
      <point x="474" y="73"/>
      <point x="447" y="50"/>
      <point x="422" y="50" type="curve" smooth="yes"/>
      <point x="411" y="50"/>
      <point x="401" y="57"/>
      <point x="401" y="70" type="curve" smooth="yes"/>
      <point x="401" y="81"/>
      <point x="404" y="101"/>
      <point x="409" y="124" type="curve" smooth="yes"/>
      <point x="474" y="438" type="line"/>
      <point x="462" y="448" type="line"/>
      <point x="404" y="429" type="line"/>
      <point x="394" y="370"/>
      <point x="382" y="310"/>
      <point x="370" y="252" type="curve" smooth="yes"/>
      <point x="339" y="101" type="line" smooth="yes"/>
      <point x="331" y="63"/>
      <point x="330" y="47"/>
      <point x="330" y="34" type="curve" smooth="yes"/>
      <point x="330" y="3"/>
      <point x="354" y="-11"/>
    </contour>
    <contour>
      <point x="315" y="505" type="curve"/>
      <point x="336" y="491" type="line"/>
      <point x="373" y="535"/>
      <point x="409" y="578"/>
      <point x="446" y="622" type="curve" smooth="yes"/>
      <point x="460" y="640"/>
      <point x="465" y="653"/>
      <point x="465" y="667" type="curve" smooth="yes"/>
      <point x="465" y="688"/>
      <point x="449" y="698"/>
      <point x="430" y="698" type="curve" smooth="yes"/>
      <point x="410" y="698"/>
      <point x="395" y="683"/>
      <point x="384" y="659" type="curve" smooth="yes"/>
      <point x="361" y="608"/>
      <point x="338" y="556"/>
    </contour>
  </outline>
</glyph>
<glyph name="ucircumflex" format="2">
  <advance width="526"/>
  <unicode hex="00FB"/>
  <anchor x="357" y="674" name="aboveLC"/>
  <anchor x="251" y="-20" name="belowLC"/>
  <anchor x="465" y="433" name="hornLC"/>
  <anchor x="395" y="0" name="ogonek"/>
  <outline>
    <contour>
      <point x="153" y="-11" type="curve" smooth="yes"/>
      <point x="219" y="-11"/>
      <point x="288" y="44"/>
      <point x="379" y="132" type="curve"/>
      <point x="379" y="158" type="line"/>
      <point x="287" y="83"/>
      <point x="242" y="50"/>
      <point x="198" y="50" type="curve" smooth="yes"/>
      <point x="176" y="50"/>
      <point x="163" y="63"/>
      <point x="163" y="90" type="curve" smooth="yes"/>
      <point x="163" y="110"/>
      <point x="169" y="140"/>
      <point x="177" y="178" type="curve" smooth="yes"/>
      <point x="235" y="438" type="line"/>
      <point x="223" y="448" type="line"/>
      <point x="64" y="402" type="line"/>
      <point x="60" y="374" type="line"/>
      <point x="163" y="368" type="line"/>
      <point x="157" y="389" type="line"/>
      <point x="110" y="172" type="line" smooth="yes"/>
      <point x="103" y="135"/>
      <point x="91" y="89"/>
      <point x="91" y="55" type="curve" smooth="yes"/>
      <point x="91" y="4"/>
      <point x="119" y="-11"/>
    </contour>
    <contour>
      <point x="379" y="-11" type="curve" smooth="yes"/>
      <point x="444" y="-11"/>
      <point x="493" y="45"/>
      <point x="535" y="100" type="curve"/>
      <point x="513" y="117" type="line"/>
      <point x="474" y="73"/>
      <point x="447" y="50"/>
      <point x="422" y="50" type="curve" smooth="yes"/>
      <point x="411" y="50"/>
      <point x="401" y="57"/>
      <point x="401" y="70" type="curve" smooth="yes"/>
      <point x="401" y="81"/>
      <point x="404" y="101"/>
      <point x="409" y="124" type="curve" smooth="yes"/>
      <point x="474" y="438" type="line"/>
      <point x="462" y="448" type="line"/>
      <point x="404" y="429" type="line"/>
      <point x="394" y="370"/>
      <point x="382" y="310"/>
      <point x="370" y="252" type="curve" smooth="yes"/>
      <point x="339" y="101" type="line" smooth="yes"/>
      <point x="331" y="63"/>
      <point x="330" y="47"/>
      <point x="330" y="34" type="curve" smooth="yes"/>
      <point x="330" y="3"/>
      <point x="354" y="-11"/>
    </contour>
    <contour>
      <point x="439" y="502" type="line"/>
      <point x="464" y="521" type="line"/>
      <point x="372" y="683" type="line"/>
      <point x="343" y="683" type="line"/>
      <point x="200" y="521" type="line"/>
      <point x="218" y="502" type="line"/>
      <point x="369" y="634" type="line"/>
      <point x="327" y="634" type="line"/>
    </contour>
  </outline>
</glyph>
<glyph name="yacute" format="2">
  <advance width="436"/>
  <unicode hex="00FD"/>
  <anchor x="342" y="689" name="aboveLC"/>
  <anchor x="3" y="-231" name="belowLC"/>
  <outline>
    <contour>
      <point x="-76" y="-168" type="curve"/>
      <point x="-73" y="-198"/>
      <point x="-51" y="-220"/>
      <point x="-11" y="-220" type="curve" smooth="yes"/>
      <point x="42" y="-220"/>
      <point x="95" y="-181"/>
      <point x="156" y="-115" type="curve" smooth="yes"/>
      <point x="194" y="-74"/>
      <point x="218" y="-35"/>
      <point x="242" y="0" type="curve" smooth="yes"/>
      <point x="293" y="76"/>
      <point x="332" y="147"/>
      <point x="366" y="208" type="curve" smooth="yes"/>
      <point x="401" y="271"/>
      <point x="420" y="309"/>
      <point x="439" y="348" type="curve" smooth="yes"/>
      <point x="458" y="385"/>
      <point x="462" y="399"/>
      <point x="462" y="422" type="curve" smooth="yes"/>
      <point x="462" y="440"/>
      <point x="449" y="453"/>
      <point x="428" y="453" type="curve" smooth="yes"/>
      <point x="403" y="453"/>
      <point x="390" y="434"/>
      <point x="359" y="328" type="curve" smooth="yes"/>
      <point x="328" y="219"/>
      <point x="294" y="150"/>
      <point x="225" y="24" type="curve"/>
      <point x="198" y="-19"/>
      <point x="168" y="-58"/>
      <point x="133" y="-93" type="curve" smooth="yes"/>
      <point x="94" y="-133"/>
      <point x="50" y="-163"/>
      <point x="3" y="-186" type="curve"/>
      <point x="74" y="-176" type="line"/>
      <point x="47" y="-158" type="line" smooth="yes"/>
      <point x="21" y="-139"/>
      <point x="0" y="-126"/>
      <point x="-26" y="-126" type="curve" smooth="yes"/>
      <point x="-52" y="-126"/>
      <point x="-71" y="-141"/>
    </contour>
    <contour>
      <point x="233" y="19" type="line"/>
      <point x="230" y="110"/>
      <point x="223" y="209"/>
      <point x="211" y="324" type="curve" smooth="yes"/>
      <point x="200" y="428"/>
      <point x="181" y="448"/>
      <point x="146" y="448" type="curve" smooth="yes"/>
      <point x="107" y="448"/>
      <point x="66" y="416"/>
      <point x="30" y="338" type="curve"/>
      <point x="51" y="323" type="line"/>
      <point x="84" y="374"/>
      <point x="97" y="385"/>
      <point x="113" y="385" type="curve" smooth="yes"/>
      <point x="130" y="385"/>
      <point x="135" y="371"/>
      <point x="149" y="253" type="curve" smooth="yes"/>
      <point x="165" y="129"/>
      <point x="175" y="68"/>
      <point x="183" y="-40" type="curve"/>
    </contour>
    <contour>
      <point x="286" y="495" type="curve"/>
      <point x="307" y="482" type="line"/>
      <point x="344" y="526"/>
      <point x="379" y="569"/>
      <point x="416" y="613" type="curve" smooth="yes"/>
      <point x="431" y="631"/>
      <point x="436" y="644"/>
      <point x="436" y="657" type="curve" smooth="yes"/>
      <point x="436" y="678"/>
      <point x="420" y="689"/>
      <point x="401" y="689" type="curve" smooth="yes"/>
      <point x="380" y="689"/>
      <point x="366" y="674"/>
      <point x="355" y="650" type="curve" smooth="yes"/>
      <point x="332" y="598"/>
      <point x="309" y="547"/>
    </contour>
  </outline>
</glyph>
<glyph name="thorn" format="2">
  <advance width="463"/>
  <unicode hex="00FE"/>
  <anchor x="237" y="679" name="aboveLC"/>
  <anchor x="311" y="-3" name="belowLC"/>
  <outline>
    <contour>
      <point x="18" y="-220" type="line"/>
      <point x="86" y="-220" type="line"/>
      <point x="100" y="-137"/>
      <point x="115" y="-57"/>
      <point x="133" y="23" type="curve"/>
      <point x="137" y="35" type="line"/>
      <point x="192" y="301" type="line"/>
      <point x="195" y="315" type="line"/>
      <point x="268" y="674" type="line"/>
      <point x="258" y="681" type="line"/>
      <point x="100" y="635" type="line"/>
      <point x="95" y="609" type="line"/>
      <point x="203" y="601" type="line"/>
      <point x="187" y="619" type="line"/>
      <point x="178" y="559"/>
      <point x="167" y="499"/>
      <point x="155" y="439" type="curve" smooth="yes"/>
    </contour>
    <contour>
      <point x="87" y="41" type="line"/>
      <point x="117" y="2"/>
      <point x="143" y="-11"/>
      <point x="181" y="-11" type="curve" smooth="yes"/>
      <point x="313" y="-11"/>
      <point x="465" y="180"/>
      <point x="465" y="334" type="curve" smooth="yes"/>
      <point x="465" y="417"/>
      <point x="426" y="448"/>
      <point x="381" y="448" type="curve" smooth="yes"/>
      <point x="314" y="448"/>
      <point x="214" y="379"/>
      <point x="156" y="269" type="curve"/>
      <point x="166" y="264" type="line"/>
      <point x="234" y="343"/>
      <point x="297" y="387"/>
      <point x="340" y="387" type="curve" smooth="yes"/>
      <point x="375" y="387"/>
      <point x="396" y="357"/>
      <point x="396" y="298" type="curve" smooth="yes"/>
      <point x="396" y="234"/>
      <point x="373" y="169"/>
      <point x="335" y="120" type="curve" smooth="yes"/>
      <point x="303" y="79"/>
      <point x="261" y="50"/>
      <point x="214" y="50" type="curve" smooth="yes"/>
      <point x="188" y="50"/>
      <point x="157" y="60"/>
      <point x="126" y="92" type="curve"/>
    </contour>
    <contour>
      <point x="53" y="-172" type="line"/>
      <point x="-52" y="-189" type="line"/>
      <point x="-58" y="-220" type="line"/>
      <point x="173" y="-220" type="line"/>
      <point x="180" y="-189" type="line"/>
      <point x="70" y="-172" type="line"/>
    </contour>
  </outline>
</glyph>
<glyph name="dotlessi" format="2">
  <advance width="280"/>
  <unicode hex="0131"/>
  <anchor x="197" y="465" name="aboveLC"/>
  <anchor x="126" y="-20" name="belowLC"/>
  <anchor x="166" y="0" name="ogonek"/>
  <outline>
    <contour>
      <point x="83" y="34" type="curve" smooth="yes"/>
      <point x="83" y="3"/>
      <point x="107" y="-11"/>
      <point x="132" y="-11" type="curve" smooth="yes"/>
      <point x="197" y="-11"/>
      <point x="244" y="45"/>
      <point x="286" y="100" type="curve"/>
      <point x="264" y="117" type="line"/>
      <point x="226" y="73"/>
      <point x="196" y="50"/>
      <point x="174" y="50" type="curve" smooth="yes"/>
      <point x="164" y="50"/>
      <point x="154" y="57"/>
      <point x="154" y="70" type="curve" smooth="yes"/>
      <point x="154" y="81"/>
      <point x="158" y="101"/>
      <point x="162" y="124" type="curve" smooth="yes"/>
      <point x="228" y="438" type="line"/>
      <point x="216" y="448" type="line"/>
      <point x="60" y="401" type="line"/>
      <point x="57" y="374" type="line"/>
      <point x="167" y="368" type="line"/>
      <point x="151" y="380" type="line"/>
      <point x="92" y="101" type="line" smooth="yes"/>
      <point x="84" y="63"/>
      <point x="83" y="47"/>
    </contour>
  </outline>
</glyph>
<glyph name="zcaron" format="2">
  <advance width="424"/>
  <unicode hex="017E"/>
  <anchor x="339" y="681" name="aboveLC"/>
  <anchor x="155" y="-20" name="belowLC"/>
  <outline>
    <contour>
      <point x="262" y="-21" type="curve" smooth="yes"/>
      <point x="332" y="-21"/>
      <point x="408" y="44"/>
      <point x="408" y="110" type="curve" smooth="yes"/>
      <point x="408" y="132"/>
      <point x="397" y="157"/>
      <point x="378" y="164" type="curve"/>
      <point x="352" y="161"/>
      <point x="333" y="144"/>
      <point x="333" y="115" type="curve" smooth="yes"/>
      <point x="333" y="95"/>
      <point x="344" y="80"/>
      <point x="369" y="48" type="curve"/>
      <point x="383" y="79" type="line"/>
      <point x="356" y="56"/>
      <point x="328" y="41"/>
      <point x="291" y="41" type="curve" smooth="yes"/>
      <point x="251" y="41"/>
      <point x="196" y="57"/>
      <point x="115" y="122" type="curve"/>
      <point x="91" y="92" type="line"/>
      <point x="159" y="2"/>
      <point x="205" y="-21"/>
    </contour>
    <contour>
      <point x="66" y="0" type="line"/>
      <point x="105" y="80" type="line"/>
      <point x="190" y="163"/>
      <point x="283" y="235"/>
      <point x="370" y="325" type="curve" smooth="yes"/>
      <point x="417" y="374"/>
      <point x="448" y="415"/>
      <point x="457" y="437" type="curve"/>
      <point x="446" y="447" type="line"/>
      <point x="395" y="436" type="line"/>
      <point x="356" y="358" type="line"/>
      <point x="268" y="264"/>
      <point x="170" y="184"/>
      <point x="81" y="98" type="curve" smooth="yes"/>
      <point x="43" y="60"/>
      <point x="24" y="32"/>
      <point x="6" y="0" type="curve"/>
      <point x="13" y="-5" type="line"/>
    </contour>
    <contour>
      <point x="62" y="261" type="line"/>
      <point x="100" y="255" type="line"/>
      <point x="150" y="420" type="line"/>
      <point x="101" y="390" type="line"/>
      <point x="205" y="367"/>
      <point x="264" y="351"/>
      <point x="350" y="322" type="curve"/>
      <point x="383" y="367" type="line"/>
      <point x="299" y="403"/>
      <point x="230" y="425"/>
      <point x="147" y="448" type="curve"/>
      <point x="83" y="397" type="line"/>
    </contour>
    <contour>
      <point x="221" y="690" type="line"/>
      <point x="196" y="673" type="line"/>
      <point x="286" y="509" type="line"/>
      <point x="314" y="509" type="line"/>
      <point x="460" y="673" type="line"/>
      <point x="442" y="690" type="line"/>
      <point x="286" y="563" type="line"/>
      <point x="325" y="563" type="line"/>
    </contour>
  </outline>
</glyph>
<glyph name="caron" format="2">
  <advance width="368"/>
  <unicode hex="02C7"/>
  <anchor x="238" y="465" name="_aboveLC"/>
  <anchor x="284" y="681" name="aboveLC"/>
  <outline>
    <contour>
      <point x="166" y="690" type="line"/>
      <point x="141" y="673" type="line"/>
      <point x="230" y="509" type="line"/>
      <point x="259" y="509" type="line"/>
      <point x="404" y="673" type="line"/>
      <point x="387" y="690" type="line"/>
      <point x="230" y="563" type="line"/>
      <point x="270" y="563" type="line"/>
    </contour>
  </outline>
</glyph>
<glyph name="colontriangularmod" format="2">
  <advance width="276"/>
  <unicode hex="02D0"/>
  <outline>
    <contour>
      <point x="112" y="441" type="line"/>
      <point x="155" y="323" type="line"/>
      <point x="162" y="323" type="line"/>
      <point x="255" y="441" type="line"/>
      <point x="253" y="448" type="line"/>
      <point x="117" y="448" type="line"/>
    </contour>
    <contour>
      <point x="20" y="6" type="line"/>
      <point x="22" y="0" type="line"/>
      <point x="158" y="0" type="line"/>
      <point x="163" y="6" type="line"/>
      <point x="120" y="124" type="line"/>
      <point x="113" y="124" type="line"/>
    </contour>
  </outline>
</glyph>
<glyph name="ogonek" format="2">
  <advance width="368"/>
  <unicode hex="02DB"/>
  <anchor x="134" y="0" name="_ogonek"/>
  <outline>
    <contour>
      <point x="34" y="-149" type="curve" smooth="yes"/>
      <point x="34" y="-193"/>
      <point x="63" y="-220"/>
      <point x="115" y="-220" type="curve" smooth="yes"/>
      <point x="156" y="-220"/>
      <point x="197" y="-195"/>
      <point x="221" y="-168" type="curve"/>
      <point x="210" y="-152" type="line"/>
      <point x="189" y="-168"/>
      <point x="160" y="-179"/>
      <point x="137" y="-179" type="curve" smooth="yes"/>
      <point x="110" y="-179"/>
      <point x="91" y="-161"/>
      <point x="91" y="-126" type="curve" smooth="yes"/>
      <point x="91" y="-72"/>
      <point x="129" y="-26"/>
      <point x="170" y="11" type="curve"/>
      <point x="139" y="11" type="line"/>
      <point x="91" y="-34"/>
      <point x="34" y="-88"/>
    </contour>
  </outline>
</glyph>
<glyph name="tilde" format="2">
  <advance width="368"/>
  <unicode hex="02DC"/>
  <anchor x="234" y="465" name="_aboveLC"/>
  <anchor x="276" y="666" name="aboveLC"/>
  <outline>
    <contour>
      <point x="102" y="539" type="curve"/>
      <point x="124" y="530" type="line"/>
      <point x="136" y="585"/>
      <point x="161" y="609"/>
      <point x="185" y="609" type="curve" smooth="yes"/>
      <point x="215" y="609"/>
      <point x="233" y="585"/>
      <point x="252" y="563" type="curve" smooth="yes"/>
      <point x="267" y="546"/>
      <point x="286" y="529"/>
      <point x="321" y="529" type="curve" smooth="yes"/>
      <point x="368" y="529"/>
      <point x="404" y="567"/>
      <point x="420" y="646" type="curve"/>
      <point x="397" y="655" type="line"/>
      <point x="385" y="600"/>
      <point x="359" y="576"/>
      <point x="335" y="576" type="curve" smooth="yes"/>
      <point x="307" y="576"/>
      <point x="289" y="600"/>
      <point x="269" y="621" type="curve" smooth="yes"/>
      <point x="253" y="639"/>
      <point x="236" y="656"/>
      <point x="201" y="656" type="curve" smooth="yes"/>
      <point x="155" y="656"/>
      <point x="115" y="618"/>
    </contour>
  </outline>
</glyph>
<glyph name="uni2010" format="2">
  <advance width="285"/>
  <unicode hex="2010"/>
  <outline>
    <contour>
      <point x="51" y="201" type="line"/>
      <point x="263" y="201" type="line"/>
      <point x="263" y="260" type="line"/>
      <point x="51" y="260" type="line"/>
    </contour>
  </outline>
</glyph>
<glyph name="figuredash" format="2">
  <advance width="469"/>
  <unicode hex="2012"/>
  <outline>
    <contour>
      <point x="60" y="201" type="line"/>
      <point x="444" y="201" type="line"/>
      <point x="444" y="260" type="line"/>
      <point x="60" y="260" type="line"/>
    </contour>
  </outline>
</glyph>
<glyph name="endash" format="2">
  <advance width="469"/>
  <unicode hex="2013"/>
  <outline>
    <contour>
      <point x="51" y="201" type="line"/>
      <point x="447" y="201" type="line"/>
      <point x="447" y="260" type="line"/>
      <point x="51" y="260" type="line"/>
    </contour>
  </outline>
</glyph>
<glyph name="horizontalbar" format="2">
  <advance width="745"/>
  <unicode hex="2015"/>
  <outline>
    <contour>
      <point x="51" y="201" type="line"/>
      <point x="723" y="201" type="line"/>
      <point x="723" y="260" type="line"/>
      <point x="51" y="260" type="line"/>
    </contour>
  </outline>
</glyph>
<glyph name="quoteleft" format="2">
  <advance width="262"/>
  <unicode hex="2018"/>
  <outline>
    <contour>
      <point x="197" y="347" type="curve" smooth="yes"/>
      <point x="223" y="347"/>
      <point x="246" y="366"/>
      <point x="246" y="406" type="curve" smooth="yes"/>
      <point x="246" y="422"/>
      <point x="238" y="438"/>
      <point x="224" y="457" type="curve" smooth="yes"/>
      <point x="197" y="496" type="line"/>
      <point x="197" y="461" type="line"/>
      <point x="231" y="516"/>
      <point x="255" y="542"/>
      <point x="303" y="579" type="curve"/>
      <point x="285" y="605" type="line"/>
      <point x="198" y="549"/>
      <point x="143" y="477"/>
      <point x="143" y="398" type="curve" smooth="yes"/>
      <point x="143" y="386"/>
      <point x="145" y="375"/>
      <point x="147" y="366" type="curve"/>
      <point x="165" y="350"/>
      <point x="178" y="347"/>
    </contour>
  </outline>
</glyph>
<glyph name="quoteright" format="2">
  <advance width="258"/>
  <unicode hex="2019"/>
  <outline>
    <contour>
      <point x="208" y="595" type="curve" smooth="yes"/>
      <point x="182" y="595"/>
      <point x="159" y="576"/>
      <point x="159" y="536" type="curve" smooth="yes"/>
      <point x="159" y="520"/>
      <point x="167" y="504"/>
      <point x="181" y="485" type="curve" smooth="yes"/>
      <point x="208" y="446" type="line"/>
      <point x="208" y="481" type="line"/>
      <point x="174" y="426"/>
      <point x="150" y="400"/>
      <point x="102" y="363" type="curve"/>
      <point x="120" y="337" type="line"/>
      <point x="207" y="393"/>
      <point x="262" y="465"/>
      <point x="262" y="544" type="curve" smooth="yes"/>
      <point x="262" y="556"/>
      <point x="260" y="567"/>
      <point x="258" y="576" type="curve"/>
      <point x="240" y="592"/>
      <point x="227" y="595"/>
    </contour>
  </outline>
</glyph>
<glyph name="quotesinglbase" format="2">
  <advance width="271"/>
  <unicode hex="201A"/>
  <outline>
    <contour>
      <point x="117" y="105" type="curve" smooth="yes"/>
      <point x="91" y="105"/>
      <point x="68" y="86"/>
      <point x="68" y="46" type="curve" smooth="yes"/>
      <point x="68" y="30"/>
      <point x="76" y="14"/>
      <point x="90" y="-5" type="curve" smooth="yes"/>
      <point x="117" y="-44" type="line"/>
      <point x="117" y="-9" type="line"/>
      <point x="83" y="-64"/>
      <point x="59" y="-90"/>
      <point x="11" y="-127" type="curve"/>
      <point x="29" y="-153" type="line"/>
      <point x="116" y="-97"/>
      <point x="171" y="-25"/>
      <point x="171" y="54" type="curve" smooth="yes"/>
      <point x="171" y="66"/>
      <point x="169" y="77"/>
      <point x="167" y="86" type="curve"/>
      <point x="149" y="102"/>
      <point x="136" y="105"/>
    </contour>
  </outline>
</glyph>
<glyph name="quotedblbase" format="2">
  <advance width="455"/>
  <unicode hex="201E"/>
  <outline>
    <contour>
      <point x="301" y="105" type="curve" smooth="yes"/>
      <point x="275" y="105"/>
      <point x="252" y="86"/>
      <point x="252" y="46" type="curve" smooth="yes"/>
      <point x="252" y="30"/>
      <point x="260" y="14"/>
      <point x="274" y="-5" type="curve" smooth="yes"/>
      <point x="301" y="-44" type="line"/>
      <point x="301" y="-9" type="line"/>
      <point x="267" y="-64"/>
      <point x="243" y="-90"/>
      <point x="195" y="-127" type="curve"/>
      <point x="213" y="-153" type="line"/>
      <point x="300" y="-97"/>
      <point x="355" y="-25"/>
      <point x="355" y="54" type="curve" smooth="yes"/>
      <point x="355" y="66"/>
      <point x="353" y="77"/>
      <point x="351" y="86" type="curve"/>
      <point x="333" y="102"/>
      <point x="320" y="105"/>
    </contour>
    <contour>
      <point x="117" y="105" type="curve" smooth="yes"/>
      <point x="91" y="105"/>
      <point x="68" y="86"/>
      <point x="68" y="46" type="curve" smooth="yes"/>
      <point x="68" y="30"/>
      <point x="76" y="14"/>
      <point x="90" y="-5" type="curve" smooth="yes"/>
      <point x="117" y="-44" type="line"/>
      <point x="117" y="-9" type="line"/>
      <point x="83" y="-64"/>
      <point x="59" y="-90"/>
      <point x="11" y="-127" type="curve"/>
      <point x="29" y="-153" type="line"/>
      <point x="116" y="-97"/>
      <point x="171" y="-25"/>
      <point x="171" y="54" type="curve" smooth="yes"/>
      <point x="171" y="66"/>
      <point x="169" y="77"/>
      <point x="167" y="86" type="curve"/>
      <point x="149" y="102"/>
      <point x="136" y="105"/>
    </contour>
  </outline>
</glyph>
<glyph name="uni2027" format="2">
  <advance width="276"/>
  <unicode hex="2027"/>
  <outline>
    <contour>
      <point x="130" y="165" type="curve" smooth="yes"/>
      <point x="165" y="165"/>
      <point x="194" y="192"/>
      <point x="194" y="228" type="curve" smooth="yes"/>
      <point x="194" y="256"/>
      <point x="172" y="280"/>
      <point x="141" y="280" type="curve" smooth="yes"/>
      <point x="106" y="280"/>
      <point x="76" y="253"/>
      <point x="76" y="218" type="curve" smooth="yes"/>
      <point x="76" y="187"/>
      <point x="99" y="165"/>
    </contour>
  </outline>
</glyph>
<glyph name="perthousand" format="2">
  <advance width="1117"/>
  <unicode hex="2030"/>
  <outline>
    <contour>
      <point x="211" y="-13" type="line"/>
      <point x="668" y="589" type="line"/>
      <point x="638" y="612" type="line"/>
      <point x="181" y="9" type="line"/>
    </contour>
    <contour>
      <point x="174" y="226" type="curve" smooth="yes"/>
      <point x="263" y="226"/>
      <point x="345" y="333"/>
      <point x="345" y="479" type="curve" smooth="yes"/>
      <point x="345" y="564"/>
      <point x="303" y="608"/>
      <point x="240" y="608" type="curve" smooth="yes"/>
      <point x="149" y="608"/>
      <point x="69" y="496"/>
      <point x="69" y="351" type="curve" smooth="yes"/>
      <point x="69" y="270"/>
      <point x="110" y="226"/>
    </contour>
    <contour>
      <point x="178" y="253" type="curve" smooth="yes"/>
      <point x="151" y="253"/>
      <point x="133" y="274"/>
      <point x="133" y="346" type="curve" smooth="yes"/>
      <point x="133" y="477"/>
      <point x="187" y="579"/>
      <point x="237" y="579" type="curve" smooth="yes"/>
      <point x="262" y="579"/>
      <point x="282" y="559"/>
      <point x="282" y="491" type="curve" smooth="yes"/>
      <point x="282" y="368"/>
      <point x="230" y="253"/>
    </contour>
    <contour>
      <point x="598" y="-7" type="curve" smooth="yes"/>
      <point x="686" y="-7"/>
      <point x="768" y="99"/>
      <point x="768" y="245" type="curve" smooth="yes"/>
      <point x="768" y="331"/>
      <point x="726" y="374"/>
      <point x="663" y="374" type="curve" smooth="yes"/>
      <point x="572" y="374"/>
      <point x="493" y="263"/>
      <point x="493" y="117" type="curve" smooth="yes"/>
      <point x="493" y="36"/>
      <point x="533" y="-7"/>
    </contour>
    <contour>
      <point x="601" y="19" type="curve" smooth="yes"/>
      <point x="575" y="19"/>
      <point x="556" y="40"/>
      <point x="556" y="113" type="curve" smooth="yes"/>
      <point x="556" y="243"/>
      <point x="610" y="345"/>
      <point x="660" y="345" type="curve" smooth="yes"/>
      <point x="685" y="345"/>
      <point x="705" y="325"/>
      <point x="705" y="257" type="curve" smooth="yes"/>
      <point x="705" y="135"/>
      <point x="653" y="19"/>
    </contour>
    <contour>
      <point x="906" y="-7" type="curve" smooth="yes"/>
      <point x="994" y="-7"/>
      <point x="1076" y="99"/>
      <point x="1076" y="245" type="curve" smooth="yes"/>
      <point x="1076" y="331"/>
      <point x="1035" y="374"/>
      <point x="971" y="374" type="curve" smooth="yes"/>
      <point x="880" y="374"/>
      <point x="801" y="263"/>
      <point x="801" y="117" type="curve" smooth="yes"/>
      <point x="801" y="36"/>
      <point x="841" y="-7"/>
    </contour>
    <contour>
      <point x="909" y="19" type="curve" smooth="yes"/>
      <point x="883" y="19"/>
      <point x="864" y="40"/>
      <point x="864" y="113" type="curve" smooth="yes"/>
      <point x="864" y="243"/>
      <point x="919" y="345"/>
      <point x="968" y="345" type="curve" smooth="yes"/>
      <point x="993" y="345"/>
      <point x="1013" y="325"/>
      <point x="1013" y="257" type="curve" smooth="yes"/>
      <point x="1013" y="135"/>
      <point x="961" y="19"/>
    </contour>
  </outline>
</glyph>
<glyph name="guilsinglright" format="2">
  <advance width="321"/>
  <unicode hex="203A"/>
  <outline>
    <contour>
      <point x="121" y="417" type="line"/>
      <point x="95" y="392" type="line"/>
      <point x="229" y="214" type="line"/>
      <point x="235" y="250" type="line"/>
      <point x="47" y="74" type="line"/>
      <point x="68" y="46" type="line"/>
      <point x="275" y="207" type="line"/>
      <point x="283" y="256" type="line"/>
    </contour>
  </outline>
</glyph>
<glyph name="Euro" format="2">
  <advance width="469"/>
  <unicode hex="20AC"/>
  <outline>
    <contour>
      <point x="18" y="215" type="line"/>
      <point x="360" y="215" type="line"/>
      <point x="369" y="261" type="line"/>
      <point x="27" y="261" type="line"/>
    </contour>
    <contour>
      <point x="42" y="336" type="line"/>
      <point x="384" y="336" type="line"/>
      <point x="393" y="382" type="line"/>
      <point x="51" y="382" type="line"/>
    </contour>
    <contour>
      <point x="282" y="-13" type="curve" smooth="yes"/>
      <point x="357" y="-13"/>
      <point x="431" y="30"/>
      <point x="447" y="108" type="curve"/>
      <point x="439" y="131"/>
      <point x="425" y="140"/>
      <point x="409" y="140" type="curve" smooth="yes"/>
      <point x="382" y="140"/>
      <point x="371" y="126"/>
      <point x="351" y="87" type="curve" smooth="yes"/>
      <point x="312" y="13" type="line"/>
      <point x="343" y="33" type="line"/>
      <point x="325" y="29"/>
      <point x="310" y="27"/>
      <point x="294" y="27" type="curve" smooth="yes"/>
      <point x="203" y="27"/>
      <point x="149" y="92"/>
      <point x="149" y="221" type="curve" smooth="yes"/>
      <point x="149" y="414"/>
      <point x="255" y="563"/>
      <point x="374" y="563" type="curve" smooth="yes"/>
      <point x="396" y="563"/>
      <point x="420" y="559"/>
      <point x="447" y="547" type="curve"/>
      <point x="421" y="567" type="line"/>
      <point x="426" y="493" type="line" smooth="yes"/>
      <point x="430" y="448"/>
      <point x="438" y="433"/>
      <point x="470" y="433" type="curve" smooth="yes"/>
      <point x="488" y="433"/>
      <point x="506" y="447"/>
      <point x="511" y="472" type="curve"/>
      <point x="506" y="559"/>
      <point x="450" y="605"/>
      <point x="373" y="605" type="curve" smooth="yes"/>
      <point x="216" y="605"/>
      <point x="78" y="447"/>
      <point x="78" y="228" type="curve" smooth="yes"/>
      <point x="78" y="89"/>
      <point x="143" y="-13"/>
    </contour>
  </outline>
</glyph>
<glyph name="Omega" format="2">
  <advance width="649"/>
  <unicode hex="2126"/>
  <outline>
    <contour>
      <point x="57" y="0" type="line"/>
      <point x="268" y="0" type="line"/>
      <point x="287" y="111" type="line"/>
      <point x="218" y="133"/>
      <point x="180" y="203"/>
      <point x="180" y="304" type="curve" smooth="yes"/>
      <point x="180" y="472"/>
      <point x="264" y="584"/>
      <point x="392" y="584" type="curve" smooth="yes"/>
      <point x="482" y="584"/>
      <point x="540" y="513"/>
      <point x="540" y="401" type="curve" smooth="yes"/>
      <point x="540" y="253"/>
      <point x="473" y="139"/>
      <point x="366" y="108" type="curve"/>
      <point x="349" y="0" type="line"/>
      <point x="573" y="0" type="line"/>
      <point x="616" y="156" type="line"/>
      <point x="564" y="156" type="line"/>
      <point x="503" y="20" type="line"/>
      <point x="541" y="66" type="line"/>
      <point x="369" y="66" type="line"/>
      <point x="394" y="18" type="line"/>
      <point x="405" y="81" type="line"/>
      <point x="536" y="129"/>
      <point x="621" y="258"/>
      <point x="621" y="399" type="curve" smooth="yes"/>
      <point x="621" y="536"/>
      <point x="529" y="630"/>
      <point x="391" y="630" type="curve" smooth="yes"/>
      <point x="223" y="630"/>
      <point x="100" y="498"/>
      <point x="100" y="317" type="curve" smooth="yes"/>
      <point x="100" y="211"/>
      <point x="155" y="120"/>
      <point x="241" y="84" type="curve"/>
      <point x="230" y="19" type="line"/>
      <point x="261" y="66" type="line"/>
      <point x="92" y="66" type="line"/>
      <point x="124" y="18" type="line"/>
      <point x="97" y="156" type="line"/>
      <point x="51" y="156" type="line"/>
    </contour>
  </outline>
</glyph>
<glyph name="radical" format="2">
  <advance width="512"/>
  <unicode hex="221A"/>
  <outline>
    <contour>
      <point x="146" y="306" type="line"/>
      <point x="265" y="-92" type="line"/>
      <point x="310" y="-92" type="line"/>
      <point x="577" y="719" type="line"/>
      <point x="506" y="719" type="line"/>
      <point x="287" y="-42" type="line"/>
      <point x="314" y="-42" type="line"/>
      <point x="206" y="325" type="line"/>
      <point x="81" y="325" type="line"/>
      <point x="81" y="281" type="line"/>
      <point x="169" y="281" type="line"/>
    </contour>
  </outline>
</glyph>
<glyph name="integral" format="2">
  <advance width="329"/>
  <unicode hex="222B"/>
  <outline>
    <contour>
      <point x="161" y="257" type="curve" smooth="yes"/>
      <point x="149" y="169"/>
      <point x="136" y="82"/>
      <point x="118" y="-3" type="curve" smooth="yes"/>
      <point x="103" y="-77"/>
      <point x="71" y="-170"/>
      <point x="9" y="-200" type="curve"/>
      <point x="33" y="-200" type="line"/>
      <point x="14" y="-170" type="line" smooth="yes"/>
      <point x="0" y="-147"/>
      <point x="-14" y="-140"/>
      <point x="-31" y="-140" type="curve" smooth="yes"/>
      <point x="-56" y="-140"/>
      <point x="-72" y="-157"/>
      <point x="-80" y="-181" type="curve"/>
      <point x="-78" y="-208"/>
      <point x="-54" y="-230"/>
      <point x="-16" y="-230" type="curve" smooth="yes"/>
      <point x="49" y="-230"/>
      <point x="144" y="-171"/>
      <point x="182" y="27" type="curve" smooth="yes"/>
      <point x="197" y="107"/>
      <point x="212" y="186"/>
      <point x="221" y="267" type="curve" smooth="yes"/>
      <point x="239" y="415"/>
      <point x="248" y="460"/>
      <point x="253" y="482" type="curve" smooth="yes"/>
      <point x="275" y="586"/>
      <point x="303" y="652"/>
      <point x="362" y="678" type="curve"/>
      <point x="337" y="678" type="line"/>
      <point x="356" y="648" type="line" smooth="yes"/>
      <point x="371" y="627"/>
      <point x="386" y="619"/>
      <point x="403" y="619" type="curve" smooth="yes"/>
      <point x="427" y="619"/>
      <point x="444" y="635"/>
      <point x="451" y="659" type="curve"/>
      <point x="449" y="687"/>
      <point x="425" y="708"/>
      <point x="387" y="708" type="curve" smooth="yes"/>
      <point x="316" y="708"/>
      <point x="224" y="646"/>
      <point x="189" y="450" type="curve" smooth="yes"/>
      <point x="185" y="432"/>
      <point x="177" y="393"/>
    </contour>
  </outline>
</glyph>
<glyph name="approxequal" format="2">
  <advance width="487"/>
  <unicode hex="2248"/>
  <outline>
    <contour>
      <point x="275" y="211" type="curve" smooth="yes"/>
      <point x="241" y="241"/>
      <point x="211" y="258"/>
      <point x="175" y="258" type="curve" smooth="yes"/>
      <point x="111" y="258"/>
      <point x="78" y="216"/>
      <point x="72" y="138" type="curve"/>
      <point x="115" y="131" type="line"/>
      <point x="122" y="192"/>
      <point x="146" y="210"/>
      <point x="170" y="210" type="curve" smooth="yes"/>
      <point x="194" y="210"/>
      <point x="215" y="200"/>
      <point x="242" y="174" type="curve" smooth="yes"/>
      <point x="276" y="144"/>
      <point x="306" y="127"/>
      <point x="342" y="127" type="curve" smooth="yes"/>
      <point x="406" y="127"/>
      <point x="439" y="170"/>
      <point x="445" y="247" type="curve"/>
      <point x="402" y="254" type="line"/>
      <point x="395" y="194"/>
      <point x="371" y="175"/>
      <point x="347" y="175" type="curve" smooth="yes"/>
      <point x="323" y="175"/>
      <point x="302" y="185"/>
    </contour>
    <contour>
      <point x="275" y="432" type="curve" smooth="yes"/>
      <point x="241" y="462"/>
      <point x="211" y="479"/>
      <point x="175" y="479" type="curve" smooth="yes"/>
      <point x="111" y="479"/>
      <point x="78" y="437"/>
      <point x="72" y="359" type="curve"/>
      <point x="115" y="352" type="line"/>
      <point x="122" y="413"/>
      <point x="146" y="431"/>
      <point x="170" y="431" type="curve" smooth="yes"/>
      <point x="194" y="431"/>
      <point x="215" y="421"/>
      <point x="242" y="395" type="curve" smooth="yes"/>
      <point x="276" y="365"/>
      <point x="306" y="348"/>
      <point x="342" y="348" type="curve" smooth="yes"/>
      <point x="406" y="348"/>
      <point x="439" y="391"/>
      <point x="445" y="468" type="curve"/>
      <point x="402" y="475" type="line"/>
      <point x="395" y="414"/>
      <point x="371" y="396"/>
      <point x="347" y="396" type="curve" smooth="yes"/>
      <point x="323" y="396"/>
      <point x="302" y="406"/>
    </contour>
  </outline>
</glyph>
<glyph name="notequal" format="2">
  <advance width="487"/>
  <unicode hex="2260"/>
  <outline>
    <contour>
      <point x="132" y="55" type="line"/>
      <point x="404" y="537" type="line"/>
      <point x="375" y="552" type="line"/>
      <point x="103" y="69" type="line"/>
    </contour>
    <contour>
      <point x="462" y="187" type="line"/>
      <point x="462" y="235" type="line"/>
      <point x="54" y="235" type="line"/>
      <point x="54" y="187" type="line"/>
    </contour>
    <contour>
      <point x="462" y="371" type="line"/>
      <point x="462" y="419" type="line"/>
      <point x="54" y="419" type="line"/>
      <point x="54" y="371" type="line"/>
    </contour>
  </outline>
</glyph>
<glyph name="greaterequal" format="2">
  <advance width="487"/>
  <unicode hex="2265"/>
  <outline>
    <contour>
      <point x="63" y="0" type="line"/>
      <point x="471" y="0" type="line"/>
      <point x="471" y="47" type="line"/>
      <point x="63" y="47" type="line"/>
    </contour>
    <contour>
      <point x="448" y="274" type="line"/>
      <point x="448" y="314" type="line"/>
      <point x="105" y="492" type="line"/>
      <point x="79" y="447" type="line"/>
      <point x="397" y="287" type="line"/>
      <point x="397" y="300" type="line"/>
      <point x="79" y="141" type="line"/>
      <point x="105" y="96" type="line"/>
    </contour>
  </outline>
</glyph>
<glyph name="lozenge" format="2">
  <advance width="533"/>
  <unicode hex="25CA"/>
  <outline>
    <contour>
      <point x="435" y="299" type="line"/>
      <point x="296" y="23" type="line"/>
      <point x="157" y="299" type="line"/>
      <point x="296" y="570" type="line"/>
    </contour>
    <contour>
      <point x="484" y="299" type="line"/>
      <point x="301" y="644" type="line"/>
      <point x="290" y="644" type="line"/>
      <point x="107" y="299" type="line"/>
      <point x="290" y="-50" type="line"/>
      <point x="301" y="-50" type="line"/>
    </contour>
  </outline>
</glyph>
<glyph name="uni25CC" format="2">
  <advance width="552"/>
  <unicode hex="25CC"/>
  <anchor x="276" y="-20" name="L"/>
  <anchor x="276" y="480" name="U"/>
  <outline>
    <contour>
      <point x="106" y="93" type="curve" smooth="yes"/>
      <point x="128" y="93"/>
      <point x="142" y="106"/>
      <point x="142" y="129" type="curve" smooth="yes"/>
      <point x="142" y="152"/>
      <point x="127" y="166"/>
      <point x="106" y="166" type="curve" smooth="yes"/>
      <point x="89" y="166"/>
      <point x="72" y="152"/>
      <point x="72" y="129" type="curve" smooth="yes"/>
      <point x="72" y="106"/>
      <point x="89" y="93"/>
    </contour>
    <contour>
      <point x="80" y="193" type="curve" smooth="yes"/>
      <point x="103" y="193"/>
      <point x="117" y="207"/>
      <point x="117" y="230" type="curve" smooth="yes"/>
      <point x="117" y="253"/>
      <point x="102" y="265"/>
      <point x="80" y="265" type="curve" smooth="yes"/>
      <point x="62" y="265"/>
      <point x="46" y="253"/>
      <point x="46" y="230" type="curve" smooth="yes"/>
      <point x="46" y="207"/>
      <point x="62" y="193"/>
    </contour>
    <contour>
      <point x="106" y="293" type="curve" smooth="yes"/>
      <point x="128" y="293"/>
      <point x="142" y="308"/>
      <point x="142" y="331" type="curve" smooth="yes"/>
      <point x="142" y="355"/>
      <point x="127" y="367"/>
      <point x="106" y="367" type="curve" smooth="yes"/>
      <point x="89" y="367"/>
      <point x="72" y="355"/>
      <point x="72" y="331" type="curve" smooth="yes"/>
      <point x="72" y="308"/>
      <point x="89" y="293"/>
    </contour>
    <contour>
      <point x="178" y="18" type="curve" smooth="yes"/>
      <point x="199" y="18"/>
      <point x="214" y="32"/>
      <point x="214" y="56" type="curve" smooth="yes"/>
      <point x="214" y="78"/>
      <point x="197" y="91"/>
      <point x="178" y="91" type="curve" smooth="yes"/>
      <point x="159" y="91"/>
      <point x="142" y="78"/>
      <point x="142" y="56" type="curve" smooth="yes"/>
      <point x="142" y="32"/>
      <point x="159" y="18"/>
    </contour>
    <contour>
      <point x="178" y="368" type="curve" smooth="yes"/>
      <point x="199" y="368"/>
      <point x="214" y="382"/>
      <point x="214" y="404" type="curve" smooth="yes"/>
      <point x="214" y="428"/>
      <point x="197" y="441"/>
      <point x="178" y="441" type="curve" smooth="yes"/>
      <point x="159" y="441"/>
      <point x="142" y="428"/>
      <point x="142" y="404" type="curve" smooth="yes"/>
      <point x="142" y="382"/>
      <point x="159" y="368"/>
    </contour>
    <contour>
      <point x="275" y="-6" type="curve" smooth="yes"/>
      <point x="297" y="-6"/>
      <point x="310" y="7"/>
      <point x="310" y="31" type="curve" smooth="yes"/>
      <point x="310" y="53"/>
      <point x="296" y="66"/>
      <point x="275" y="66" type="curve" smooth="yes"/>
      <point x="256" y="66"/>
      <point x="241" y="53"/>
      <point x="241" y="31" type="curve" smooth="yes"/>
      <point x="241" y="7"/>
      <point x="256" y="-6"/>
    </contour>
    <contour>
      <point x="275" y="392" type="curve" smooth="yes"/>
      <point x="297" y="392"/>
      <point x="310" y="407"/>
      <point x="310" y="430" type="curve" smooth="yes"/>
      <point x="310" y="452"/>
      <point x="296" y="465"/>
      <point x="275" y="465" type="curve" smooth="yes"/>
      <point x="256" y="465"/>
      <point x="241" y="452"/>
      <point x="241" y="430" type="curve" smooth="yes"/>
      <point x="241" y="407"/>
      <point x="256" y="392"/>
    </contour>
    <contour>
      <point x="371" y="18" type="curve" smooth="yes"/>
      <point x="393" y="18"/>
      <point x="408" y="32"/>
      <point x="408" y="56" type="curve" smooth="yes"/>
      <point x="408" y="78"/>
      <point x="391" y="91"/>
      <point x="371" y="91" type="curve" smooth="yes"/>
      <point x="353" y="91"/>
      <point x="336" y="78"/>
      <point x="336" y="56" type="curve" smooth="yes"/>
      <point x="336" y="32"/>
      <point x="353" y="18"/>
    </contour>
    <contour>
      <point x="371" y="368" type="curve" smooth="yes"/>
      <point x="393" y="368"/>
      <point x="408" y="381"/>
      <point x="408" y="404" type="curve" smooth="yes"/>
      <point x="408" y="427"/>
      <point x="391" y="441"/>
      <point x="371" y="441" type="curve" smooth="yes"/>
      <point x="353" y="441"/>
      <point x="336" y="427"/>
      <point x="336" y="404" type="curve" smooth="yes"/>
      <point x="336" y="381"/>
      <point x="353" y="368"/>
    </contour>
    <contour>
      <point x="445" y="93" type="curve" smooth="yes"/>
      <point x="465" y="93"/>
      <point x="480" y="106"/>
      <point x="480" y="129" type="curve" smooth="yes"/>
      <point x="480" y="152"/>
      <point x="464" y="166"/>
      <point x="445" y="166" type="curve" smooth="yes"/>
      <point x="425" y="166"/>
      <point x="408" y="152"/>
      <point x="408" y="129" type="curve" smooth="yes"/>
      <point x="408" y="106"/>
      <point x="425" y="93"/>
    </contour>
    <contour>
      <point x="470" y="193" type="curve" smooth="yes"/>
      <point x="491" y="193"/>
      <point x="506" y="207"/>
      <point x="506" y="230" type="curve" smooth="yes"/>
      <point x="506" y="253"/>
      <point x="489" y="265"/>
      <point x="470" y="265" type="curve" smooth="yes"/>
      <point x="449" y="265"/>
      <point x="434" y="253"/>
      <point x="434" y="230" type="curve" smooth="yes"/>
      <point x="434" y="207"/>
      <point x="449" y="193"/>
    </contour>
    <contour>
      <point x="445" y="293" type="curve" smooth="yes"/>
      <point x="465" y="293"/>
      <point x="480" y="307"/>
      <point x="480" y="330" type="curve" smooth="yes"/>
      <point x="480" y="353"/>
      <point x="464" y="366"/>
      <point x="445" y="366" type="curve" smooth="yes"/>
      <point x="425" y="366"/>
      <point x="408" y="353"/>
      <point x="408" y="330" type="curve" smooth="yes"/>
      <point x="408" y="307"/>
      <point x="425" y="293"/>
    </contour>
  </outline>
</glyph>
<glyph name="uniA4D0" format="2">
  <advance width="498"/>
  <unicode hex="A4D0"/>
  <outline>
    <contour>
      <point x="246" y="244" type="curve" smooth="yes"/>
      <point x="387" y="244"/>
      <point x="488" y="292"/>
      <point x="488" y="401" type="curve" smooth="yes"/>
      <point x="488" y="486"/>
      <point x="417" y="538"/>
      <point x="281" y="538" type="curve" smooth="yes"/>
      <point x="209" y="538"/>
      <point x="153" y="518"/>
      <point x="120" y="500" type="curve" smooth="yes"/>
      <point x="108" y="493"/>
      <point x="101" y="488"/>
      <point x="101" y="477" type="curve" smooth="yes"/>
      <point x="101" y="466"/>
      <point x="104" y="454"/>
      <point x="110" y="445" type="curve" smooth="yes"/>
      <point x="113" y="440"/>
      <point x="121" y="437"/>
      <point x="127" y="437" type="curve" smooth="yes"/>
      <point x="132" y="437"/>
      <point x="138" y="438"/>
      <point x="144" y="441" type="curve" smooth="yes"/>
      <point x="165" y="453"/>
      <point x="210" y="476"/>
      <point x="265" y="476" type="curve" smooth="yes"/>
      <point x="368" y="476"/>
      <point x="418" y="447"/>
      <point x="418" y="395" type="curve" smooth="yes"/>
      <point x="418" y="324"/>
      <point x="355" y="298"/>
      <point x="259" y="298" type="curve" smooth="yes"/>
      <point x="231" y="298"/>
      <point x="200" y="299"/>
      <point x="174" y="302" type="curve"/>
      <point x="153" y="248" type="line"/>
      <point x="173" y="244"/>
      <point x="208" y="244"/>
    </contour>
    <contour>
      <point x="93" y="22" type="curve" smooth="yes"/>
      <point x="115" y="22"/>
      <point x="126" y="30"/>
      <point x="132" y="47" type="curve" smooth="yes"/>
      <point x="138" y="63"/>
      <point x="142" y="79"/>
      <point x="150" y="104" type="curve" smooth="yes"/>
      <point x="173" y="177"/>
      <point x="203" y="270"/>
      <point x="239" y="366" type="curve" smooth="yes"/>
      <point x="255" y="409"/>
      <point x="255" y="408"/>
      <point x="267" y="440" type="curve" smooth="yes"/>
      <point x="272" y="453"/>
      <point x="273" y="459"/>
      <point x="273" y="465" type="curve" smooth="yes"/>
      <point x="273" y="474"/>
      <point x="257" y="485"/>
      <point x="236" y="485" type="curve" smooth="yes"/>
      <point x="218" y="485"/>
      <point x="211" y="482"/>
      <point x="205" y="475" type="curve" smooth="yes"/>
      <point x="201" y="471"/>
      <point x="198" y="463"/>
      <point x="196" y="456" type="curve" smooth="yes"/>
      <point x="188" y="433"/>
      <point x="186" y="427"/>
      <point x="178" y="403" type="curve" smooth="yes"/>
      <point x="148" y="313"/>
      <point x="119" y="229"/>
      <point x="87" y="140" type="curve" smooth="yes"/>
      <point x="74" y="104"/>
      <point x="69" y="89"/>
      <point x="59" y="61" type="curve" smooth="yes"/>
      <point x="57" y="56"/>
      <point x="56" y="49"/>
      <point x="56" y="42" type="curve" smooth="yes"/>
      <point x="56" y="35"/>
      <point x="63" y="22"/>
    </contour>
    <contour>
      <point x="181" y="238" type="curve" smooth="yes"/>
      <point x="316" y="238"/>
      <point x="362" y="208"/>
      <point x="362" y="157" type="curve" smooth="yes"/>
      <point x="362" y="83"/>
      <point x="286" y="52"/>
      <point x="192" y="52" type="curve" smooth="yes"/>
      <point x="153" y="52"/>
      <point x="102" y="58"/>
      <point x="52" y="69" type="curve" smooth="yes"/>
      <point x="43" y="71"/>
      <point x="37" y="72"/>
      <point x="31" y="72" type="curve" smooth="yes"/>
      <point x="25" y="72"/>
      <point x="18" y="67"/>
      <point x="14" y="61" type="curve" smooth="yes"/>
      <point x="8" y="53"/>
      <point x="2" y="43"/>
      <point x="2" y="29" type="curve" smooth="yes"/>
      <point x="2" y="18"/>
      <point x="6" y="12"/>
      <point x="20" y="9" type="curve" smooth="yes"/>
      <point x="73" y="-2"/>
      <point x="113" y="-10"/>
      <point x="183" y="-10" type="curve" smooth="yes"/>
      <point x="321" y="-10"/>
      <point x="432" y="51"/>
      <point x="432" y="158" type="curve" smooth="yes"/>
      <point x="432" y="227"/>
      <point x="348" y="289"/>
      <point x="217" y="289" type="curve" smooth="yes"/>
      <point x="198" y="289"/>
      <point x="174" y="289"/>
      <point x="160" y="289" type="curve"/>
      <point x="138" y="237" type="line"/>
      <point x="152" y="238"/>
      <point x="169" y="238"/>
    </contour>
  </outline>
</glyph>
<glyph name="uniA4D1" format="2">
  <advance width="478"/>
  <unicode hex="A4D1"/>
  <outline>
    <contour>
      <point x="245" y="208" type="curve" smooth="yes"/>
      <point x="387" y="208"/>
      <point x="499" y="266"/>
      <point x="499" y="389" type="curve" smooth="yes"/>
      <point x="499" y="474"/>
      <point x="425" y="538"/>
      <point x="281" y="538" type="curve" smooth="yes"/>
      <point x="215" y="538"/>
      <point x="157" y="520"/>
      <point x="120" y="500" type="curve" smooth="yes"/>
      <point x="108" y="493"/>
      <point x="101" y="488"/>
      <point x="101" y="477" type="curve" smooth="yes"/>
      <point x="101" y="466"/>
      <point x="104" y="454"/>
      <point x="110" y="445" type="curve" smooth="yes"/>
      <point x="114" y="439"/>
      <point x="121" y="437"/>
      <point x="127" y="437" type="curve" smooth="yes"/>
      <point x="132" y="437"/>
      <point x="138" y="438"/>
      <point x="144" y="441" type="curve" smooth="yes"/>
      <point x="162" y="450"/>
      <point x="216" y="476"/>
      <point x="265" y="476" type="curve" smooth="yes"/>
      <point x="375" y="476"/>
      <point x="429" y="441"/>
      <point x="429" y="381" type="curve" smooth="yes"/>
      <point x="429" y="310"/>
      <point x="349" y="270"/>
      <point x="252" y="270" type="curve" smooth="yes"/>
      <point x="226" y="270"/>
      <point x="182" y="274"/>
      <point x="158" y="281" type="curve"/>
      <point x="136" y="222" type="line"/>
      <point x="164" y="214"/>
      <point x="221" y="208"/>
    </contour>
    <contour>
      <point x="239" y="366" type="curve" smooth="yes"/>
      <point x="255" y="409"/>
      <point x="254" y="405"/>
      <point x="267" y="440" type="curve" smooth="yes"/>
      <point x="272" y="453"/>
      <point x="273" y="459"/>
      <point x="273" y="465" type="curve" smooth="yes"/>
      <point x="273" y="474"/>
      <point x="257" y="485"/>
      <point x="236" y="485" type="curve" smooth="yes"/>
      <point x="218" y="485"/>
      <point x="211" y="482"/>
      <point x="205" y="475" type="curve" smooth="yes"/>
      <point x="201" y="471"/>
      <point x="198" y="463"/>
      <point x="196" y="456" type="curve" smooth="yes"/>
      <point x="188" y="433"/>
      <point x="186" y="427"/>
      <point x="178" y="403" type="curve" smooth="yes"/>
      <point x="148" y="313"/>
      <point x="119" y="229"/>
      <point x="87" y="140" type="curve" smooth="yes"/>
      <point x="74" y="104"/>
      <point x="60" y="68"/>
      <point x="47" y="30" type="curve" smooth="yes"/>
      <point x="45" y="24"/>
      <point x="43" y="18"/>
      <point x="43" y="11" type="curve" smooth="yes"/>
      <point x="43" y="3"/>
      <point x="50" y="-9"/>
      <point x="79" y="-9" type="curve" smooth="yes"/>
      <point x="108" y="-9"/>
      <point x="119" y="0"/>
      <point x="124" y="17" type="curve" smooth="yes"/>
      <point x="129" y="33"/>
      <point x="138" y="66"/>
      <point x="150" y="104" type="curve" smooth="yes"/>
      <point x="173" y="177"/>
      <point x="203" y="270"/>
    </contour>
  </outline>
</glyph>
<glyph name="uniA4D2" format="2">
  <advance width="495"/>
  <unicode hex="A4D2"/>
  <outline>
    <contour>
      <point x="377" y="324" type="line"/>
      <point x="349" y="332"/>
      <point x="292" y="338"/>
      <point x="268" y="338" type="curve" smooth="yes"/>
      <point x="113" y="338"/>
      <point x="25" y="248"/>
      <point x="25" y="141" type="curve" smooth="yes"/>
      <point x="25" y="61"/>
      <point x="98" y="-10"/>
      <point x="227" y="-10" type="curve" smooth="yes"/>
      <point x="291" y="-10"/>
      <point x="338" y="0"/>
      <point x="367" y="12" type="curve" smooth="yes"/>
      <point x="403" y="27"/>
      <point x="420" y="44"/>
      <point x="420" y="65" type="curve" smooth="yes"/>
      <point x="420" y="78"/>
      <point x="413" y="87"/>
      <point x="399" y="87" type="curve" smooth="yes"/>
      <point x="394" y="87"/>
      <point x="385" y="85"/>
      <point x="374" y="80" type="curve" smooth="yes"/>
      <point x="343" y="65"/>
      <point x="280" y="52"/>
      <point x="241" y="52" type="curve" smooth="yes"/>
      <point x="148" y="52"/>
      <point x="95" y="98"/>
      <point x="95" y="153" type="curve" smooth="yes"/>
      <point x="95" y="219"/>
      <point x="165" y="276"/>
      <point x="261" y="276" type="curve" smooth="yes"/>
      <point x="287" y="276"/>
      <point x="331" y="272"/>
      <point x="355" y="265" type="curve"/>
    </contour>
    <contour>
      <point x="297" y="44" type="curve" smooth="yes"/>
      <point x="315" y="44"/>
      <point x="322" y="47"/>
      <point x="328" y="54" type="curve" smooth="yes"/>
      <point x="332" y="58"/>
      <point x="335" y="66"/>
      <point x="337" y="73" type="curve" smooth="yes"/>
      <point x="345" y="96"/>
      <point x="347" y="102"/>
      <point x="355" y="126" type="curve" smooth="yes"/>
      <point x="385" y="216"/>
      <point x="415" y="300"/>
      <point x="447" y="389" type="curve" smooth="yes"/>
      <point x="460" y="425"/>
      <point x="474" y="461"/>
      <point x="487" y="499" type="curve" smooth="yes"/>
      <point x="489" y="505"/>
      <point x="491" y="511"/>
      <point x="491" y="518" type="curve" smooth="yes"/>
      <point x="491" y="526"/>
      <point x="484" y="538"/>
      <point x="455" y="538" type="curve" smooth="yes"/>
      <point x="426" y="538"/>
      <point x="415" y="529"/>
      <point x="410" y="512" type="curve" smooth="yes"/>
      <point x="405" y="496"/>
      <point x="396" y="463"/>
      <point x="384" y="425" type="curve" smooth="yes"/>
      <point x="361" y="352"/>
      <point x="330" y="259"/>
      <point x="294" y="163" type="curve" smooth="yes"/>
      <point x="278" y="120"/>
      <point x="278" y="121"/>
      <point x="266" y="89" type="curve" smooth="yes"/>
      <point x="261" y="76"/>
      <point x="260" y="70"/>
      <point x="260" y="64" type="curve" smooth="yes"/>
      <point x="260" y="55"/>
      <point x="276" y="44"/>
    </contour>
  </outline>
</glyph>
<glyph name="uniA4D3" format="2">
  <advance width="547"/>
  <unicode hex="A4D3"/>
  <outline>
    <contour>
      <point x="88" y="86" type="curve" smooth="yes"/>
      <point x="88" y="34"/>
      <point x="153" y="-10"/>
      <point x="234" y="-10" type="curve" smooth="yes"/>
      <point x="395" y="-10"/>
      <point x="530" y="133"/>
      <point x="530" y="301" type="curve" smooth="yes"/>
      <point x="530" y="448"/>
      <point x="425" y="538"/>
      <point x="292" y="538" type="curve" smooth="yes"/>
      <point x="226" y="538"/>
      <point x="168" y="520"/>
      <point x="131" y="500" type="curve" smooth="yes"/>
      <point x="119" y="493"/>
      <point x="112" y="488"/>
      <point x="112" y="477" type="curve" smooth="yes"/>
      <point x="112" y="466"/>
      <point x="115" y="454"/>
      <point x="121" y="445" type="curve" smooth="yes"/>
      <point x="125" y="439"/>
      <point x="132" y="437"/>
      <point x="138" y="437" type="curve" smooth="yes"/>
      <point x="143" y="437"/>
      <point x="149" y="438"/>
      <point x="155" y="441" type="curve" smooth="yes"/>
      <point x="173" y="450"/>
      <point x="227" y="476"/>
      <point x="276" y="476" type="curve" smooth="yes"/>
      <point x="388" y="476"/>
      <point x="460" y="408"/>
      <point x="460" y="292" type="curve" smooth="yes"/>
      <point x="460" y="150"/>
      <point x="334" y="52"/>
      <point x="243" y="52" type="curve" smooth="yes"/>
      <point x="196" y="52"/>
      <point x="161" y="65"/>
      <point x="161" y="95" type="curve" smooth="yes"/>
      <point x="161" y="110"/>
      <point x="174" y="150"/>
      <point x="186" y="183" type="curve" smooth="yes"/>
      <point x="199" y="220"/>
      <point x="215" y="270"/>
      <point x="250" y="366" type="curve" smooth="yes"/>
      <point x="266" y="409"/>
      <point x="266" y="408"/>
      <point x="278" y="440" type="curve" smooth="yes"/>
      <point x="283" y="453"/>
      <point x="284" y="459"/>
      <point x="284" y="465" type="curve" smooth="yes"/>
      <point x="284" y="474"/>
      <point x="268" y="485"/>
      <point x="247" y="485" type="curve" smooth="yes"/>
      <point x="229" y="485"/>
      <point x="222" y="482"/>
      <point x="216" y="475" type="curve" smooth="yes"/>
      <point x="212" y="471"/>
      <point x="209" y="463"/>
      <point x="207" y="456" type="curve" smooth="yes"/>
      <point x="199" y="433"/>
      <point x="197" y="427"/>
      <point x="189" y="403" type="curve" smooth="yes"/>
      <point x="159" y="313"/>
      <point x="130" y="229"/>
      <point x="111" y="176" type="curve" smooth="yes"/>
      <point x="98" y="139"/>
      <point x="88" y="105"/>
    </contour>
  </outline>
</glyph>
<glyph name="uniA4D4" format="2">
  <advance width="544"/>
  <unicode hex="A4D4"/>
  <outline>
    <contour>
      <point x="117" y="495" type="curve" smooth="yes"/>
      <point x="126" y="468"/>
      <point x="138" y="464"/>
      <point x="156" y="464" type="curve" smooth="yes"/>
      <point x="206" y="464"/>
      <point x="311" y="467"/>
      <point x="370" y="467" type="curve" smooth="yes"/>
      <point x="440" y="467"/>
      <point x="553" y="464"/>
      <point x="574" y="464" type="curve" smooth="yes"/>
      <point x="590" y="464"/>
      <point x="608" y="464"/>
      <point x="612" y="466" type="curve" smooth="yes"/>
      <point x="616" y="468"/>
      <point x="621" y="476"/>
      <point x="621" y="487" type="curve" smooth="yes"/>
      <point x="621" y="493"/>
      <point x="619" y="499"/>
      <point x="617" y="504" type="curve" smooth="yes"/>
      <point x="610" y="521"/>
      <point x="606" y="528"/>
      <point x="598" y="532" type="curve" smooth="yes"/>
      <point x="592" y="535"/>
      <point x="574" y="535"/>
      <point x="570" y="535" type="curve" smooth="yes"/>
      <point x="533" y="535"/>
      <point x="419" y="534"/>
      <point x="385" y="534" type="curve" smooth="yes"/>
      <point x="305" y="534"/>
      <point x="164" y="535"/>
      <point x="137" y="535" type="curve" smooth="yes"/>
      <point x="133" y="535"/>
      <point x="128" y="535"/>
      <point x="124" y="533" type="curve" smooth="yes"/>
      <point x="119" y="531"/>
      <point x="113" y="525"/>
      <point x="113" y="513" type="curve" smooth="yes"/>
      <point x="113" y="507"/>
      <point x="114" y="504"/>
    </contour>
    <contour>
      <point x="199" y="-9" type="curve" smooth="yes"/>
      <point x="228" y="-9"/>
      <point x="239" y="0"/>
      <point x="244" y="17" type="curve" smooth="yes"/>
      <point x="249" y="33"/>
      <point x="258" y="66"/>
      <point x="270" y="104" type="curve" smooth="yes"/>
      <point x="293" y="177"/>
      <point x="321" y="264"/>
      <point x="357" y="360" type="curve" smooth="yes"/>
      <point x="373" y="403"/>
      <point x="395" y="453"/>
      <point x="409" y="496" type="curve" smooth="yes"/>
      <point x="411" y="502"/>
      <point x="412" y="506"/>
      <point x="412" y="510" type="curve" smooth="yes"/>
      <point x="412" y="521"/>
      <point x="396" y="532"/>
      <point x="373" y="532" type="curve" smooth="yes"/>
      <point x="355" y="532"/>
      <point x="346" y="529"/>
      <point x="341" y="522" type="curve" smooth="yes"/>
      <point x="337" y="517"/>
      <point x="333" y="508"/>
      <point x="331" y="503" type="curve" smooth="yes"/>
      <point x="318" y="470"/>
      <point x="307" y="430"/>
      <point x="296" y="397" type="curve" smooth="yes"/>
      <point x="266" y="307"/>
      <point x="239" y="229"/>
      <point x="207" y="140" type="curve" smooth="yes"/>
      <point x="194" y="104"/>
      <point x="180" y="68"/>
      <point x="167" y="30" type="curve" smooth="yes"/>
      <point x="165" y="24"/>
      <point x="163" y="18"/>
      <point x="163" y="11" type="curve" smooth="yes"/>
      <point x="163" y="3"/>
      <point x="170" y="-9"/>
    </contour>
  </outline>
</glyph>
<glyph name="uniA4D6" format="2">
  <advance width="520"/>
  <unicode hex="A4D6"/>
  <outline>
    <contour>
      <point x="340" y="538" type="curve" smooth="yes"/>
      <point x="171" y="538"/>
      <point x="54" y="330"/>
      <point x="54" y="161" type="curve" smooth="yes"/>
      <point x="54" y="58"/>
      <point x="111" y="-10"/>
      <point x="217" y="-10" type="curve" smooth="yes"/>
      <point x="324" y="-10"/>
      <point x="408" y="94"/>
      <point x="426" y="161" type="curve" smooth="yes"/>
      <point x="429" y="172"/>
      <point x="430" y="179"/>
      <point x="430" y="185" type="curve" smooth="yes"/>
      <point x="430" y="208"/>
      <point x="408" y="215"/>
      <point x="386" y="215" type="curve" smooth="yes"/>
      <point x="373" y="215"/>
      <point x="367" y="211"/>
      <point x="362" y="200" type="curve" smooth="yes"/>
      <point x="359" y="193"/>
      <point x="355" y="177"/>
      <point x="349" y="160" type="curve" smooth="yes"/>
      <point x="336" y="122"/>
      <point x="279" y="60"/>
      <point x="225" y="60" type="curve" smooth="yes"/>
      <point x="162" y="60"/>
      <point x="124" y="104"/>
      <point x="124" y="172" type="curve" smooth="yes"/>
      <point x="124" y="307"/>
      <point x="222" y="468"/>
      <point x="327" y="468" type="curve" smooth="yes"/>
      <point x="385" y="468"/>
      <point x="403" y="438"/>
      <point x="417" y="407" type="curve" smooth="yes"/>
      <point x="420" y="400"/>
      <point x="426" y="396"/>
      <point x="434" y="396" type="curve" smooth="yes"/>
      <point x="449" y="396"/>
      <point x="485" y="414"/>
      <point x="485" y="430" type="curve" smooth="yes"/>
      <point x="485" y="441"/>
      <point x="469" y="471"/>
      <point x="451" y="491" type="curve" smooth="yes"/>
      <point x="431" y="514"/>
      <point x="395" y="538"/>
    </contour>
    <contour>
      <point x="472" y="205" type="curve" smooth="yes"/>
      <point x="476" y="214"/>
      <point x="476" y="221"/>
      <point x="476" y="227" type="curve" smooth="yes"/>
      <point x="476" y="239"/>
      <point x="470" y="245"/>
      <point x="465" y="246" type="curve" smooth="yes"/>
      <point x="458" y="247"/>
      <point x="450" y="248"/>
      <point x="446" y="248" type="curve" smooth="yes"/>
      <point x="420" y="248"/>
      <point x="406" y="247"/>
      <point x="363" y="247" type="curve" smooth="yes"/>
      <point x="344" y="247"/>
      <point x="324" y="248"/>
      <point x="298" y="248" type="curve" smooth="yes"/>
      <point x="293" y="248"/>
      <point x="275" y="248"/>
      <point x="269" y="245" type="curve" smooth="yes"/>
      <point x="262" y="242"/>
      <point x="257" y="235"/>
      <point x="250" y="217" type="curve" smooth="yes"/>
      <point x="248" y="212"/>
      <point x="245" y="204"/>
      <point x="245" y="199" type="curve" smooth="yes"/>
      <point x="245" y="194"/>
      <point x="246" y="190"/>
      <point x="249" y="187" type="curve" smooth="yes"/>
      <point x="254" y="182"/>
      <point x="264" y="179"/>
      <point x="279" y="179" type="curve" smooth="yes"/>
      <point x="315" y="179"/>
      <point x="348" y="182"/>
      <point x="379" y="182" type="curve" smooth="yes"/>
      <point x="396" y="182"/>
      <point x="403" y="180"/>
      <point x="433" y="180" type="curve" smooth="yes"/>
      <point x="452" y="180"/>
      <point x="462" y="183"/>
    </contour>
  </outline>
</glyph>
